{"glyphs":{"0":{"ha":892,"x_min":78,"x_max":815,"o":"m 612 285 q 619 275 617 281 q 618 264 621 269 q 514 153 582 195 q 364 111 446 111 q 162 195 245 111 q 78 397 78 279 q 162 600 78 516 q 364 684 245 684 q 514 643 446 684 q 618 532 582 601 q 619 520 621 526 q 612 511 617 514 q 600 509 606 507 q 591 517 594 511 q 497 616 558 579 q 364 654 437 654 q 183 579 258 654 q 109 397 109 504 q 183 216 109 291 q 364 142 258 142 q 497 179 437 142 q 591 278 558 216 q 600 286 594 283 q 612 285 607 288 m 570 520 q 564 522 566 518 q 479 603 532 573 q 364 632 427 632 q 198 563 267 632 q 130 397 130 494 q 198 232 130 300 q 364 163 267 163 q 479 193 427 163 q 564 273 532 222 q 570 275 566 277 q 571 269 574 272 q 483 185 538 216 q 364 154 429 154 q 192 225 263 154 q 121 397 121 297 q 192 570 121 498 q 364 642 264 642 q 483 611 429 642 q 571 527 538 580 q 570 520 574 523 m 397 437 l 397 386 q 385 378 391 385 l 385 437 q 383 445 385 442 q 380 448 382 447 q 374 449 378 449 l 374 452 q 381 451 375 452 q 391 451 387 451 q 400 451 395 451 q 407 452 406 452 l 407 449 q 400 448 403 449 q 397 445 398 447 q 397 437 397 444 m 374 358 l 374 361 q 380 362 378 361 q 383 365 382 363 q 389 374 385 370 q 395 378 392 378 l 397 380 l 397 372 q 397 365 397 366 q 400 362 398 363 q 407 361 403 361 l 407 358 q 400 358 406 358 q 391 359 395 359 q 381 358 387 359 q 374 358 375 358 m 273 418 q 265 409 271 413 q 250 403 257 404 l 252 403 q 261 400 259 401 q 267 395 264 398 q 270 386 269 391 l 273 372 q 275 366 275 367 q 277 362 277 363 q 280 361 278 361 q 283 362 283 361 l 288 366 l 290 365 q 283 359 286 361 q 275 357 281 357 q 267 359 269 357 q 261 371 263 363 l 258 384 q 256 390 258 387 q 255 395 255 393 q 251 400 254 398 q 243 403 247 403 l 231 403 l 231 372 q 232 365 231 368 q 235 362 233 363 q 241 361 237 361 l 241 358 q 235 358 240 358 q 225 359 229 359 q 215 358 221 359 q 208 358 210 358 l 208 361 q 215 362 212 361 q 218 365 217 363 q 218 372 218 366 l 218 437 q 218 445 218 444 q 215 448 217 447 q 208 449 212 449 l 208 452 q 215 451 210 452 q 224 451 220 451 l 235 451 l 244 451 q 261 448 255 451 q 272 440 268 446 q 275 429 275 436 q 273 418 275 423 m 254 408 q 260 416 258 411 q 262 427 262 420 q 257 444 262 438 q 241 449 252 449 q 235 448 237 449 q 232 445 233 447 q 231 437 231 442 l 231 405 l 239 405 q 254 408 248 405 m 348 362 q 350 366 350 363 q 348 372 350 368 l 340 393 l 339 396 l 324 435 l 309 396 l 309 393 l 303 380 q 300 369 300 374 q 303 363 300 365 q 312 361 307 361 l 312 358 q 305 358 310 358 q 297 359 300 359 q 292 358 295 359 q 287 358 288 358 l 287 361 q 297 372 293 361 l 328 452 l 330 452 l 362 370 q 372 361 366 361 l 372 358 q 366 358 370 358 q 357 359 361 359 q 348 358 353 359 q 340 358 342 358 l 340 361 q 348 362 345 361 m 458 402 q 466 393 463 399 q 469 381 469 389 q 465 368 469 373 q 455 359 461 362 q 441 357 450 357 q 431 358 436 357 q 423 361 429 358 q 418 363 420 363 l 416 361 q 416 357 416 361 l 412 357 q 413 389 413 362 l 416 389 q 422 368 417 375 q 440 359 429 359 q 448 361 444 359 q 454 367 452 363 q 457 376 457 372 q 454 386 457 380 q 448 393 452 390 q 437 401 441 399 q 424 409 425 408 q 416 418 420 412 q 413 430 413 423 q 416 443 413 437 q 425 450 420 448 q 438 453 431 453 q 445 452 443 453 q 450 450 447 452 l 454 448 q 458 446 457 446 q 460 448 459 446 q 461 452 461 448 l 465 452 q 464 425 464 446 l 460 425 q 458 437 460 429 q 450 447 456 444 q 439 450 446 450 q 431 448 435 450 q 425 443 428 447 q 423 435 423 439 q 427 424 423 428 q 437 416 433 418 q 442 412 439 414 l 445 411 q 458 402 456 404 m 498 375 l 518 443 q 520 444 518 444 l 521 444 l 521 443 l 522 442 l 522 441 l 499 374 q 498 374 499 374 q 498 374 498 374 l 498 375 m 545 397 q 528 394 534 394 l 524 394 q 522 394 524 394 q 519 395 520 395 q 511 398 512 395 q 513 400 511 399 q 517 401 514 401 q 547 404 536 401 q 564 414 557 406 q 569 434 569 420 l 569 435 l 569 435 l 569 435 l 569 435 l 569 435 l 569 435 l 569 435 l 570 435 l 570 435 l 570 435 l 570 435 l 570 435 l 570 435 l 570 435 l 570 434 q 565 414 570 421 q 547 403 559 406 q 517 400 536 400 q 515 400 516 400 l 514 399 q 517 396 511 397 q 521 395 519 395 l 528 395 q 545 397 536 395 q 561 405 553 399 q 573 416 569 410 q 578 431 578 422 q 575 442 578 437 q 568 450 572 446 q 559 455 563 454 q 551 458 551 458 q 536 460 541 460 q 524 459 528 460 q 518 458 522 458 q 512 456 514 457 q 501 453 508 456 q 496 451 499 452 q 492 449 494 450 q 490 448 491 449 q 488 447 488 448 q 487 446 488 446 q 486 446 486 446 l 483 444 q 475 435 477 438 q 472 426 472 431 l 472 425 q 481 411 473 416 q 502 412 489 405 l 502 412 l 503 412 l 503 412 l 503 412 l 503 412 l 503 411 l 503 411 l 503 411 l 503 411 l 503 410 l 503 410 l 503 410 l 503 410 q 479 410 490 403 q 471 423 473 415 l 471 424 l 471 425 l 471 425 l 471 427 q 472 433 471 429 q 474 438 473 435 q 477 441 475 439 l 478 443 l 481 446 l 484 448 q 496 455 492 453 q 510 460 503 458 q 514 461 512 460 q 520 461 517 461 q 524 462 523 462 q 537 463 529 463 q 547 462 544 463 q 557 459 554 460 q 565 455 563 457 q 573 448 572 450 q 578 439 577 443 q 579 431 579 433 q 577 420 579 425 q 572 413 575 416 q 570 411 571 412 q 569 410 569 410 q 567 408 568 409 q 566 407 566 408 q 561 404 564 406 q 545 397 553 399 m 633 427 l 632 427 l 632 429 l 633 431 q 634 433 633 433 l 635 432 l 635 431 l 634 428 q 633 427 634 427 m 813 402 q 815 399 815 400 q 814 396 815 397 q 806 393 812 395 q 777 399 805 393 q 734 399 753 405 q 702 400 712 393 q 699 403 699 401 l 694 395 l 692 391 l 690 387 l 687 383 q 685 381 686 382 q 684 378 684 379 q 677 376 680 375 q 677 389 675 376 q 678 393 678 390 q 679 397 678 396 l 681 406 q 682 409 681 407 q 683 413 682 412 q 676 401 679 406 q 668 392 673 397 q 659 388 663 387 q 656 390 659 388 q 655 398 654 393 l 651 392 q 642 383 646 385 q 634 386 636 380 q 633 399 632 392 q 615 374 621 384 l 612 365 q 600 335 610 359 q 595 326 597 328 q 593 325 595 326 l 593 324 q 592 323 593 323 q 591 324 591 323 q 589 328 589 327 q 591 334 589 329 q 600 353 593 341 q 614 375 606 363 q 619 391 616 380 q 624 404 623 401 q 621 401 623 403 q 618 399 621 400 q 613 400 615 397 l 612 398 q 611 397 611 397 q 610 395 610 395 q 608 392 610 393 q 607 391 608 392 q 606 390 606 391 q 600 391 601 388 q 600 401 598 395 q 599 400 600 400 q 597 399 598 400 q 595 399 597 399 q 593 399 594 399 q 595 410 593 401 q 584 399 589 405 q 576 387 581 394 l 575 386 l 574 387 l 574 387 q 578 401 575 392 q 580 409 578 404 q 583 416 582 414 q 526 385 564 387 l 525 385 l 525 385 l 525 385 l 525 385 l 524 385 l 524 386 l 524 386 l 525 386 l 525 387 l 525 387 l 525 387 l 526 387 q 585 425 567 387 l 586 425 q 587 426 586 426 l 588 425 l 588 425 l 588 425 l 586 420 l 581 406 q 580 402 581 405 q 578 399 579 400 q 578 395 578 397 q 577 391 578 393 q 581 396 578 393 q 583 401 583 399 q 591 410 589 408 l 595 414 l 597 415 l 597 416 l 598 416 l 600 416 l 600 414 q 598 412 600 414 q 597 410 597 411 q 595 400 593 401 q 600 404 598 400 q 611 416 604 415 q 613 414 613 416 q 614 411 614 412 l 614 409 l 614 407 l 614 406 l 614 404 l 614 403 l 613 401 l 614 401 q 620 401 616 398 q 623 406 622 403 q 626 410 625 407 l 626 410 l 627 411 q 627 412 627 412 l 627 412 l 628 411 l 628 411 l 628 410 q 618 381 623 394 q 633 403 623 388 l 635 405 q 640 415 637 411 q 648 419 644 420 q 650 410 652 417 q 642 396 646 397 q 639 397 640 396 l 639 399 l 640 399 q 642 397 640 397 q 646 404 644 397 l 646 405 q 647 416 651 415 q 641 411 645 417 q 636 398 637 405 q 637 386 635 391 q 645 387 640 382 q 654 399 646 389 q 656 400 655 399 q 656 402 656 401 l 656 404 q 672 419 661 419 q 676 417 675 419 q 675 412 677 414 q 671 409 674 410 q 668 410 669 408 q 670 412 668 412 q 671 412 671 412 q 675 413 674 409 q 675 415 675 414 q 671 418 673 419 q 659 398 665 416 q 659 390 655 391 q 673 399 665 389 q 686 422 681 410 l 680 421 q 679 422 679 421 l 680 422 l 686 424 q 690 433 688 428 q 692 441 691 438 q 696 441 693 443 q 696 440 696 441 q 689 424 693 434 q 709 425 700 426 q 725 426 719 424 q 731 436 731 428 q 732 436 731 437 q 732 425 739 429 q 714 422 731 421 q 688 422 696 424 q 683 404 685 415 q 682 402 682 404 q 682 399 682 400 q 680 395 680 397 l 678 387 q 678 376 676 378 q 683 379 680 376 q 687 385 686 382 l 688 387 q 691 391 689 389 q 693 395 692 394 q 695 400 694 397 q 698 404 697 403 q 696 407 696 406 q 699 414 694 412 q 701 414 701 415 q 699 404 703 411 q 702 401 700 403 q 733 400 711 394 q 777 400 752 406 q 806 395 803 395 q 813 397 811 395 q 814 399 814 397 q 813 401 814 401 q 811 401 812 402 q 810 399 810 401 q 812 399 811 399 l 812 398 l 812 397 q 811 398 811 397 q 810 398 811 398 q 809 399 809 398 q 813 402 809 403 m 601 391 q 609 395 603 386 q 612 401 611 398 q 610 401 610 401 q 607 405 607 403 q 608 409 607 408 q 608 411 608 410 q 609 412 608 412 l 608 412 q 608 412 608 412 q 607 410 608 411 l 606 408 q 602 401 602 404 q 600 394 600 395 q 601 393 600 393 q 601 391 601 392 m 612 402 q 613 408 613 406 q 612 413 613 412 l 612 412 l 611 412 q 610 412 610 412 q 610 410 610 411 q 609 408 609 409 l 609 406 q 612 402 609 404 m 610 366 l 610 367 q 606 360 609 365 q 601 352 602 355 q 593 334 595 342 q 591 328 591 330 q 592 326 591 326 q 593 328 593 327 q 598 336 595 330 q 610 366 604 349 m 700 414 q 699 405 694 412 q 701 409 700 406 q 700 414 701 412 m 328 607 l 332 595 l 313 590 l 315 583 l 332 587 l 334 575 l 318 571 l 320 564 l 339 568 l 342 556 l 309 548 l 296 598 l 328 607 m 425 549 l 410 551 l 411 582 l 393 554 l 389 555 l 380 587 l 371 558 l 357 560 l 373 610 l 387 608 l 395 578 l 412 604 l 425 602 l 425 549 m 504 550 q 505 544 504 550 q 498 529 506 538 q 480 518 491 519 q 459 524 469 517 q 452 563 437 541 q 471 574 460 574 q 492 568 481 576 q 504 550 502 561 m 467 535 q 486 538 478 526 q 484 557 494 549 q 473 560 479 562 q 465 554 469 559 q 467 535 457 543 m 241 570 q 261 574 250 576 q 278 564 271 574 q 283 544 285 555 q 271 527 281 534 l 254 515 l 224 557 l 241 570 m 267 555 q 258 561 264 559 q 248 558 254 562 l 243 555 l 258 534 l 263 537 q 267 555 274 546 m 334 229 l 316 235 l 314 227 l 330 222 l 328 211 l 311 216 l 309 208 l 328 203 l 324 191 l 292 200 l 306 250 l 338 241 l 334 229 m 401 191 l 396 190 l 378 218 l 378 187 l 364 185 l 363 238 l 378 240 l 395 214 l 402 244 l 416 246 l 433 196 l 418 194 l 410 223 l 401 191 m 480 279 q 498 269 491 278 q 504 248 506 259 q 492 229 502 237 q 471 223 481 222 q 452 234 460 224 q 447 254 445 243 q 458 273 448 265 q 480 279 470 281 m 484 240 q 486 259 494 248 q 477 265 482 264 q 467 262 471 267 q 465 243 456 254 q 484 240 473 232 m 269 238 q 252 228 262 229 q 232 235 241 227 l 216 248 l 248 289 l 264 276 q 275 258 274 269 q 269 238 276 248 m 251 270 l 235 250 l 239 245 q 258 248 250 237 q 256 266 266 258 l 251 270 m 479 339 q 486 341 482 343 q 488 336 490 338 q 438 281 471 302 q 366 260 405 260 q 291 282 324 260 q 241 340 257 304 q 243 347 239 345 l 243 347 q 249 345 248 348 q 296 290 264 311 q 366 269 328 269 q 433 288 403 269 q 479 339 463 307 m 479 467 q 473 468 475 464 q 427 511 455 495 q 366 526 399 526 q 303 510 332 526 q 257 467 275 494 q 252 465 255 463 q 250 472 248 468 q 299 518 269 501 q 366 535 330 535 q 431 518 401 535 q 480 473 461 501 q 479 467 483 469 m 172 396 q 222 527 172 471 q 226 528 224 528 q 229 527 227 528 q 229 521 232 525 q 181 396 181 467 q 222 281 181 332 q 220 274 224 277 q 214 275 217 271 q 172 396 172 328 m 549 359 q 552 363 550 363 l 554 363 q 557 357 559 361 q 521 277 549 313 q 515 277 519 274 q 513 283 511 279 q 549 359 541 319 m 509 526 q 513 524 511 526 q 536 491 528 507 q 534 485 538 488 q 529 486 531 483 q 506 519 521 502 q 507 525 503 523 q 509 526 508 526 z "},"1":{"ha":892,"x_min":78,"x_max":815,"o":"m 612 285 q 619 275 617 281 q 618 264 621 269 q 514 153 582 195 q 364 111 446 111 q 162 195 245 111 q 78 397 78 279 q 162 600 78 516 q 364 684 245 684 q 514 643 446 684 q 618 532 582 601 q 619 520 621 526 q 612 511 617 514 q 600 509 606 507 q 591 517 594 511 q 497 616 558 579 q 364 654 437 654 q 183 579 258 654 q 109 397 109 504 q 183 216 109 291 q 364 142 258 142 q 497 179 437 142 q 591 278 558 216 q 600 286 594 283 q 612 285 607 288 m 570 520 q 564 522 566 518 q 479 603 532 573 q 364 632 427 632 q 198 563 267 632 q 130 397 130 494 q 198 232 130 300 q 364 163 267 163 q 479 193 427 163 q 564 273 532 222 q 570 275 566 277 q 571 269 574 272 q 483 185 538 216 q 364 154 429 154 q 192 225 263 154 q 121 397 121 297 q 192 570 121 498 q 364 642 264 642 q 483 611 429 642 q 571 527 538 580 q 570 520 574 523 m 397 437 l 397 386 q 385 378 391 385 l 385 437 q 383 445 385 442 q 380 448 382 447 q 374 449 378 449 l 374 452 q 381 451 375 452 q 391 451 387 451 q 400 451 395 451 q 407 452 406 452 l 407 449 q 400 448 403 449 q 397 445 398 447 q 397 437 397 444 m 374 358 l 374 361 q 380 362 378 361 q 383 365 382 363 q 389 374 385 370 q 395 378 392 378 l 397 380 l 397 372 q 397 365 397 366 q 400 362 398 363 q 407 361 403 361 l 407 358 q 400 358 406 358 q 391 359 395 359 q 381 358 387 359 q 374 358 375 358 m 273 418 q 265 409 271 413 q 250 403 257 404 l 252 403 q 261 400 259 401 q 267 395 264 398 q 270 386 269 391 l 273 372 q 275 366 275 367 q 277 362 277 363 q 280 361 278 361 q 283 362 283 361 l 288 366 l 290 365 q 283 359 286 361 q 275 357 281 357 q 267 359 269 357 q 261 371 263 363 l 258 384 q 256 390 258 387 q 255 395 255 393 q 251 400 254 398 q 243 403 247 403 l 231 403 l 231 372 q 232 365 231 368 q 235 362 233 363 q 241 361 237 361 l 241 358 q 235 358 240 358 q 225 359 229 359 q 215 358 221 359 q 208 358 210 358 l 208 361 q 215 362 212 361 q 218 365 217 363 q 218 372 218 366 l 218 437 q 218 445 218 444 q 215 448 217 447 q 208 449 212 449 l 208 452 q 215 451 210 452 q 224 451 220 451 l 235 451 l 244 451 q 261 448 255 451 q 272 440 268 446 q 275 429 275 436 q 273 418 275 423 m 254 408 q 260 416 258 411 q 262 427 262 420 q 257 444 262 438 q 241 449 252 449 q 235 448 237 449 q 232 445 233 447 q 231 437 231 442 l 231 405 l 239 405 q 254 408 248 405 m 348 362 q 350 366 350 363 q 348 372 350 368 l 340 393 l 339 396 l 324 435 l 309 396 l 309 393 l 303 380 q 300 369 300 374 q 303 363 300 365 q 312 361 307 361 l 312 358 q 305 358 310 358 q 297 359 300 359 q 292 358 295 359 q 287 358 288 358 l 287 361 q 297 372 293 361 l 328 452 l 330 452 l 362 370 q 372 361 366 361 l 372 358 q 366 358 370 358 q 357 359 361 359 q 348 358 353 359 q 340 358 342 358 l 340 361 q 348 362 345 361 m 458 402 q 466 393 463 399 q 469 381 469 389 q 465 368 469 373 q 455 359 461 362 q 441 357 450 357 q 431 358 436 357 q 423 361 429 358 q 418 363 420 363 l 416 361 q 416 357 416 361 l 412 357 q 413 389 413 362 l 416 389 q 422 368 417 375 q 440 359 429 359 q 448 361 444 359 q 454 367 452 363 q 457 376 457 372 q 454 386 457 380 q 448 393 452 390 q 437 401 441 399 q 424 409 425 408 q 416 418 420 412 q 413 430 413 423 q 416 443 413 437 q 425 450 420 448 q 438 453 431 453 q 445 452 443 453 q 450 450 447 452 l 454 448 q 458 446 457 446 q 460 448 459 446 q 461 452 461 448 l 465 452 q 464 425 464 446 l 460 425 q 458 437 460 429 q 450 447 456 444 q 439 450 446 450 q 431 448 435 450 q 425 443 428 447 q 423 435 423 439 q 427 424 423 428 q 437 416 433 418 q 442 412 439 414 l 445 411 q 458 402 456 404 m 498 375 l 518 443 q 520 444 518 444 l 521 444 l 521 443 l 522 442 l 522 441 l 499 374 q 498 374 499 374 q 498 374 498 374 l 498 375 m 545 397 q 528 394 534 394 l 524 394 q 522 394 524 394 q 519 395 520 395 q 511 398 512 395 q 513 400 511 399 q 517 401 514 401 q 547 404 536 401 q 564 414 557 406 q 569 434 569 420 l 569 435 l 569 435 l 569 435 l 569 435 l 569 435 l 569 435 l 569 435 l 570 435 l 570 435 l 570 435 l 570 435 l 570 435 l 570 435 l 570 435 l 570 434 q 565 414 570 421 q 547 403 559 406 q 517 400 536 400 q 515 400 516 400 l 514 399 q 517 396 511 397 q 521 395 519 395 l 528 395 q 545 397 536 395 q 561 405 553 399 q 573 416 569 410 q 578 431 578 422 q 575 442 578 437 q 568 450 572 446 q 559 455 563 454 q 551 458 551 458 q 536 460 541 460 q 524 459 528 460 q 518 458 522 458 q 512 456 514 457 q 501 453 508 456 q 496 451 499 452 q 492 449 494 450 q 490 448 491 449 q 488 447 488 448 q 487 446 488 446 q 486 446 486 446 l 483 444 q 475 435 477 438 q 472 426 472 431 l 472 425 q 481 411 473 416 q 502 412 489 405 l 502 412 l 503 412 l 503 412 l 503 412 l 503 412 l 503 411 l 503 411 l 503 411 l 503 411 l 503 410 l 503 410 l 503 410 l 503 410 q 479 410 490 403 q 471 423 473 415 l 471 424 l 471 425 l 471 425 l 471 427 q 472 433 471 429 q 474 438 473 435 q 477 441 475 439 l 478 443 l 481 446 l 484 448 q 496 455 492 453 q 510 460 503 458 q 514 461 512 460 q 520 461 517 461 q 524 462 523 462 q 537 463 529 463 q 547 462 544 463 q 557 459 554 460 q 565 455 563 457 q 573 448 572 450 q 578 439 577 443 q 579 431 579 433 q 577 420 579 425 q 572 413 575 416 q 570 411 571 412 q 569 410 569 410 q 567 408 568 409 q 566 407 566 408 q 561 404 564 406 q 545 397 553 399 m 633 427 l 632 427 l 632 429 l 633 431 q 634 433 633 433 l 635 432 l 635 431 l 634 428 q 633 427 634 427 m 813 402 q 815 399 815 400 q 814 396 815 397 q 806 393 812 395 q 777 399 805 393 q 734 399 753 405 q 702 400 712 393 q 699 403 699 401 l 694 395 l 692 391 l 690 387 l 687 383 q 685 381 686 382 q 684 378 684 379 q 677 376 680 375 q 677 389 675 376 q 678 393 678 390 q 679 397 678 396 l 681 406 q 682 409 681 407 q 683 413 682 412 q 676 401 679 406 q 668 392 673 397 q 659 388 663 387 q 656 390 659 388 q 655 398 654 393 l 651 392 q 642 383 646 385 q 634 386 636 380 q 633 399 632 392 q 615 374 621 384 l 612 365 q 600 335 610 359 q 595 326 597 328 q 593 325 595 326 l 593 324 q 592 323 593 323 q 591 324 591 323 q 589 328 589 327 q 591 334 589 329 q 600 353 593 341 q 614 375 606 363 q 619 391 616 380 q 624 404 623 401 q 621 401 623 403 q 618 399 621 400 q 613 400 615 397 l 612 398 q 611 397 611 397 q 610 395 610 395 q 608 392 610 393 q 607 391 608 392 q 606 390 606 391 q 600 391 601 388 q 600 401 598 395 q 599 400 600 400 q 597 399 598 400 q 595 399 597 399 q 593 399 594 399 q 595 410 593 401 q 584 399 589 405 q 576 387 581 394 l 575 386 l 574 387 l 574 387 q 578 401 575 392 q 580 409 578 404 q 583 416 582 414 q 526 385 564 387 l 525 385 l 525 385 l 525 385 l 525 385 l 524 385 l 524 386 l 524 386 l 525 386 l 525 387 l 525 387 l 525 387 l 526 387 q 585 425 567 387 l 586 425 q 587 426 586 426 l 588 425 l 588 425 l 588 425 l 586 420 l 581 406 q 580 402 581 405 q 578 399 579 400 q 578 395 578 397 q 577 391 578 393 q 581 396 578 393 q 583 401 583 399 q 591 410 589 408 l 595 414 l 597 415 l 597 416 l 598 416 l 600 416 l 600 414 q 598 412 600 414 q 597 410 597 411 q 595 400 593 401 q 600 404 598 400 q 611 416 604 415 q 613 414 613 416 q 614 411 614 412 l 614 409 l 614 407 l 614 406 l 614 404 l 614 403 l 613 401 l 614 401 q 620 401 616 398 q 623 406 622 403 q 626 410 625 407 l 626 410 l 627 411 q 627 412 627 412 l 627 412 l 628 411 l 628 411 l 628 410 q 618 381 623 394 q 633 403 623 388 l 635 405 q 640 415 637 411 q 648 419 644 420 q 650 410 652 417 q 642 396 646 397 q 639 397 640 396 l 639 399 l 640 399 q 642 397 640 397 q 646 404 644 397 l 646 405 q 647 416 651 415 q 641 411 645 417 q 636 398 637 405 q 637 386 635 391 q 645 387 640 382 q 654 399 646 389 q 656 400 655 399 q 656 402 656 401 l 656 404 q 672 419 661 419 q 676 417 675 419 q 675 412 677 414 q 671 409 674 410 q 668 410 669 408 q 670 412 668 412 q 671 412 671 412 q 675 413 674 409 q 675 415 675 414 q 671 418 673 419 q 659 398 665 416 q 659 390 655 391 q 673 399 665 389 q 686 422 681 410 l 680 421 q 679 422 679 421 l 680 422 l 686 424 q 690 433 688 428 q 692 441 691 438 q 696 441 693 443 q 696 440 696 441 q 689 424 693 434 q 709 425 700 426 q 725 426 719 424 q 731 436 731 428 q 732 436 731 437 q 732 425 739 429 q 714 422 731 421 q 688 422 696 424 q 683 404 685 415 q 682 402 682 404 q 682 399 682 400 q 680 395 680 397 l 678 387 q 678 376 676 378 q 683 379 680 376 q 687 385 686 382 l 688 387 q 691 391 689 389 q 693 395 692 394 q 695 400 694 397 q 698 404 697 403 q 696 407 696 406 q 699 414 694 412 q 701 414 701 415 q 699 404 703 411 q 702 401 700 403 q 733 400 711 394 q 777 400 752 406 q 806 395 803 395 q 813 397 811 395 q 814 399 814 397 q 813 401 814 401 q 811 401 812 402 q 810 399 810 401 q 812 399 811 399 l 812 398 l 812 397 q 811 398 811 397 q 810 398 811 398 q 809 399 809 398 q 813 402 809 403 m 601 391 q 609 395 603 386 q 612 401 611 398 q 610 401 610 401 q 607 405 607 403 q 608 409 607 408 q 608 411 608 410 q 609 412 608 412 l 608 412 q 608 412 608 412 q 607 410 608 411 l 606 408 q 602 401 602 404 q 600 394 600 395 q 601 393 600 393 q 601 391 601 392 m 612 402 q 613 408 613 406 q 612 413 613 412 l 612 412 l 611 412 q 610 412 610 412 q 610 410 610 411 q 609 408 609 409 l 609 406 q 612 402 609 404 m 610 366 l 610 367 q 606 360 609 365 q 601 352 602 355 q 593 334 595 342 q 591 328 591 330 q 592 326 591 326 q 593 328 593 327 q 598 336 595 330 q 610 366 604 349 m 700 414 q 699 405 694 412 q 701 409 700 406 q 700 414 701 412 m 241 570 q 261 574 250 576 q 278 564 271 574 q 283 544 285 555 q 271 527 281 534 l 254 515 l 224 557 l 241 570 m 267 555 q 258 561 264 559 q 248 558 254 562 l 243 555 l 258 534 l 263 537 q 267 555 274 546 m 328 607 l 332 595 l 313 590 l 315 583 l 332 587 l 334 575 l 318 571 l 320 564 l 339 568 l 342 556 l 309 548 l 296 598 l 328 607 m 425 549 l 410 551 l 411 582 l 393 554 l 389 555 l 380 587 l 371 558 l 357 560 l 373 610 l 387 608 l 395 578 l 412 604 l 425 602 l 425 549 m 504 550 q 505 544 504 550 q 498 529 506 538 q 480 518 491 519 q 459 524 469 517 q 452 563 437 541 q 471 574 460 574 q 492 568 481 576 q 504 550 502 561 m 467 535 q 486 538 478 526 q 484 557 494 549 q 473 560 479 562 q 465 554 469 559 q 467 535 457 543 m 334 229 l 316 235 l 314 227 l 330 222 l 328 211 l 311 216 l 309 208 l 328 203 l 324 191 l 292 200 l 306 250 l 338 241 l 334 229 m 269 238 q 252 228 262 229 q 232 235 241 227 l 216 248 l 248 289 l 264 276 q 275 258 274 269 q 269 238 276 248 m 251 270 l 235 250 l 239 245 q 258 248 250 237 q 256 266 266 258 l 251 270 m 401 191 l 396 190 l 378 218 l 378 187 l 364 185 l 363 238 l 378 240 l 395 214 l 402 244 l 416 246 l 433 196 l 418 194 l 410 223 l 401 191 m 480 279 q 498 269 491 278 q 504 248 506 259 q 492 229 502 237 q 471 223 481 222 q 452 234 460 224 q 447 255 445 243 q 458 273 448 266 q 480 279 469 281 m 484 240 q 486 259 494 248 q 477 265 482 264 q 467 262 471 267 q 465 243 456 254 q 484 240 473 232 m 479 467 q 473 468 475 464 q 427 511 455 495 q 366 526 399 526 q 303 510 332 526 q 257 467 275 494 q 252 465 255 463 q 250 472 248 468 q 299 518 269 501 q 366 535 330 535 q 431 518 401 535 q 480 473 461 501 q 479 467 483 469 m 479 339 q 486 341 482 343 q 488 336 490 338 q 438 281 471 302 q 366 260 405 260 q 291 282 324 260 q 241 340 257 304 q 243 347 239 345 l 243 347 q 249 345 248 348 q 296 290 264 311 q 366 269 328 269 q 433 288 403 269 q 479 339 463 307 m 549 359 q 552 363 550 363 l 554 363 q 557 357 559 361 q 521 277 549 313 q 515 277 519 274 q 513 283 511 279 q 549 359 541 319 m 509 526 q 513 524 511 526 q 536 491 528 507 q 534 485 538 488 q 529 486 531 483 q 506 519 521 502 q 507 525 503 523 q 509 526 508 526 m 172 396 q 222 527 172 471 q 226 528 224 528 q 229 527 227 528 q 229 521 232 525 q 181 396 181 467 q 222 281 181 332 q 220 274 224 277 q 214 275 217 271 q 172 396 172 328 z "},"2":{"ha":892,"x_min":78,"x_max":815,"o":"m 612 285 q 619 275 617 281 q 618 264 621 269 q 514 153 582 195 q 364 111 446 111 q 162 195 245 111 q 78 397 78 279 q 162 600 78 516 q 364 684 245 684 q 514 643 446 684 q 618 532 582 601 q 619 520 621 526 q 612 511 617 514 q 600 509 606 507 q 591 517 594 511 q 497 616 558 579 q 364 654 437 654 q 183 579 258 654 q 109 397 109 504 q 183 216 109 291 q 364 142 258 142 q 497 179 437 142 q 591 278 558 216 q 600 286 594 283 q 612 285 607 288 m 570 520 q 564 522 566 518 q 479 603 532 573 q 364 632 427 632 q 198 563 267 632 q 130 397 130 494 q 198 232 130 300 q 364 163 267 163 q 479 193 427 163 q 564 273 532 222 q 570 275 566 277 q 571 269 574 272 q 483 185 538 216 q 364 154 429 154 q 192 225 263 154 q 121 397 121 297 q 192 570 121 498 q 364 642 264 642 q 483 611 429 642 q 571 527 538 580 q 570 520 574 523 m 397 437 l 397 386 q 385 378 391 385 l 385 437 q 383 445 385 442 q 380 448 382 447 q 374 449 378 449 l 374 452 q 381 451 375 452 q 391 451 387 451 q 400 451 395 451 q 407 452 406 452 l 407 449 q 400 448 403 449 q 397 445 398 447 q 397 437 397 444 m 374 358 l 374 361 q 380 362 378 361 q 383 365 382 363 q 389 374 385 370 q 395 378 392 378 l 397 380 l 397 372 q 397 365 397 366 q 400 362 398 363 q 407 361 403 361 l 407 358 q 400 358 406 358 q 391 359 395 359 q 381 358 387 359 q 374 358 375 358 m 273 418 q 265 409 271 413 q 250 403 257 404 l 252 403 q 261 400 259 401 q 267 395 264 398 q 270 386 269 391 l 273 372 q 275 366 275 367 q 277 362 277 363 q 280 361 278 361 q 283 362 283 361 l 288 366 l 290 365 q 283 359 286 361 q 275 357 281 357 q 267 359 269 357 q 261 371 263 363 l 258 384 q 256 390 258 387 q 255 395 255 393 q 251 400 254 398 q 243 403 247 403 l 231 403 l 231 372 q 232 365 231 368 q 235 362 233 363 q 241 361 237 361 l 241 358 q 235 358 240 358 q 225 359 229 359 q 215 358 221 359 q 208 358 210 358 l 208 361 q 215 362 212 361 q 218 365 217 363 q 218 372 218 366 l 218 437 q 218 445 218 444 q 215 448 217 447 q 208 449 212 449 l 208 452 q 215 451 210 452 q 224 451 220 451 l 235 451 l 244 451 q 261 448 255 451 q 272 440 268 446 q 275 429 275 436 q 273 418 275 423 m 254 408 q 260 416 258 411 q 262 427 262 420 q 257 444 262 438 q 241 449 252 449 q 235 448 237 449 q 232 445 233 447 q 231 437 231 442 l 231 405 l 239 405 q 254 408 248 405 m 348 362 q 350 366 350 363 q 348 372 350 368 l 340 393 l 339 396 l 324 435 l 309 396 l 309 393 l 303 380 q 300 369 300 374 q 303 363 300 365 q 312 361 307 361 l 312 358 q 305 358 310 358 q 297 359 300 359 q 292 358 295 359 q 287 358 288 358 l 287 361 q 297 372 293 361 l 328 452 l 330 452 l 362 370 q 372 361 366 361 l 372 358 q 366 358 370 358 q 357 359 361 359 q 348 358 353 359 q 340 358 342 358 l 340 361 q 348 362 345 361 m 458 402 q 466 393 463 399 q 469 381 469 389 q 465 368 469 373 q 455 359 461 362 q 441 357 450 357 q 431 358 436 357 q 423 361 429 358 q 418 363 420 363 l 416 361 q 416 357 416 361 l 412 357 q 413 389 413 362 l 416 389 q 422 368 417 375 q 440 359 429 359 q 448 361 444 359 q 454 367 452 363 q 457 376 457 372 q 454 386 457 380 q 448 393 452 390 q 437 401 441 399 q 424 409 425 408 q 416 418 420 412 q 413 430 413 423 q 416 443 413 437 q 425 450 420 448 q 438 453 431 453 q 445 452 443 453 q 450 450 447 452 l 454 448 q 458 446 457 446 q 460 448 459 446 q 461 452 461 448 l 465 452 q 464 425 464 446 l 460 425 q 458 437 460 429 q 450 447 456 444 q 439 450 446 450 q 431 448 435 450 q 425 443 428 447 q 423 435 423 439 q 427 424 423 428 q 437 416 433 418 q 442 412 439 414 l 445 411 q 458 402 456 404 m 545 397 q 528 394 534 394 l 524 394 q 522 394 524 394 q 519 395 520 395 q 511 398 512 395 q 513 400 511 399 q 517 401 514 401 q 547 404 536 401 q 564 414 557 406 q 569 434 569 420 l 569 435 l 569 435 l 569 435 l 569 435 l 569 435 l 569 435 l 569 435 l 570 435 l 570 435 l 570 435 l 570 435 l 570 435 l 570 435 l 570 435 l 570 434 q 565 414 570 421 q 547 403 559 406 q 517 400 536 400 q 515 400 516 400 l 514 399 q 517 396 511 397 q 521 395 519 395 l 528 395 q 545 397 536 395 q 561 405 553 399 q 573 416 569 410 q 578 431 578 422 q 575 442 578 437 q 568 450 572 446 q 559 455 563 454 q 551 458 551 458 q 536 460 541 460 q 524 459 528 460 q 518 458 522 458 q 512 456 514 457 q 501 453 508 456 q 496 451 499 452 q 492 449 494 450 q 490 448 491 449 q 488 447 488 448 q 487 446 488 446 q 486 446 486 446 l 483 444 q 475 435 477 438 q 472 426 472 431 l 472 425 q 481 411 473 416 q 502 412 489 405 l 502 412 l 503 412 l 503 412 l 503 412 l 503 412 l 503 411 l 503 411 l 503 411 l 503 411 l 503 410 l 503 410 l 503 410 l 503 410 q 479 410 490 403 q 471 423 473 415 l 471 424 l 471 425 l 471 425 l 471 427 q 472 433 471 429 q 474 438 473 435 q 477 441 475 439 l 478 443 l 481 446 l 484 448 q 496 455 492 453 q 510 460 503 458 q 514 461 512 460 q 520 461 517 461 q 524 462 523 462 q 537 463 529 463 q 547 462 544 463 q 557 459 554 460 q 565 455 563 457 q 573 448 572 450 q 578 439 577 443 q 579 431 579 433 q 577 420 579 425 q 572 413 575 416 q 570 411 571 412 q 569 410 569 410 q 567 408 568 409 q 566 407 566 408 q 561 404 564 406 q 545 397 553 399 m 498 375 l 518 443 q 520 444 518 444 l 521 444 l 521 443 l 522 442 l 522 441 l 499 374 q 498 374 499 374 q 498 374 498 374 l 498 375 m 633 427 l 632 427 l 632 429 l 633 431 q 634 433 633 433 l 635 432 l 635 431 l 634 428 q 633 427 634 427 m 813 402 q 815 399 815 400 q 814 396 815 397 q 806 393 812 395 q 777 399 805 393 q 734 399 753 405 q 702 400 712 393 q 699 403 699 401 l 694 395 l 692 391 l 690 387 l 687 383 q 685 381 686 382 q 684 378 684 379 q 677 376 680 375 q 677 389 675 376 q 678 393 678 390 q 679 397 678 396 l 681 406 q 682 409 681 407 q 683 413 682 412 q 676 401 679 406 q 668 392 673 397 q 659 388 663 387 q 656 390 659 388 q 655 398 654 393 l 651 392 q 642 383 646 385 q 634 386 636 380 q 633 399 632 392 q 615 374 621 384 l 612 365 q 600 335 610 359 q 595 326 597 328 q 593 325 595 326 l 593 324 q 592 323 593 323 q 591 324 591 323 q 589 328 589 327 q 591 334 589 329 q 600 353 593 341 q 614 375 606 363 q 619 391 616 380 q 624 404 623 401 q 621 401 623 403 q 618 399 621 400 q 613 400 615 397 l 612 398 q 611 397 611 397 q 610 395 610 395 q 608 392 610 393 q 607 391 608 392 q 606 390 606 391 q 600 391 601 388 q 600 401 598 395 q 599 400 600 400 q 597 399 598 400 q 595 399 597 399 q 593 399 594 399 q 595 410 593 401 q 584 399 589 405 q 576 387 581 394 l 575 386 l 574 387 l 574 387 q 578 401 575 392 q 580 409 578 404 q 583 416 582 414 q 526 385 564 387 l 525 385 l 525 385 l 525 385 l 525 385 l 524 385 l 524 386 l 524 386 l 525 386 l 525 387 l 525 387 l 525 387 l 526 387 q 585 425 567 387 l 586 425 q 587 426 586 426 l 588 425 l 588 425 l 588 425 l 586 420 l 581 406 q 580 402 581 405 q 578 399 579 400 q 578 395 578 397 q 577 391 578 393 q 581 396 578 393 q 583 401 583 399 q 591 410 589 408 l 595 414 l 597 415 l 597 416 l 598 416 l 600 416 l 600 414 q 598 412 600 414 q 597 410 597 411 q 595 400 593 401 q 600 404 598 400 q 611 416 604 415 q 613 414 613 416 q 614 411 614 412 l 614 409 l 614 407 l 614 406 l 614 404 l 614 403 l 613 401 l 614 401 q 620 401 616 398 q 623 406 622 403 q 626 410 625 407 l 626 410 l 627 411 q 627 412 627 412 l 627 412 l 628 411 l 628 411 l 628 410 q 618 381 623 394 q 633 403 623 388 l 635 405 q 640 415 637 411 q 648 419 644 420 q 650 410 652 417 q 642 396 646 397 q 639 397 640 396 l 639 399 l 640 399 q 642 397 640 397 q 646 404 644 397 l 646 405 q 647 416 651 415 q 641 411 645 417 q 636 398 637 405 q 637 386 635 391 q 645 387 640 382 q 654 399 646 389 q 656 400 655 399 q 656 402 656 401 l 656 404 q 672 419 661 419 q 676 417 675 419 q 675 412 677 414 q 671 409 674 410 q 668 410 669 408 q 670 412 668 412 q 671 412 671 412 q 675 413 674 409 q 675 415 675 414 q 671 418 673 419 q 659 398 665 416 q 659 390 655 391 q 673 399 665 389 q 686 422 681 410 l 680 421 q 679 422 679 421 l 680 422 l 686 424 q 690 433 688 428 q 692 441 691 438 q 696 441 693 443 q 696 440 696 441 q 689 424 693 434 q 709 425 700 426 q 725 426 719 424 q 731 436 731 428 q 732 436 731 437 q 732 425 739 429 q 714 422 731 421 q 688 422 696 424 q 683 404 685 415 q 682 402 682 404 q 682 399 682 400 q 680 395 680 397 l 678 387 q 678 376 676 378 q 683 379 680 376 q 687 385 686 382 l 688 387 q 691 391 689 389 q 693 395 692 394 q 695 400 694 397 q 698 404 697 403 q 696 407 696 406 q 699 414 694 412 q 701 414 701 415 q 699 404 703 411 q 702 401 700 403 q 733 400 711 394 q 777 400 752 406 q 806 395 803 395 q 813 397 811 395 q 814 399 814 397 q 813 401 814 401 q 811 401 812 402 q 810 399 810 401 q 812 399 811 399 l 812 398 l 812 397 q 811 398 811 397 q 810 398 811 398 q 809 399 809 398 q 813 402 809 403 m 601 391 q 609 395 603 386 q 612 401 611 398 q 610 401 610 401 q 607 405 607 403 q 608 409 607 408 q 608 411 608 410 q 609 412 608 412 l 608 412 q 608 412 608 412 q 607 410 608 411 l 606 408 q 602 401 602 404 q 600 394 600 395 q 601 393 600 393 q 601 391 601 392 m 612 402 q 613 408 613 406 q 612 413 613 412 l 612 412 l 611 412 q 610 412 610 412 q 610 410 610 411 q 609 408 609 409 l 609 406 q 612 402 609 404 m 610 366 l 610 367 q 606 360 609 365 q 601 352 602 355 q 593 334 595 342 q 591 328 591 330 q 592 326 591 326 q 593 328 593 327 q 598 336 595 330 q 610 366 604 349 m 700 414 q 699 405 694 412 q 701 409 700 406 q 700 414 701 412 m 504 550 q 505 544 504 550 q 498 529 506 538 q 480 518 491 519 q 459 524 469 517 q 452 563 437 541 q 471 574 460 574 q 492 568 481 576 q 504 550 502 561 m 467 535 q 486 538 478 526 q 484 557 494 549 q 473 560 479 562 q 465 554 469 559 q 467 535 457 543 m 328 607 l 332 595 l 313 590 l 315 583 l 332 587 l 334 575 l 318 571 l 320 564 l 339 568 l 342 556 l 309 548 l 296 598 l 328 607 m 425 549 l 410 551 l 411 582 l 393 554 l 389 555 l 380 587 l 371 558 l 357 560 l 373 610 l 387 608 l 395 578 l 412 604 l 425 602 l 425 549 m 241 570 q 261 574 250 576 q 278 564 271 574 q 283 544 285 555 q 271 527 281 534 l 254 515 l 224 557 l 241 570 m 267 555 q 258 561 264 559 q 248 558 254 562 l 243 555 l 258 534 l 263 537 q 267 555 274 546 m 269 238 q 252 228 262 229 q 232 235 241 227 l 216 248 l 248 289 l 264 276 q 275 258 274 269 q 269 238 276 248 m 251 270 l 235 250 l 239 245 q 258 248 250 237 q 256 266 266 258 l 251 270 m 480 279 q 498 269 491 278 q 504 248 506 259 q 492 229 502 237 q 471 223 481 222 q 452 234 460 224 q 447 255 445 243 q 458 273 448 266 q 480 279 469 281 m 484 240 q 486 259 494 248 q 477 265 482 264 q 467 262 471 267 q 465 243 456 254 q 484 240 473 232 m 401 191 l 396 190 l 378 218 l 378 187 l 364 185 l 363 238 l 378 240 l 395 214 l 402 244 l 416 246 l 433 196 l 418 194 l 410 223 l 401 191 m 334 229 l 316 235 l 314 227 l 330 222 l 328 211 l 311 216 l 309 208 l 328 203 l 324 191 l 292 200 l 306 250 l 338 241 l 334 229 m 479 339 q 486 341 482 343 q 488 336 490 338 q 438 281 471 302 q 366 260 405 260 q 291 282 324 260 q 241 340 257 304 q 243 347 239 345 l 243 347 q 249 345 248 348 q 296 290 264 311 q 366 269 328 269 q 433 288 403 269 q 479 339 463 307 m 479 467 q 473 468 475 464 q 427 511 455 495 q 366 526 399 526 q 303 510 332 526 q 257 467 275 494 q 252 465 255 463 q 250 472 248 468 q 299 518 269 501 q 366 535 330 535 q 431 518 401 535 q 480 473 461 501 q 479 467 483 469 m 172 396 q 222 527 172 471 q 226 528 224 528 q 229 527 227 528 q 229 521 232 525 q 181 396 181 467 q 222 281 181 332 q 220 274 224 277 q 214 275 217 271 q 172 396 172 328 m 549 359 q 552 363 550 363 l 554 363 q 557 357 559 361 q 521 277 549 313 q 515 277 519 274 q 513 283 511 279 q 549 359 541 319 m 509 526 q 513 524 511 526 q 536 491 528 507 q 534 485 538 488 q 529 486 531 483 q 506 519 521 502 q 507 525 503 523 q 509 526 508 526 z "},"3":{"ha":892,"x_min":78,"x_max":815,"o":"m 612 285 q 619 275 617 281 q 618 264 621 269 q 514 153 582 195 q 364 111 446 111 q 162 195 245 111 q 78 397 78 279 q 162 600 78 516 q 364 684 245 684 q 514 643 446 684 q 618 532 582 601 q 619 520 621 526 q 612 511 617 514 q 600 509 606 507 q 591 517 594 511 q 497 616 558 579 q 364 654 437 654 q 183 579 258 654 q 109 397 109 504 q 183 216 109 291 q 364 142 258 142 q 497 179 437 142 q 591 278 558 216 q 600 286 594 283 q 612 285 607 288 m 570 520 q 564 522 566 518 q 479 603 532 573 q 364 632 427 632 q 198 563 267 632 q 130 397 130 494 q 198 232 130 300 q 364 163 267 163 q 479 193 427 163 q 564 273 532 222 q 570 275 566 277 q 571 269 574 272 q 483 185 538 216 q 364 154 429 154 q 192 225 263 154 q 121 397 121 297 q 192 570 121 498 q 364 642 264 642 q 483 611 429 642 q 571 527 538 580 q 570 520 574 523 m 397 437 l 397 386 q 385 378 391 385 l 385 437 q 383 445 385 442 q 380 448 382 447 q 374 449 378 449 l 374 452 q 381 451 375 452 q 391 451 387 451 q 400 451 395 451 q 407 452 406 452 l 407 449 q 400 448 403 449 q 397 445 398 447 q 397 437 397 444 m 374 358 l 374 361 q 380 362 378 361 q 383 365 382 363 q 389 374 385 370 q 395 378 392 378 l 397 380 l 397 372 q 397 365 397 366 q 400 362 398 363 q 407 361 403 361 l 407 358 q 400 358 406 358 q 391 359 395 359 q 381 358 387 359 q 374 358 375 358 m 273 418 q 265 409 271 413 q 250 403 257 404 l 252 403 q 261 400 259 401 q 267 395 264 398 q 270 386 269 391 l 273 372 q 275 366 275 367 q 277 362 277 363 q 280 361 278 361 q 283 362 283 361 l 288 366 l 290 365 q 283 359 286 361 q 275 357 281 357 q 267 359 269 357 q 261 371 263 363 l 258 384 q 256 390 258 387 q 255 395 255 393 q 251 400 254 398 q 243 403 247 403 l 231 403 l 231 372 q 232 365 231 368 q 235 362 233 363 q 241 361 237 361 l 241 358 q 235 358 240 358 q 225 359 229 359 q 215 358 221 359 q 208 358 210 358 l 208 361 q 215 362 212 361 q 218 365 217 363 q 218 372 218 366 l 218 437 q 218 445 218 444 q 215 448 217 447 q 208 449 212 449 l 208 452 q 215 451 210 452 q 224 451 220 451 l 235 451 l 244 451 q 261 448 255 451 q 272 440 268 446 q 275 429 275 436 q 273 418 275 423 m 254 408 q 260 416 258 411 q 262 427 262 420 q 257 444 262 438 q 241 449 252 449 q 235 448 237 449 q 232 445 233 447 q 231 437 231 442 l 231 405 l 239 405 q 254 408 248 405 m 348 362 q 350 366 350 363 q 348 372 350 368 l 340 393 l 339 396 l 324 435 l 309 396 l 309 393 l 303 380 q 300 369 300 374 q 303 363 300 365 q 312 361 307 361 l 312 358 q 305 358 310 358 q 297 359 300 359 q 292 358 295 359 q 287 358 288 358 l 287 361 q 297 372 293 361 l 328 452 l 330 452 l 362 370 q 372 361 366 361 l 372 358 q 366 358 370 358 q 357 359 361 359 q 348 358 353 359 q 340 358 342 358 l 340 361 q 348 362 345 361 m 458 402 q 466 393 463 399 q 469 381 469 389 q 465 368 469 373 q 455 359 461 362 q 441 357 450 357 q 431 358 436 357 q 423 361 429 358 q 418 363 420 363 l 416 361 q 416 357 416 361 l 412 357 q 413 389 413 362 l 416 389 q 422 368 417 375 q 440 359 429 359 q 448 361 444 359 q 454 367 452 363 q 457 376 457 372 q 454 386 457 380 q 448 393 452 390 q 437 401 441 399 q 424 409 425 408 q 416 418 420 412 q 413 430 413 423 q 416 443 413 437 q 425 450 420 448 q 438 453 431 453 q 445 452 443 453 q 450 450 447 452 l 454 448 q 458 446 457 446 q 460 448 459 446 q 461 452 461 448 l 465 452 q 464 425 464 446 l 460 425 q 458 437 460 429 q 450 447 456 444 q 439 450 446 450 q 431 448 435 450 q 425 443 428 447 q 423 435 423 439 q 427 424 423 428 q 437 416 433 418 q 442 412 439 414 l 445 411 q 458 402 456 404 m 498 375 l 518 443 q 520 444 518 444 l 521 444 l 521 443 l 522 442 l 522 441 l 499 374 q 498 374 499 374 q 498 374 498 374 l 498 375 m 545 397 q 528 394 534 394 l 524 394 q 522 394 524 394 q 519 395 520 395 q 511 398 512 395 q 513 400 511 399 q 517 401 514 401 q 547 404 536 401 q 564 414 557 406 q 569 434 569 420 l 569 435 l 569 435 l 569 435 l 569 435 l 569 435 l 569 435 l 569 435 l 570 435 l 570 435 l 570 435 l 570 435 l 570 435 l 570 435 l 570 435 l 570 434 q 565 414 570 421 q 547 403 559 406 q 517 400 536 400 q 515 400 516 400 l 514 399 q 517 396 511 397 q 521 395 519 395 l 528 395 q 545 397 536 395 q 561 405 553 399 q 573 416 569 410 q 578 431 578 422 q 575 442 578 437 q 568 450 572 446 q 559 455 563 454 q 551 458 551 458 q 536 460 541 460 q 524 459 528 460 q 518 458 522 458 q 512 456 514 457 q 501 453 508 456 q 496 451 499 452 q 492 449 494 450 q 490 448 491 449 q 488 447 488 448 q 487 446 488 446 q 486 446 486 446 l 483 444 q 475 435 477 438 q 472 426 472 431 l 472 425 q 481 411 473 416 q 502 412 489 405 l 502 412 l 503 412 l 503 412 l 503 412 l 503 412 l 503 411 l 503 411 l 503 411 l 503 411 l 503 410 l 503 410 l 503 410 l 503 410 q 479 410 490 403 q 471 423 473 415 l 471 424 l 471 425 l 471 425 l 471 427 q 472 433 471 429 q 474 438 473 435 q 477 441 475 439 l 478 443 l 481 446 l 484 448 q 496 455 492 453 q 510 460 503 458 q 514 461 512 460 q 520 461 517 461 q 524 462 523 462 q 537 463 529 463 q 547 462 544 463 q 557 459 554 460 q 565 455 563 457 q 573 448 572 450 q 578 439 577 443 q 579 431 579 433 q 577 420 579 425 q 572 413 575 416 q 570 411 571 412 q 569 410 569 410 q 567 408 568 409 q 566 407 566 408 q 561 404 564 406 q 545 397 553 399 m 633 427 l 632 427 l 632 429 l 633 431 q 634 433 633 433 l 635 432 l 635 431 l 634 428 q 633 427 634 427 m 813 402 q 815 399 815 400 q 814 396 815 397 q 806 393 812 395 q 777 399 805 393 q 734 399 753 405 q 702 400 712 393 q 699 403 699 401 l 694 395 l 692 391 l 690 387 l 687 383 q 685 381 686 382 q 684 378 684 379 q 677 376 680 375 q 677 389 675 376 q 678 393 678 390 q 679 397 678 396 l 681 406 q 682 409 681 407 q 683 413 682 412 q 676 401 679 406 q 668 392 673 397 q 659 388 663 387 q 656 390 659 388 q 655 398 654 393 l 651 392 q 642 383 646 385 q 634 386 636 380 q 633 399 632 392 q 615 374 621 384 l 612 365 q 600 335 610 359 q 595 326 597 328 q 593 325 595 326 l 593 324 q 592 323 593 323 q 591 324 591 323 q 589 328 589 327 q 591 334 589 329 q 600 353 593 341 q 614 375 606 363 q 619 391 616 380 q 624 404 623 401 q 621 401 623 403 q 618 399 621 400 q 613 400 615 397 l 612 398 q 611 397 611 397 q 610 395 610 395 q 608 392 610 393 q 607 391 608 392 q 606 390 606 391 q 600 391 601 388 q 600 401 598 395 q 599 400 600 400 q 597 399 598 400 q 595 399 597 399 q 593 399 594 399 q 595 410 593 401 q 584 399 589 405 q 576 387 581 394 l 575 386 l 574 387 l 574 387 q 578 401 575 392 q 580 409 578 404 q 583 416 582 414 q 526 385 564 387 l 525 385 l 525 385 l 525 385 l 525 385 l 524 385 l 524 386 l 524 386 l 525 386 l 525 387 l 525 387 l 525 387 l 526 387 q 585 425 567 387 l 586 425 q 587 426 586 426 l 588 425 l 588 425 l 588 425 l 586 420 l 581 406 q 580 402 581 405 q 578 399 579 400 q 578 395 578 397 q 577 391 578 393 q 581 396 578 393 q 583 401 583 399 q 591 410 589 408 l 595 414 l 597 415 l 597 416 l 598 416 l 600 416 l 600 414 q 598 412 600 414 q 597 410 597 411 q 595 400 593 401 q 600 404 598 400 q 611 416 604 415 q 613 414 613 416 q 614 411 614 412 l 614 409 l 614 407 l 614 406 l 614 404 l 614 403 l 613 401 l 614 401 q 620 401 616 398 q 623 406 622 403 q 626 410 625 407 l 626 410 l 627 411 q 627 412 627 412 l 627 412 l 628 411 l 628 411 l 628 410 q 618 381 623 394 q 633 403 623 388 l 635 405 q 640 415 637 411 q 648 419 644 420 q 650 410 652 417 q 642 396 646 397 q 639 397 640 396 l 639 399 l 640 399 q 642 397 640 397 q 646 404 644 397 l 646 405 q 647 416 651 415 q 641 411 645 417 q 636 398 637 405 q 637 386 635 391 q 645 387 640 382 q 654 399 646 389 q 656 400 655 399 q 656 402 656 401 l 656 404 q 672 419 661 419 q 676 417 675 419 q 675 412 677 414 q 671 409 674 410 q 668 410 669 408 q 670 412 668 412 q 671 412 671 412 q 675 413 674 409 q 675 415 675 414 q 671 418 673 419 q 659 398 665 416 q 659 390 655 391 q 673 399 665 389 q 686 422 681 410 l 680 421 q 679 422 679 421 l 680 422 l 686 424 q 690 433 688 428 q 692 441 691 438 q 696 441 693 443 q 696 440 696 441 q 689 424 693 434 q 709 425 700 426 q 725 426 719 424 q 731 436 731 428 q 732 436 731 437 q 732 425 739 429 q 714 422 731 421 q 688 422 696 424 q 683 404 685 415 q 682 402 682 404 q 682 399 682 400 q 680 395 680 397 l 678 387 q 678 376 676 378 q 683 379 680 376 q 687 385 686 382 l 688 387 q 691 391 689 389 q 693 395 692 394 q 695 400 694 397 q 698 404 697 403 q 696 407 696 406 q 699 414 694 412 q 701 414 701 415 q 699 404 703 411 q 702 401 700 403 q 733 400 711 394 q 777 400 752 406 q 806 395 803 395 q 813 397 811 395 q 814 399 814 397 q 813 401 814 401 q 811 401 812 402 q 810 399 810 401 q 812 399 811 399 l 812 398 l 812 397 q 811 398 811 397 q 810 398 811 398 q 809 399 809 398 q 813 402 809 403 m 601 391 q 609 395 603 386 q 612 401 611 398 q 610 401 610 401 q 607 405 607 403 q 608 409 607 408 q 608 411 608 410 q 609 412 608 412 l 608 412 q 608 412 608 412 q 607 410 608 411 l 606 408 q 602 401 602 404 q 600 394 600 395 q 601 393 600 393 q 601 391 601 392 m 612 402 q 613 408 613 406 q 612 413 613 412 l 612 412 l 611 412 q 610 412 610 412 q 610 410 610 411 q 609 408 609 409 l 609 406 q 612 402 609 404 m 610 366 l 610 367 q 606 360 609 365 q 601 352 602 355 q 593 334 595 342 q 591 328 591 330 q 592 326 591 326 q 593 328 593 327 q 598 336 595 330 q 610 366 604 349 m 700 414 q 699 405 694 412 q 701 409 700 406 q 700 414 701 412 m 328 607 l 332 595 l 313 590 l 315 583 l 332 587 l 334 575 l 318 571 l 320 564 l 339 568 l 342 556 l 309 548 l 296 598 l 328 607 m 504 550 q 505 544 504 550 q 498 529 506 538 q 480 518 491 519 q 459 524 469 517 q 452 563 437 541 q 471 574 460 574 q 492 568 481 576 q 504 550 502 561 m 467 535 q 486 538 478 526 q 484 557 494 549 q 473 560 479 562 q 465 554 469 559 q 467 535 457 543 m 425 549 l 410 551 l 411 582 l 393 554 l 389 555 l 380 587 l 371 558 l 357 560 l 373 610 l 387 608 l 395 578 l 412 604 l 425 602 l 425 549 m 241 570 q 261 574 250 576 q 278 564 271 574 q 283 544 285 555 q 271 527 281 534 l 254 515 l 224 557 l 241 570 m 267 555 q 258 561 264 559 q 248 558 254 562 l 243 555 l 258 534 l 263 537 q 267 555 274 546 m 480 279 q 498 269 491 278 q 504 248 506 259 q 492 229 502 237 q 471 223 481 222 q 452 234 460 224 q 447 255 445 243 q 458 273 448 266 q 480 279 469 281 m 484 240 q 486 259 494 248 q 477 265 482 264 q 467 262 471 267 q 465 243 456 254 q 484 240 473 232 m 269 238 q 252 228 262 229 q 232 235 241 227 l 216 248 l 248 289 l 264 276 q 275 258 274 269 q 269 238 276 248 m 251 270 l 235 250 l 239 245 q 258 248 250 237 q 256 266 266 258 l 251 270 m 334 229 l 316 235 l 314 227 l 330 222 l 328 211 l 311 216 l 309 208 l 328 203 l 324 191 l 292 200 l 306 250 l 338 241 l 334 229 m 401 191 l 396 190 l 378 218 l 378 187 l 364 185 l 363 238 l 378 240 l 395 214 l 402 244 l 416 246 l 433 196 l 418 194 l 410 223 l 401 191 m 479 339 q 486 341 482 343 q 488 336 490 338 q 438 281 471 302 q 366 260 405 260 q 291 282 324 260 q 241 340 257 304 q 243 347 239 345 l 243 347 q 249 345 248 348 q 296 290 264 311 q 366 269 328 269 q 433 288 403 269 q 479 339 463 307 m 479 467 q 473 468 475 464 q 427 511 455 495 q 366 526 399 526 q 304 510 332 526 q 258 467 275 494 q 252 465 255 463 q 250 472 248 468 q 299 518 269 501 q 366 535 330 535 q 431 518 401 535 q 480 473 461 501 q 479 467 483 469 m 172 396 q 222 527 172 471 q 226 528 224 528 q 229 527 227 528 q 229 521 232 525 q 181 396 181 467 q 222 281 181 332 q 220 274 224 277 q 214 275 217 271 q 172 396 172 328 m 509 526 q 513 524 511 526 q 536 491 528 507 q 534 485 538 488 q 529 487 532 483 q 506 519 522 500 q 507 525 503 523 q 509 526 508 526 m 549 359 q 552 363 550 363 l 554 363 q 557 357 559 361 q 521 277 549 313 q 515 277 519 274 q 513 283 511 279 q 549 359 541 319 z "},"4":{"ha":892,"x_min":78,"x_max":815,"o":"m 612 285 q 619 275 617 281 q 618 264 621 269 q 514 153 582 195 q 364 111 446 111 q 162 195 245 111 q 78 397 78 279 q 162 600 78 516 q 364 684 245 684 q 514 643 446 684 q 618 532 582 601 q 619 520 621 526 q 612 511 617 514 q 600 509 606 507 q 591 517 594 511 q 497 616 558 579 q 364 654 437 654 q 183 579 258 654 q 109 397 109 504 q 183 216 109 291 q 364 142 258 142 q 497 179 437 142 q 591 278 558 216 q 600 286 594 283 q 612 285 607 288 m 570 520 q 564 522 566 518 q 479 603 532 573 q 364 632 427 632 q 198 563 267 632 q 130 397 130 494 q 198 232 130 300 q 364 163 267 163 q 479 193 427 163 q 564 273 532 222 q 570 275 566 277 q 571 269 574 272 q 483 185 538 216 q 364 154 429 154 q 192 225 263 154 q 121 397 121 297 q 192 570 121 498 q 364 642 264 642 q 483 611 429 642 q 571 527 538 580 q 570 520 574 523 m 397 437 l 397 386 q 385 378 391 385 l 385 437 q 383 445 385 442 q 380 448 382 447 q 374 449 378 449 l 374 452 q 381 451 375 452 q 391 451 387 451 q 400 451 395 451 q 407 452 406 452 l 407 449 q 400 448 403 449 q 397 445 398 447 q 397 437 397 444 m 374 358 l 374 361 q 380 362 378 361 q 383 365 382 363 q 389 374 385 370 q 395 378 392 378 l 397 380 l 397 372 q 397 365 397 366 q 400 362 398 363 q 407 361 403 361 l 407 358 q 400 358 406 358 q 391 359 395 359 q 381 358 387 359 q 374 358 375 358 m 273 418 q 265 409 271 413 q 250 403 257 404 l 252 403 q 261 400 259 401 q 267 395 264 398 q 270 386 269 391 l 273 372 q 275 366 275 367 q 277 362 277 363 q 280 361 278 361 q 283 362 283 361 l 288 366 l 290 365 q 283 359 286 361 q 275 357 281 357 q 267 359 269 357 q 261 371 263 363 l 258 384 q 256 390 258 387 q 255 395 255 393 q 251 400 254 398 q 243 403 247 403 l 231 403 l 231 372 q 232 365 231 368 q 235 362 233 363 q 241 361 237 361 l 241 358 q 235 358 240 358 q 225 359 229 359 q 215 358 221 359 q 208 358 210 358 l 208 361 q 215 362 212 361 q 218 365 217 363 q 218 372 218 366 l 218 437 q 218 445 218 444 q 215 448 217 447 q 208 449 212 449 l 208 452 q 215 451 210 452 q 224 451 220 451 l 235 451 l 244 451 q 261 448 255 451 q 272 440 268 446 q 275 429 275 436 q 273 418 275 423 m 254 408 q 260 416 258 411 q 262 427 262 420 q 257 444 262 438 q 241 449 252 449 q 235 448 237 449 q 232 445 233 447 q 231 437 231 442 l 231 405 l 239 405 q 254 408 248 405 m 348 362 q 350 366 350 363 q 348 372 350 368 l 340 393 l 339 396 l 324 435 l 309 396 l 309 393 l 303 380 q 300 369 300 374 q 303 363 300 365 q 312 361 307 361 l 312 358 q 305 358 310 358 q 297 359 300 359 q 292 358 295 359 q 287 358 288 358 l 287 361 q 297 372 293 361 l 328 452 l 330 452 l 362 370 q 372 361 366 361 l 372 358 q 366 358 370 358 q 357 359 361 359 q 348 358 353 359 q 340 358 342 358 l 340 361 q 348 362 345 361 m 458 402 q 466 393 463 399 q 469 381 469 389 q 465 368 469 373 q 455 359 461 362 q 441 357 450 357 q 431 358 436 357 q 423 361 429 358 q 418 363 420 363 l 416 361 q 416 357 416 361 l 412 357 q 413 389 413 362 l 416 389 q 422 368 417 375 q 440 359 429 359 q 448 361 444 359 q 454 367 452 363 q 457 376 457 372 q 454 386 457 380 q 448 393 452 390 q 437 401 441 399 q 424 409 425 408 q 416 418 420 412 q 413 430 413 423 q 416 443 413 437 q 425 450 420 448 q 438 453 431 453 q 445 452 443 453 q 450 450 447 452 l 454 448 q 458 446 457 446 q 460 448 459 446 q 461 452 461 448 l 465 452 q 464 425 464 446 l 460 425 q 458 437 460 429 q 450 447 456 444 q 439 450 446 450 q 431 448 435 450 q 425 443 428 447 q 423 435 423 439 q 427 424 423 428 q 437 416 433 418 q 442 412 439 414 l 445 411 q 458 402 456 404 m 498 375 l 518 443 q 520 444 518 444 l 521 444 l 521 443 l 522 442 l 522 441 l 499 374 q 498 374 499 374 q 498 374 498 374 l 498 375 m 545 397 q 528 394 534 394 l 524 394 q 522 394 524 394 q 519 395 520 395 q 511 398 512 395 q 513 400 511 399 q 517 401 514 401 q 547 404 536 401 q 564 414 557 406 q 569 434 569 420 l 569 435 l 569 435 l 569 435 l 569 435 l 569 435 l 569 435 l 569 435 l 570 435 l 570 435 l 570 435 l 570 435 l 570 435 l 570 435 l 570 435 l 570 434 q 565 414 570 421 q 547 403 559 406 q 517 400 536 400 q 515 400 516 400 l 514 399 q 517 396 511 397 q 521 395 519 395 l 528 395 q 545 397 536 395 q 561 405 553 399 q 573 416 569 410 q 578 431 578 422 q 575 442 578 437 q 568 450 572 446 q 559 455 563 454 q 551 458 551 458 q 536 460 541 460 q 524 459 528 460 q 518 458 522 458 q 512 456 514 457 q 501 453 508 456 q 496 451 499 452 q 492 449 494 450 q 490 448 491 449 q 488 447 488 448 q 487 446 488 446 q 486 446 486 446 l 483 444 q 475 435 477 438 q 472 426 472 431 l 472 425 q 481 411 473 416 q 502 412 489 405 l 502 412 l 503 412 l 503 412 l 503 412 l 503 412 l 503 411 l 503 411 l 503 411 l 503 411 l 503 410 l 503 410 l 503 410 l 503 410 q 479 410 490 403 q 471 423 473 415 l 471 424 l 471 425 l 471 425 l 471 427 q 472 433 471 429 q 474 438 473 435 q 477 441 475 439 l 478 443 l 481 446 l 484 448 q 496 455 492 453 q 510 460 503 458 q 514 461 512 460 q 520 461 517 461 q 524 462 523 462 q 537 463 529 463 q 547 462 544 463 q 557 459 554 460 q 565 455 563 457 q 573 448 572 450 q 578 439 577 443 q 579 431 579 433 q 577 420 579 425 q 572 413 575 416 q 570 411 571 412 q 569 410 569 410 q 567 408 568 409 q 566 407 566 408 q 561 404 564 406 q 545 397 553 399 m 633 427 l 632 427 l 632 429 l 633 431 q 634 433 633 433 l 635 432 l 635 431 l 634 428 q 633 427 634 427 m 813 402 q 815 399 815 400 q 814 396 815 397 q 806 393 812 395 q 777 399 805 393 q 734 399 753 405 q 702 400 712 393 q 699 403 699 401 l 694 395 l 692 391 l 690 387 l 687 383 q 685 381 686 382 q 684 378 684 379 q 677 376 680 375 q 677 389 675 376 q 678 393 678 390 q 679 397 678 396 l 681 406 q 682 409 681 407 q 683 413 682 412 q 676 401 679 406 q 668 392 673 397 q 659 388 663 387 q 656 390 659 388 q 655 398 654 393 l 651 392 q 642 383 646 385 q 634 386 636 380 q 633 399 632 392 q 615 374 621 384 l 612 365 q 600 335 610 359 q 595 326 597 328 q 593 325 595 326 l 593 324 q 592 323 593 323 q 591 324 591 323 q 589 328 589 327 q 591 334 589 329 q 600 353 593 341 q 614 375 606 363 q 619 391 616 380 q 624 404 623 401 q 621 401 623 403 q 618 399 621 400 q 613 400 615 397 l 612 398 q 611 397 611 397 q 610 395 610 395 q 608 392 610 393 q 607 391 608 392 q 606 390 606 391 q 600 391 601 388 q 600 401 598 395 q 599 400 600 400 q 597 399 598 400 q 595 399 597 399 q 593 399 594 399 q 595 410 593 401 q 584 399 589 405 q 576 387 581 394 l 575 386 l 574 387 l 574 387 q 578 401 575 392 q 580 409 578 404 q 583 416 582 414 q 526 385 564 387 l 525 385 l 525 385 l 525 385 l 525 385 l 524 385 l 524 386 l 524 386 l 525 386 l 525 387 l 525 387 l 525 387 l 526 387 q 585 425 567 387 l 586 425 q 587 426 586 426 l 588 425 l 588 425 l 588 425 l 586 420 l 581 406 q 580 402 581 405 q 578 399 579 400 q 578 395 578 397 q 577 391 578 393 q 581 396 578 393 q 583 401 583 399 q 591 410 589 408 l 595 414 l 597 415 l 597 416 l 598 416 l 600 416 l 600 414 q 598 412 600 414 q 597 410 597 411 q 595 400 593 401 q 600 404 598 400 q 611 416 604 415 q 613 414 613 416 q 614 411 614 412 l 614 409 l 614 407 l 614 406 l 614 404 l 614 403 l 613 401 l 614 401 q 620 401 616 398 q 623 406 622 403 q 626 410 625 407 l 626 410 l 627 411 q 627 412 627 412 l 627 412 l 628 411 l 628 411 l 628 410 q 618 381 623 394 q 633 403 623 388 l 635 405 q 640 415 637 411 q 648 419 644 420 q 650 410 652 417 q 642 396 646 397 q 639 397 640 396 l 639 399 l 640 399 q 642 397 640 397 q 646 404 644 397 l 646 405 q 647 416 651 415 q 641 411 645 417 q 636 398 637 405 q 637 386 635 391 q 645 387 640 382 q 654 399 646 389 q 656 400 655 399 q 656 402 656 401 l 656 404 q 672 419 661 419 q 676 417 675 419 q 675 412 677 414 q 671 409 674 410 q 668 410 669 408 q 670 412 668 412 q 671 412 671 412 q 675 413 674 409 q 675 415 675 414 q 671 418 673 419 q 659 398 665 416 q 659 390 655 391 q 673 399 665 389 q 686 422 681 410 l 680 421 q 679 422 679 421 l 680 422 l 686 424 q 690 433 688 428 q 692 441 691 438 q 696 441 693 443 q 696 440 696 441 q 689 424 693 434 q 709 425 700 426 q 725 426 719 424 q 731 436 731 428 q 732 436 731 437 q 732 425 739 429 q 714 422 731 421 q 688 422 696 424 q 683 404 685 415 q 682 402 682 404 q 682 399 682 400 q 680 395 680 397 l 678 387 q 678 376 676 378 q 683 379 680 376 q 687 385 686 382 l 688 387 q 691 391 689 389 q 693 395 692 394 q 695 400 694 397 q 698 404 697 403 q 696 407 696 406 q 699 414 694 412 q 701 414 701 415 q 699 404 703 411 q 702 401 700 403 q 733 400 711 394 q 777 400 752 406 q 806 395 803 395 q 813 397 811 395 q 814 399 814 397 q 813 401 814 401 q 811 401 812 402 q 810 399 810 401 q 812 399 811 399 l 812 398 l 812 397 q 811 398 811 397 q 810 398 811 398 q 809 399 809 398 q 813 402 809 403 m 601 391 q 609 395 603 386 q 612 401 611 398 q 610 401 610 401 q 607 405 607 403 q 608 409 607 408 q 608 411 608 410 q 609 412 608 412 l 608 412 q 608 412 608 412 q 607 410 608 411 l 606 408 q 602 401 602 404 q 600 394 600 395 q 601 393 600 393 q 601 391 601 392 m 612 402 q 613 408 613 406 q 612 413 613 412 l 612 412 l 611 412 q 610 412 610 412 q 610 410 610 411 q 609 408 609 409 l 609 406 q 612 402 609 404 m 610 366 l 610 367 q 606 360 609 365 q 601 352 602 355 q 593 334 595 342 q 591 328 591 330 q 592 326 591 326 q 593 328 593 327 q 598 336 595 330 q 610 366 604 349 m 700 414 q 699 405 694 412 q 701 409 700 406 q 700 414 701 412 m 328 607 l 332 595 l 313 590 l 315 583 l 332 587 l 334 575 l 318 571 l 320 564 l 339 568 l 342 556 l 309 548 l 296 598 l 328 607 m 425 549 l 410 551 l 411 582 l 393 554 l 389 555 l 380 587 l 371 558 l 357 560 l 373 610 l 387 608 l 395 578 l 412 604 l 425 602 l 425 549 m 504 550 q 505 544 504 550 q 498 529 506 538 q 480 518 491 519 q 459 524 469 517 q 452 563 437 541 q 471 574 460 574 q 492 568 481 576 q 504 550 502 561 m 467 535 q 486 538 478 526 q 484 557 494 549 q 473 560 479 562 q 465 554 469 559 q 467 535 457 543 m 241 570 q 261 574 250 576 q 278 564 271 574 q 283 544 285 555 q 271 527 281 534 l 254 515 l 224 557 l 241 570 m 267 555 q 258 561 264 559 q 248 558 254 562 l 243 555 l 258 534 l 263 537 q 267 555 274 546 m 269 238 q 252 228 262 229 q 232 235 241 227 l 216 248 l 248 289 l 264 276 q 275 258 274 269 q 269 238 276 248 m 251 270 l 235 250 l 239 245 q 258 248 250 237 q 256 266 266 258 l 251 270 m 334 229 l 316 235 l 314 227 l 330 222 l 328 211 l 311 216 l 309 208 l 328 203 l 324 191 l 292 200 l 306 250 l 338 241 l 334 229 m 401 191 l 396 190 l 378 218 l 378 187 l 364 185 l 363 238 l 378 240 l 395 214 l 402 244 l 416 246 l 433 196 l 418 194 l 410 223 l 401 191 m 480 279 q 498 269 491 278 q 504 248 506 259 q 492 229 502 237 q 471 223 481 222 q 452 234 460 224 q 447 254 445 243 q 458 273 448 265 q 480 279 470 281 m 484 240 q 486 259 494 248 q 477 265 482 264 q 467 262 471 267 q 465 243 456 254 q 484 240 473 232 m 479 467 q 473 468 475 464 q 427 511 455 495 q 366 526 399 526 q 303 510 332 526 q 257 467 275 494 q 252 465 255 463 q 250 472 248 468 q 299 518 269 501 q 366 535 330 535 q 431 518 401 535 q 480 473 461 501 q 479 467 483 469 m 479 339 q 486 341 482 343 q 488 336 490 338 q 438 281 471 302 q 366 260 405 260 q 291 282 324 260 q 241 340 257 304 q 243 347 239 345 l 243 347 q 249 345 248 348 q 296 290 264 311 q 366 269 328 269 q 433 288 403 269 q 479 339 463 307 m 172 396 q 222 527 172 471 q 226 528 224 528 q 229 527 227 528 q 229 521 232 525 q 181 396 181 467 q 222 281 181 332 q 220 274 224 277 q 214 275 217 271 q 172 396 172 328 m 549 359 q 552 363 550 363 l 554 363 q 557 357 559 361 q 521 277 549 313 q 515 277 519 274 q 513 283 511 279 q 549 359 541 319 m 509 526 q 513 524 511 526 q 536 491 528 507 q 534 485 538 488 q 529 486 531 483 q 506 519 521 502 q 507 525 503 523 q 509 526 508 526 z "},"5":{"ha":892,"x_min":78,"x_max":815,"o":"m 612 285 q 619 275 617 281 q 618 264 621 269 q 514 153 582 195 q 364 111 446 111 q 162 195 245 111 q 78 397 78 279 q 162 600 78 516 q 364 684 245 684 q 514 643 446 684 q 618 532 582 601 q 619 520 621 526 q 612 511 617 514 q 600 509 606 507 q 591 517 594 511 q 497 616 558 579 q 364 654 437 654 q 183 579 258 654 q 109 397 109 504 q 183 216 109 291 q 364 142 258 142 q 497 179 437 142 q 591 278 558 216 q 600 286 594 283 q 612 285 607 288 m 570 520 q 564 522 566 518 q 479 603 532 573 q 364 632 427 632 q 198 563 267 632 q 130 397 130 494 q 198 232 130 300 q 364 163 267 163 q 479 193 427 163 q 564 273 532 222 q 570 275 566 277 q 571 269 574 272 q 483 185 538 216 q 364 154 429 154 q 192 225 263 154 q 121 397 121 297 q 192 570 121 498 q 364 642 264 642 q 483 611 429 642 q 571 527 538 580 q 570 520 574 523 m 397 437 l 397 386 q 385 378 391 385 l 385 437 q 383 445 385 442 q 380 448 382 447 q 374 449 378 449 l 374 452 q 381 451 375 452 q 391 451 387 451 q 400 451 395 451 q 407 452 406 452 l 407 449 q 400 448 403 449 q 397 445 398 447 q 397 437 397 444 m 374 358 l 374 361 q 380 362 378 361 q 383 365 382 363 q 389 374 385 370 q 395 378 392 378 l 397 380 l 397 372 q 397 365 397 366 q 400 362 398 363 q 407 361 403 361 l 407 358 q 400 358 406 358 q 391 359 395 359 q 381 358 387 359 q 374 358 375 358 m 273 418 q 265 409 271 413 q 250 403 257 404 l 252 403 q 261 400 259 401 q 267 395 264 398 q 270 386 269 391 l 273 372 q 275 366 275 367 q 277 362 277 363 q 280 361 278 361 q 283 362 283 361 l 288 366 l 290 365 q 283 359 286 361 q 275 357 281 357 q 267 359 269 357 q 261 371 263 363 l 258 384 q 256 390 258 387 q 255 395 255 393 q 251 400 254 398 q 243 403 247 403 l 231 403 l 231 372 q 232 365 231 368 q 235 362 233 363 q 241 361 237 361 l 241 358 q 235 358 240 358 q 225 359 229 359 q 215 358 221 359 q 208 358 210 358 l 208 361 q 215 362 212 361 q 218 365 217 363 q 218 372 218 366 l 218 437 q 218 445 218 444 q 215 448 217 447 q 208 449 212 449 l 208 452 q 215 451 210 452 q 224 451 220 451 l 235 451 l 244 451 q 261 448 255 451 q 272 440 268 446 q 275 429 275 436 q 273 418 275 423 m 254 408 q 260 416 258 411 q 262 427 262 420 q 257 444 262 438 q 241 449 252 449 q 235 448 237 449 q 232 445 233 447 q 231 437 231 442 l 231 405 l 239 405 q 254 408 248 405 m 348 362 q 350 366 350 363 q 348 372 350 368 l 340 393 l 339 396 l 324 435 l 309 396 l 309 393 l 303 380 q 300 369 300 374 q 303 363 300 365 q 312 361 307 361 l 312 358 q 305 358 310 358 q 297 359 300 359 q 292 358 295 359 q 287 358 288 358 l 287 361 q 297 372 293 361 l 328 452 l 330 452 l 362 370 q 372 361 366 361 l 372 358 q 366 358 370 358 q 357 359 361 359 q 348 358 353 359 q 340 358 342 358 l 340 361 q 348 362 345 361 m 458 402 q 466 393 463 399 q 469 381 469 389 q 465 368 469 373 q 455 359 461 362 q 441 357 450 357 q 431 358 436 357 q 423 361 429 358 q 418 363 420 363 l 416 361 q 416 357 416 361 l 412 357 q 413 389 413 362 l 416 389 q 422 368 417 375 q 440 359 429 359 q 448 361 444 359 q 454 367 452 363 q 457 376 457 372 q 454 386 457 380 q 448 393 452 390 q 437 401 441 399 q 424 409 425 408 q 416 418 420 412 q 413 430 413 423 q 416 443 413 437 q 425 450 420 448 q 438 453 431 453 q 445 452 443 453 q 450 450 447 452 l 454 448 q 458 446 457 446 q 460 448 459 446 q 461 452 461 448 l 465 452 q 464 425 464 446 l 460 425 q 458 437 460 429 q 450 447 456 444 q 439 450 446 450 q 431 448 435 450 q 425 443 428 447 q 423 435 423 439 q 427 424 423 428 q 437 416 433 418 q 442 412 439 414 l 445 411 q 458 402 456 404 m 545 397 q 528 394 534 394 l 524 394 q 522 394 524 394 q 519 395 520 395 q 511 398 512 395 q 513 400 511 399 q 517 401 514 401 q 547 404 536 401 q 564 414 557 406 q 569 434 569 420 l 569 435 l 569 435 l 569 435 l 569 435 l 569 435 l 569 435 l 569 435 l 570 435 l 570 435 l 570 435 l 570 435 l 570 435 l 570 435 l 570 435 l 570 434 q 565 414 570 421 q 547 403 559 406 q 517 400 536 400 q 515 400 516 400 l 514 399 q 517 396 511 397 q 521 395 519 395 l 528 395 q 545 397 536 395 q 561 405 553 399 q 573 416 569 410 q 578 431 578 422 q 575 442 578 437 q 568 450 572 446 q 559 455 563 454 q 551 458 551 458 q 536 460 541 460 q 524 459 528 460 q 518 458 522 458 q 512 456 514 457 q 501 453 508 456 q 496 451 499 452 q 492 449 494 450 q 490 448 491 449 q 488 447 488 448 q 487 446 488 446 q 486 446 486 446 l 483 444 q 475 435 477 438 q 472 426 472 431 l 472 425 q 481 411 473 416 q 502 412 489 405 l 502 412 l 503 412 l 503 412 l 503 412 l 503 412 l 503 411 l 503 411 l 503 411 l 503 411 l 503 410 l 503 410 l 503 410 l 503 410 q 479 410 490 403 q 471 423 473 415 l 471 424 l 471 425 l 471 425 l 471 427 q 472 433 471 429 q 474 438 473 435 q 477 441 475 439 l 478 443 l 481 446 l 484 448 q 496 455 492 453 q 510 460 503 458 q 514 461 512 460 q 520 461 517 461 q 524 462 523 462 q 537 463 529 463 q 547 462 544 463 q 557 459 554 460 q 565 455 563 457 q 573 448 572 450 q 578 439 577 443 q 579 431 579 433 q 577 420 579 425 q 572 413 575 416 q 570 411 571 412 q 569 410 569 410 q 567 408 568 409 q 566 407 566 408 q 561 404 564 406 q 545 397 553 399 m 498 375 l 518 443 q 520 444 518 444 l 521 444 l 521 443 l 522 442 l 522 441 l 499 374 q 498 374 499 374 q 498 374 498 374 l 498 375 m 633 427 l 632 427 l 632 429 l 633 431 q 634 433 633 433 l 635 432 l 635 431 l 634 428 q 633 427 634 427 m 813 402 q 815 399 815 400 q 814 396 815 397 q 806 393 812 395 q 777 399 805 393 q 734 399 753 405 q 702 400 712 393 q 699 403 699 401 l 694 395 l 692 391 l 690 387 l 687 383 q 685 381 686 382 q 684 378 684 379 q 677 376 680 375 q 677 389 675 376 q 678 393 678 390 q 679 397 678 396 l 681 406 q 682 409 681 407 q 683 413 682 412 q 676 401 679 406 q 668 392 673 397 q 659 388 663 387 q 656 390 659 388 q 655 398 654 393 l 651 392 q 642 383 646 385 q 634 386 636 380 q 633 399 632 392 q 615 374 621 384 l 612 365 q 600 335 610 359 q 595 326 597 328 q 593 325 595 326 l 593 324 q 592 323 593 323 q 591 324 591 323 q 589 328 589 327 q 591 334 589 329 q 600 353 593 341 q 614 375 606 363 q 619 391 616 380 q 624 404 623 401 q 621 401 623 403 q 618 399 621 400 q 613 400 615 397 l 612 398 q 611 397 611 397 q 610 395 610 395 q 608 392 610 393 q 607 391 608 392 q 606 390 606 391 q 600 391 601 388 q 600 401 598 395 q 599 400 600 400 q 597 399 598 400 q 595 399 597 399 q 593 399 594 399 q 595 410 593 401 q 584 399 589 405 q 576 387 581 394 l 575 386 l 574 387 l 574 387 q 578 401 575 392 q 580 409 578 404 q 583 416 582 414 q 526 385 564 387 l 525 385 l 525 385 l 525 385 l 525 385 l 524 385 l 524 386 l 524 386 l 525 386 l 525 387 l 525 387 l 525 387 l 526 387 q 585 425 567 387 l 586 425 q 587 426 586 426 l 588 425 l 588 425 l 588 425 l 586 420 l 581 406 q 580 402 581 405 q 578 399 579 400 q 578 395 578 397 q 577 391 578 393 q 581 396 578 393 q 583 401 583 399 q 591 410 589 408 l 595 414 l 597 415 l 597 416 l 598 416 l 600 416 l 600 414 q 598 412 600 414 q 597 410 597 411 q 595 400 593 401 q 600 404 598 400 q 611 416 604 415 q 613 414 613 416 q 614 411 614 412 l 614 409 l 614 407 l 614 406 l 614 404 l 614 403 l 613 401 l 614 401 q 620 401 616 398 q 623 406 622 403 q 626 410 625 407 l 626 410 l 627 411 q 627 412 627 412 l 627 412 l 628 411 l 628 411 l 628 410 q 618 381 623 394 q 633 403 623 388 l 635 405 q 640 415 637 411 q 648 419 644 420 q 650 410 652 417 q 642 396 646 397 q 639 397 640 396 l 639 399 l 640 399 q 642 397 640 397 q 646 404 644 397 l 646 405 q 647 416 651 415 q 641 411 645 417 q 636 398 637 405 q 637 386 635 391 q 645 387 640 382 q 654 399 646 389 q 656 400 655 399 q 656 402 656 401 l 656 404 q 672 419 661 419 q 676 417 675 419 q 675 412 677 414 q 671 409 674 410 q 668 410 669 408 q 670 412 668 412 q 671 412 671 412 q 675 413 674 409 q 675 415 675 414 q 671 418 673 419 q 659 398 665 416 q 659 390 655 391 q 673 399 665 389 q 686 422 681 410 l 680 421 q 679 422 679 421 l 680 422 l 686 424 q 690 433 688 428 q 692 441 691 438 q 696 441 693 443 q 696 440 696 441 q 689 424 693 434 q 709 425 700 426 q 725 426 719 424 q 731 436 731 428 q 732 436 731 437 q 732 425 739 429 q 714 422 731 421 q 688 422 696 424 q 683 404 685 415 q 682 402 682 404 q 682 399 682 400 q 680 395 680 397 l 678 387 q 678 376 676 378 q 683 379 680 376 q 687 385 686 382 l 688 387 q 691 391 689 389 q 693 395 692 394 q 695 400 694 397 q 698 404 697 403 q 696 407 696 406 q 699 414 694 412 q 701 414 701 415 q 699 404 703 411 q 702 401 700 403 q 733 400 711 394 q 777 400 752 406 q 806 395 803 395 q 813 397 811 395 q 814 399 814 397 q 813 401 814 401 q 811 401 812 402 q 810 399 810 401 q 812 399 811 399 l 812 398 l 812 397 q 811 398 811 397 q 810 398 811 398 q 809 399 809 398 q 813 402 809 403 m 601 391 q 609 395 603 386 q 612 401 611 398 q 610 401 610 401 q 607 405 607 403 q 608 409 607 408 q 608 411 608 410 q 609 412 608 412 l 608 412 q 608 412 608 412 q 607 410 608 411 l 606 408 q 602 401 602 404 q 600 394 600 395 q 601 393 600 393 q 601 391 601 392 m 612 402 q 613 408 613 406 q 612 413 613 412 l 612 412 l 611 412 q 610 412 610 412 q 610 410 610 411 q 609 408 609 409 l 609 406 q 612 402 609 404 m 610 366 l 610 367 q 606 360 609 365 q 601 352 602 355 q 593 334 595 342 q 591 328 591 330 q 592 326 591 326 q 593 328 593 327 q 598 336 595 330 q 610 366 604 349 m 700 414 q 699 405 694 412 q 701 409 700 406 q 700 414 701 412 m 504 550 q 505 544 504 550 q 498 529 506 538 q 480 518 491 519 q 459 524 469 517 q 452 563 437 541 q 471 574 460 574 q 492 568 481 576 q 504 550 502 561 m 467 535 q 486 538 478 526 q 484 557 494 549 q 473 560 479 562 q 465 554 469 559 q 467 535 457 543 m 328 607 l 332 595 l 313 590 l 315 583 l 332 587 l 334 575 l 318 571 l 320 564 l 339 568 l 342 556 l 309 548 l 296 598 l 328 607 m 425 549 l 410 551 l 411 582 l 393 554 l 389 555 l 380 587 l 371 558 l 357 560 l 373 610 l 387 608 l 395 578 l 412 604 l 425 602 l 425 549 m 241 570 q 261 574 250 576 q 278 564 271 574 q 283 544 285 555 q 271 527 281 534 l 254 515 l 224 557 l 241 570 m 267 555 q 258 561 264 559 q 248 558 254 562 l 243 555 l 258 534 l 263 537 q 267 555 274 546 m 480 279 q 498 269 491 278 q 504 248 506 259 q 492 229 502 237 q 471 223 481 222 q 452 234 460 224 q 447 255 445 243 q 458 273 448 266 q 480 279 469 281 m 484 240 q 486 259 494 248 q 477 265 482 264 q 467 262 471 267 q 465 243 456 254 q 484 240 473 232 m 401 191 l 396 190 l 378 218 l 378 187 l 364 185 l 363 238 l 378 240 l 395 214 l 402 244 l 416 246 l 433 196 l 418 194 l 410 223 l 401 191 m 269 238 q 252 228 262 229 q 232 235 241 227 l 216 248 l 248 289 l 264 276 q 275 258 274 269 q 269 238 276 248 m 251 270 l 235 250 l 239 245 q 258 248 250 237 q 256 266 266 258 l 251 270 m 334 229 l 316 235 l 314 227 l 330 222 l 328 211 l 311 216 l 309 208 l 328 203 l 324 191 l 292 200 l 306 250 l 338 241 l 334 229 m 479 467 q 473 468 475 464 q 427 511 455 495 q 366 526 399 526 q 303 510 332 526 q 257 467 275 494 q 252 465 255 463 q 250 472 248 468 q 299 518 269 501 q 366 535 330 535 q 431 518 401 535 q 480 473 461 501 q 479 467 483 469 m 479 339 q 486 341 482 343 q 488 336 490 338 q 438 281 471 302 q 366 260 405 260 q 291 282 324 260 q 241 340 257 304 q 243 347 239 345 l 243 347 q 249 345 248 348 q 296 290 264 311 q 366 269 328 269 q 433 288 403 269 q 479 339 463 307 m 509 526 q 513 524 511 526 q 536 491 528 507 q 534 485 538 488 q 529 487 532 483 q 506 519 522 500 q 507 525 503 523 q 509 526 508 526 m 549 359 q 552 363 550 363 l 554 363 q 557 357 559 361 q 521 277 549 313 q 515 277 519 274 q 513 283 511 279 q 549 359 541 319 m 172 396 q 222 527 172 471 q 226 528 224 528 q 229 527 227 528 q 229 521 232 525 q 181 396 181 467 q 222 281 181 332 q 220 274 224 277 q 214 275 217 271 q 172 396 172 328 z "},"6":{"ha":892,"x_min":78,"x_max":815,"o":"m 612 285 q 619 275 617 281 q 618 264 621 269 q 514 153 582 195 q 364 111 446 111 q 162 195 245 111 q 78 397 78 279 q 162 600 78 516 q 364 684 245 684 q 514 643 446 684 q 618 532 582 601 q 619 520 621 526 q 612 511 617 514 q 600 509 606 507 q 591 517 594 511 q 497 616 558 579 q 364 654 437 654 q 183 579 258 654 q 109 397 109 504 q 183 216 109 291 q 364 142 258 142 q 497 179 437 142 q 591 278 558 216 q 600 286 594 283 q 612 285 607 288 m 570 520 q 564 522 566 518 q 479 603 532 573 q 364 632 427 632 q 198 563 267 632 q 130 397 130 494 q 198 232 130 300 q 364 163 267 163 q 479 193 427 163 q 564 273 532 222 q 570 275 566 277 q 571 269 574 272 q 483 185 538 216 q 364 154 429 154 q 192 225 263 154 q 121 397 121 297 q 192 570 121 498 q 364 642 264 642 q 483 611 429 642 q 571 527 538 580 q 570 520 574 523 m 397 437 l 397 386 q 385 378 391 385 l 385 437 q 383 445 385 442 q 380 448 382 447 q 374 449 378 449 l 374 452 q 381 451 375 452 q 391 451 387 451 q 400 451 395 451 q 407 452 406 452 l 407 449 q 400 448 403 449 q 397 445 398 447 q 397 437 397 444 m 374 358 l 374 361 q 380 362 378 361 q 383 365 382 363 q 389 374 385 370 q 395 378 392 378 l 397 380 l 397 372 q 397 365 397 366 q 400 362 398 363 q 407 361 403 361 l 407 358 q 400 358 406 358 q 391 359 395 359 q 381 358 387 359 q 374 358 375 358 m 273 418 q 265 409 271 413 q 250 403 257 404 l 252 403 q 261 400 259 401 q 267 395 264 398 q 270 386 269 391 l 273 372 q 275 366 275 367 q 277 362 277 363 q 280 361 278 361 q 283 362 283 361 l 288 366 l 290 365 q 283 359 286 361 q 275 357 281 357 q 267 359 269 357 q 261 371 263 363 l 258 384 q 256 390 258 387 q 255 395 255 393 q 251 400 254 398 q 243 403 247 403 l 231 403 l 231 372 q 232 365 231 368 q 235 362 233 363 q 241 361 237 361 l 241 358 q 235 358 240 358 q 225 359 229 359 q 215 358 221 359 q 208 358 210 358 l 208 361 q 215 362 212 361 q 218 365 217 363 q 218 372 218 366 l 218 437 q 218 445 218 444 q 215 448 217 447 q 208 449 212 449 l 208 452 q 215 451 210 452 q 224 451 220 451 l 235 451 l 244 451 q 261 448 255 451 q 272 440 268 446 q 275 429 275 436 q 273 418 275 423 m 254 408 q 260 416 258 411 q 262 427 262 420 q 257 444 262 438 q 241 449 252 449 q 235 448 237 449 q 232 445 233 447 q 231 437 231 442 l 231 405 l 239 405 q 254 408 248 405 m 348 362 q 350 366 350 363 q 348 372 350 368 l 340 393 l 339 396 l 324 435 l 309 396 l 309 393 l 303 380 q 300 369 300 374 q 303 363 300 365 q 312 361 307 361 l 312 358 q 305 358 310 358 q 297 359 300 359 q 292 358 295 359 q 287 358 288 358 l 287 361 q 297 372 293 361 l 328 452 l 330 452 l 362 370 q 372 361 366 361 l 372 358 q 366 358 370 358 q 357 359 361 359 q 348 358 353 359 q 340 358 342 358 l 340 361 q 348 362 345 361 m 458 402 q 466 393 463 399 q 469 381 469 389 q 465 368 469 373 q 455 359 461 362 q 441 357 450 357 q 431 358 436 357 q 423 361 429 358 q 418 363 420 363 l 416 361 q 416 357 416 361 l 412 357 q 413 389 413 362 l 416 389 q 422 368 417 375 q 440 359 429 359 q 448 361 444 359 q 454 367 452 363 q 457 376 457 372 q 454 386 457 380 q 448 393 452 390 q 437 401 441 399 q 424 409 425 408 q 416 418 420 412 q 413 430 413 423 q 416 443 413 437 q 425 450 420 448 q 438 453 431 453 q 445 452 443 453 q 450 450 447 452 l 454 448 q 458 446 457 446 q 460 448 459 446 q 461 452 461 448 l 465 452 q 464 425 464 446 l 460 425 q 458 437 460 429 q 450 447 456 444 q 439 450 446 450 q 431 448 435 450 q 425 443 428 447 q 423 435 423 439 q 427 424 423 428 q 437 416 433 418 q 442 412 439 414 l 445 411 q 458 402 456 404 m 498 375 l 518 443 q 520 444 518 444 l 521 444 l 521 443 l 522 442 l 522 441 l 499 374 q 498 374 499 374 q 498 374 498 374 l 498 375 m 545 397 q 528 394 534 394 l 524 394 q 522 394 524 394 q 519 395 520 395 q 511 398 512 395 q 513 400 511 399 q 517 401 514 401 q 547 404 536 401 q 564 414 557 406 q 569 434 569 420 l 569 435 l 569 435 l 569 435 l 569 435 l 569 435 l 569 435 l 569 435 l 570 435 l 570 435 l 570 435 l 570 435 l 570 435 l 570 435 l 570 435 l 570 434 q 565 414 570 421 q 547 403 559 406 q 517 400 536 400 q 515 400 516 400 l 514 399 q 517 396 511 397 q 521 395 519 395 l 528 395 q 545 397 536 395 q 561 405 553 399 q 573 416 569 410 q 578 431 578 422 q 575 442 578 437 q 568 450 572 446 q 559 455 563 454 q 551 458 551 458 q 536 460 541 460 q 524 459 528 460 q 518 458 522 458 q 512 456 514 457 q 501 453 508 456 q 496 451 499 452 q 492 449 494 450 q 490 448 491 449 q 488 447 488 448 q 487 446 488 446 q 486 446 486 446 l 483 444 q 475 435 477 438 q 472 426 472 431 l 472 425 q 481 411 473 416 q 502 412 489 405 l 502 412 l 503 412 l 503 412 l 503 412 l 503 412 l 503 411 l 503 411 l 503 411 l 503 411 l 503 410 l 503 410 l 503 410 l 503 410 q 479 410 490 403 q 471 423 473 415 l 471 424 l 471 425 l 471 425 l 471 427 q 472 433 471 429 q 474 438 473 435 q 477 441 475 439 l 478 443 l 481 446 l 484 448 q 496 455 492 453 q 510 460 503 458 q 514 461 512 460 q 520 461 517 461 q 524 462 523 462 q 537 463 529 463 q 547 462 544 463 q 557 459 554 460 q 565 455 563 457 q 573 448 572 450 q 578 439 577 443 q 579 431 579 433 q 577 420 579 425 q 572 413 575 416 q 570 411 571 412 q 569 410 569 410 q 567 408 568 409 q 566 407 566 408 q 561 404 564 406 q 545 397 553 399 m 633 427 l 632 427 l 632 429 l 633 431 q 634 433 633 433 l 635 432 l 635 431 l 634 428 q 633 427 634 427 m 813 402 q 815 399 815 400 q 814 396 815 397 q 806 393 812 395 q 777 399 805 393 q 734 399 753 405 q 702 400 712 393 q 699 403 699 401 l 694 395 l 692 391 l 690 387 l 687 383 q 685 381 686 382 q 684 378 684 379 q 677 376 680 375 q 677 389 675 376 q 678 393 678 390 q 679 397 678 396 l 681 406 q 682 409 681 407 q 683 413 682 412 q 676 401 679 406 q 668 392 673 397 q 659 388 663 387 q 656 390 659 388 q 655 398 654 393 l 651 392 q 642 383 646 385 q 634 386 636 380 q 633 399 632 392 q 615 374 621 384 l 612 365 q 600 335 610 359 q 595 326 597 328 q 593 325 595 326 l 593 324 q 592 323 593 323 q 591 324 591 323 q 589 328 589 327 q 591 334 589 329 q 600 353 593 341 q 614 375 606 363 q 619 391 616 380 q 624 404 623 401 q 621 401 623 403 q 618 399 621 400 q 613 400 615 397 l 612 398 q 611 397 611 397 q 610 395 610 395 q 608 392 610 393 q 607 391 608 392 q 606 390 606 391 q 600 391 601 388 q 600 401 598 395 q 599 400 600 400 q 597 399 598 400 q 595 399 597 399 q 593 399 594 399 q 595 410 593 401 q 584 399 589 405 q 576 387 581 394 l 575 386 l 574 387 l 574 387 q 578 401 575 392 q 580 409 578 404 q 583 416 582 414 q 526 385 564 387 l 525 385 l 525 385 l 525 385 l 525 385 l 524 385 l 524 386 l 524 386 l 525 386 l 525 387 l 525 387 l 525 387 l 526 387 q 585 425 567 387 l 586 425 q 587 426 586 426 l 588 425 l 588 425 l 588 425 l 586 420 l 581 406 q 580 402 581 405 q 578 399 579 400 q 578 395 578 397 q 577 391 578 393 q 581 396 578 393 q 583 401 583 399 q 591 410 589 408 l 595 414 l 597 415 l 597 416 l 598 416 l 600 416 l 600 414 q 598 412 600 414 q 597 410 597 411 q 595 400 593 401 q 600 404 598 400 q 611 416 604 415 q 613 414 613 416 q 614 411 614 412 l 614 409 l 614 407 l 614 406 l 614 404 l 614 403 l 613 401 l 614 401 q 620 401 616 398 q 623 406 622 403 q 626 410 625 407 l 626 410 l 627 411 q 627 412 627 412 l 627 412 l 628 411 l 628 411 l 628 410 q 618 381 623 394 q 633 403 623 388 l 635 405 q 640 415 637 411 q 648 419 644 420 q 650 410 652 417 q 642 396 646 397 q 639 397 640 396 l 639 399 l 640 399 q 642 397 640 397 q 646 404 644 397 l 646 405 q 647 416 651 415 q 641 411 645 417 q 636 398 637 405 q 637 386 635 391 q 645 387 640 382 q 654 399 646 389 q 656 400 655 399 q 656 402 656 401 l 656 404 q 672 419 661 419 q 676 417 675 419 q 675 412 677 414 q 671 409 674 410 q 668 410 669 408 q 670 412 668 412 q 671 412 671 412 q 675 413 674 409 q 675 415 675 414 q 671 418 673 419 q 659 398 665 416 q 659 390 655 391 q 673 399 665 389 q 686 422 681 410 l 680 421 q 679 422 679 421 l 680 422 l 686 424 q 690 433 688 428 q 692 441 691 438 q 696 441 693 443 q 696 440 696 441 q 689 424 693 434 q 709 425 700 426 q 725 426 719 424 q 731 436 731 428 q 732 436 731 437 q 732 425 739 429 q 714 422 731 421 q 688 422 696 424 q 683 404 685 415 q 682 402 682 404 q 682 399 682 400 q 680 395 680 397 l 678 387 q 678 376 676 378 q 683 379 680 376 q 687 385 686 382 l 688 387 q 691 391 689 389 q 693 395 692 394 q 695 400 694 397 q 698 404 697 403 q 696 407 696 406 q 699 414 694 412 q 701 414 701 415 q 699 404 703 411 q 702 401 700 403 q 733 400 711 394 q 777 400 752 406 q 806 395 803 395 q 813 397 811 395 q 814 399 814 397 q 813 401 814 401 q 811 401 812 402 q 810 399 810 401 q 812 399 811 399 l 812 398 l 812 397 q 811 398 811 397 q 810 398 811 398 q 809 399 809 398 q 813 402 809 403 m 601 391 q 609 395 603 386 q 612 401 611 398 q 610 401 610 401 q 607 405 607 403 q 608 409 607 408 q 608 411 608 410 q 609 412 608 412 l 608 412 q 608 412 608 412 q 607 410 608 411 l 606 408 q 602 401 602 404 q 600 394 600 395 q 601 393 600 393 q 601 391 601 392 m 612 402 q 613 408 613 406 q 612 413 613 412 l 612 412 l 611 412 q 610 412 610 412 q 610 410 610 411 q 609 408 609 409 l 609 406 q 612 402 609 404 m 610 366 l 610 367 q 606 360 609 365 q 601 352 602 355 q 593 334 595 342 q 591 328 591 330 q 592 326 591 326 q 593 328 593 327 q 598 336 595 330 q 610 366 604 349 m 700 414 q 699 405 694 412 q 701 409 700 406 q 700 414 701 412 m 504 550 q 505 544 504 550 q 498 529 506 538 q 480 518 491 519 q 459 524 469 517 q 452 563 437 541 q 471 574 460 574 q 492 568 481 576 q 504 550 502 561 m 467 535 q 486 538 478 526 q 484 557 494 549 q 473 560 479 562 q 465 554 469 559 q 467 535 457 543 m 241 570 q 261 574 250 576 q 278 564 271 574 q 283 544 285 555 q 271 527 281 534 l 254 515 l 224 557 l 241 570 m 267 555 q 258 561 264 559 q 248 558 254 562 l 243 555 l 258 534 l 263 537 q 267 555 274 546 m 328 607 l 332 595 l 313 590 l 315 583 l 332 587 l 334 575 l 318 571 l 320 564 l 339 568 l 342 556 l 309 548 l 296 598 l 328 607 m 425 549 l 410 551 l 411 582 l 393 554 l 389 555 l 380 587 l 371 558 l 357 560 l 373 610 l 387 608 l 395 578 l 412 604 l 425 602 l 425 549 m 269 238 q 252 228 262 229 q 232 235 241 227 l 216 248 l 248 289 l 264 276 q 275 258 274 269 q 269 238 276 248 m 251 270 l 235 250 l 239 245 q 258 248 250 237 q 256 266 266 258 l 251 270 m 480 279 q 498 269 491 278 q 504 248 506 259 q 492 229 502 237 q 471 223 481 222 q 452 234 460 224 q 447 255 445 243 q 458 273 448 266 q 480 279 469 281 m 484 240 q 486 259 494 248 q 477 265 482 264 q 467 262 471 267 q 465 243 456 254 q 484 240 473 232 m 401 191 l 396 190 l 378 218 l 378 187 l 364 185 l 363 238 l 378 240 l 395 214 l 402 244 l 416 246 l 433 196 l 418 194 l 410 223 l 401 191 m 334 229 l 316 235 l 314 227 l 330 222 l 328 211 l 311 216 l 309 208 l 328 203 l 324 191 l 292 200 l 306 250 l 338 241 l 334 229 m 479 339 q 486 341 482 343 q 488 336 490 338 q 438 281 471 302 q 366 260 405 260 q 291 282 324 260 q 241 340 257 304 q 243 347 239 345 l 243 347 q 249 345 248 348 q 296 290 264 311 q 366 269 328 269 q 433 288 403 269 q 479 339 463 307 m 479 467 q 473 468 475 464 q 427 511 455 495 q 366 526 399 526 q 303 510 332 526 q 257 467 275 494 q 252 465 255 463 q 250 472 248 468 q 299 518 269 501 q 366 535 330 535 q 431 518 401 535 q 480 473 461 501 q 479 467 483 469 m 549 359 q 552 363 550 363 l 554 363 q 557 357 559 361 q 521 277 549 313 q 515 277 519 274 q 513 283 511 279 q 549 359 541 319 m 172 396 q 222 527 172 471 q 226 528 224 528 q 229 527 227 528 q 229 521 232 525 q 181 396 181 467 q 222 281 181 332 q 220 274 224 277 q 214 275 217 271 q 172 396 172 328 m 509 526 q 513 524 511 526 q 536 491 528 507 q 534 485 538 488 q 529 487 532 483 q 506 519 522 500 q 507 525 503 523 q 509 526 508 526 z "},"7":{"ha":892,"x_min":78,"x_max":815,"o":"m 612 285 q 619 275 617 281 q 618 264 621 269 q 514 153 582 195 q 364 111 446 111 q 162 195 245 111 q 78 397 78 279 q 162 600 78 516 q 364 684 245 684 q 514 643 446 684 q 618 532 582 601 q 619 520 621 526 q 612 511 617 514 q 600 509 606 507 q 591 517 594 511 q 497 616 558 579 q 364 654 437 654 q 183 579 258 654 q 109 397 109 504 q 183 216 109 291 q 364 142 258 142 q 497 179 437 142 q 591 278 558 216 q 600 286 594 283 q 612 285 607 288 m 570 520 q 564 522 566 518 q 479 603 532 573 q 364 632 427 632 q 198 563 267 632 q 130 397 130 494 q 198 232 130 300 q 364 163 267 163 q 479 193 427 163 q 564 273 532 222 q 570 275 566 277 q 571 269 574 272 q 483 185 538 216 q 364 154 429 154 q 192 225 263 154 q 121 397 121 297 q 192 570 121 498 q 364 642 264 642 q 483 611 429 642 q 571 527 538 580 q 570 520 574 523 m 397 437 l 397 386 q 385 378 391 385 l 385 437 q 383 445 385 442 q 380 448 382 447 q 374 449 378 449 l 374 452 q 381 451 375 452 q 391 451 387 451 q 400 451 395 451 q 407 452 406 452 l 407 449 q 400 448 403 449 q 397 445 398 447 q 397 437 397 444 m 374 358 l 374 361 q 380 362 378 361 q 383 365 382 363 q 389 374 385 370 q 395 378 392 378 l 397 380 l 397 372 q 397 365 397 366 q 400 362 398 363 q 407 361 403 361 l 407 358 q 400 358 406 358 q 391 359 395 359 q 381 358 387 359 q 374 358 375 358 m 273 418 q 265 409 271 413 q 250 403 257 404 l 252 403 q 261 400 259 401 q 267 395 264 398 q 270 386 269 391 l 273 372 q 275 366 275 367 q 277 362 277 363 q 280 361 278 361 q 283 362 283 361 l 288 366 l 290 365 q 283 359 286 361 q 275 357 281 357 q 267 359 269 357 q 261 371 263 363 l 258 384 q 256 390 258 387 q 255 395 255 393 q 251 400 254 398 q 243 403 247 403 l 231 403 l 231 372 q 232 365 231 368 q 235 362 233 363 q 241 361 237 361 l 241 358 q 235 358 240 358 q 225 359 229 359 q 215 358 221 359 q 208 358 210 358 l 208 361 q 215 362 212 361 q 218 365 217 363 q 218 372 218 366 l 218 437 q 218 445 218 444 q 215 448 217 447 q 208 449 212 449 l 208 452 q 215 451 210 452 q 224 451 220 451 l 235 451 l 244 451 q 261 448 255 451 q 272 440 268 446 q 275 429 275 436 q 273 418 275 423 m 254 408 q 260 416 258 411 q 262 427 262 420 q 257 444 262 438 q 241 449 252 449 q 235 448 237 449 q 232 445 233 447 q 231 437 231 442 l 231 405 l 239 405 q 254 408 248 405 m 348 362 q 350 366 350 363 q 348 372 350 368 l 340 393 l 339 396 l 324 435 l 309 396 l 309 393 l 303 380 q 300 369 300 374 q 303 363 300 365 q 312 361 307 361 l 312 358 q 305 358 310 358 q 297 359 300 359 q 292 358 295 359 q 287 358 288 358 l 287 361 q 297 372 293 361 l 328 452 l 330 452 l 362 370 q 372 361 366 361 l 372 358 q 366 358 370 358 q 357 359 361 359 q 348 358 353 359 q 340 358 342 358 l 340 361 q 348 362 345 361 m 458 402 q 466 393 463 399 q 469 381 469 389 q 465 368 469 373 q 455 359 461 362 q 441 357 450 357 q 431 358 436 357 q 423 361 429 358 q 418 363 420 363 l 416 361 q 416 357 416 361 l 412 357 q 413 389 413 362 l 416 389 q 422 368 417 375 q 440 359 429 359 q 448 361 444 359 q 454 367 452 363 q 457 376 457 372 q 454 386 457 380 q 448 393 452 390 q 437 401 441 399 q 424 409 425 408 q 416 418 420 412 q 413 430 413 423 q 416 443 413 437 q 425 450 420 448 q 438 453 431 453 q 445 452 443 453 q 450 450 447 452 l 454 448 q 458 446 457 446 q 460 448 459 446 q 461 452 461 448 l 465 452 q 464 425 464 446 l 460 425 q 458 437 460 429 q 450 447 456 444 q 439 450 446 450 q 431 448 435 450 q 425 443 428 447 q 423 435 423 439 q 427 424 423 428 q 437 416 433 418 q 442 412 439 414 l 445 411 q 458 402 456 404 m 498 375 l 518 443 q 520 444 518 444 l 521 444 l 521 443 l 522 442 l 522 441 l 499 374 q 498 374 499 374 q 498 374 498 374 l 498 375 m 545 397 q 528 394 534 394 l 524 394 q 522 394 524 394 q 519 395 520 395 q 511 398 512 395 q 513 400 511 399 q 517 401 514 401 q 547 404 536 401 q 564 414 557 406 q 569 434 569 420 l 569 435 l 569 435 l 569 435 l 569 435 l 569 435 l 569 435 l 569 435 l 570 435 l 570 435 l 570 435 l 570 435 l 570 435 l 570 435 l 570 435 l 570 434 q 565 414 570 421 q 547 403 559 406 q 517 400 536 400 q 515 400 516 400 l 514 399 q 517 396 511 397 q 521 395 519 395 l 528 395 q 545 397 536 395 q 561 405 553 399 q 573 416 569 410 q 578 431 578 422 q 575 442 578 437 q 568 450 572 446 q 559 455 563 454 q 551 458 551 458 q 536 460 541 460 q 524 459 528 460 q 518 458 522 458 q 512 456 514 457 q 501 453 508 456 q 496 451 499 452 q 492 449 494 450 q 490 448 491 449 q 488 447 488 448 q 487 446 488 446 q 486 446 486 446 l 483 444 q 475 435 477 438 q 472 426 472 431 l 472 425 q 481 411 473 416 q 502 412 489 405 l 502 412 l 503 412 l 503 412 l 503 412 l 503 412 l 503 411 l 503 411 l 503 411 l 503 411 l 503 410 l 503 410 l 503 410 l 503 410 q 479 410 490 403 q 471 423 473 415 l 471 424 l 471 425 l 471 425 l 471 427 q 472 433 471 429 q 474 438 473 435 q 477 441 475 439 l 478 443 l 481 446 l 484 448 q 496 455 492 453 q 510 460 503 458 q 514 461 512 460 q 520 461 517 461 q 524 462 523 462 q 537 463 529 463 q 547 462 544 463 q 557 459 554 460 q 565 455 563 457 q 573 448 572 450 q 578 439 577 443 q 579 431 579 433 q 577 420 579 425 q 572 413 575 416 q 570 411 571 412 q 569 410 569 410 q 567 408 568 409 q 566 407 566 408 q 561 404 564 406 q 545 397 553 399 m 633 427 l 632 427 l 632 429 l 633 431 q 634 433 633 433 l 635 432 l 635 431 l 634 428 q 633 427 634 427 m 813 402 q 815 399 815 400 q 814 396 815 397 q 806 393 812 395 q 777 399 805 393 q 734 399 753 405 q 702 400 712 393 q 699 403 699 401 l 694 395 l 692 391 l 690 387 l 687 383 q 685 381 686 382 q 684 378 684 379 q 677 376 680 375 q 677 389 675 376 q 678 393 678 390 q 679 397 678 396 l 681 406 q 682 409 681 407 q 683 413 682 412 q 676 401 679 406 q 668 392 673 397 q 659 388 663 387 q 656 390 659 388 q 655 398 654 393 l 651 392 q 642 383 646 385 q 634 386 636 380 q 633 399 632 392 q 615 374 621 384 l 612 365 q 600 335 610 359 q 595 326 597 328 q 593 325 595 326 l 593 324 q 592 323 593 323 q 591 324 591 323 q 589 328 589 327 q 591 334 589 329 q 600 353 593 341 q 614 375 606 363 q 619 391 616 380 q 624 404 623 401 q 621 401 623 403 q 618 399 621 400 q 613 400 615 397 l 612 398 q 611 397 611 397 q 610 395 610 395 q 608 392 610 393 q 607 391 608 392 q 606 390 606 391 q 600 391 601 388 q 600 401 598 395 q 599 400 600 400 q 597 399 598 400 q 595 399 597 399 q 593 399 594 399 q 595 410 593 401 q 584 399 589 405 q 576 387 581 394 l 575 386 l 574 387 l 574 387 q 578 401 575 392 q 580 409 578 404 q 583 416 582 414 q 526 385 564 387 l 525 385 l 525 385 l 525 385 l 525 385 l 524 385 l 524 386 l 524 386 l 525 386 l 525 387 l 525 387 l 525 387 l 526 387 q 585 425 567 387 l 586 425 q 587 426 586 426 l 588 425 l 588 425 l 588 425 l 586 420 l 581 406 q 580 402 581 405 q 578 399 579 400 q 578 395 578 397 q 577 391 578 393 q 581 396 578 393 q 583 401 583 399 q 591 410 589 408 l 595 414 l 597 415 l 597 416 l 598 416 l 600 416 l 600 414 q 598 412 600 414 q 597 410 597 411 q 595 400 593 401 q 600 404 598 400 q 611 416 604 415 q 613 414 613 416 q 614 411 614 412 l 614 409 l 614 407 l 614 406 l 614 404 l 614 403 l 613 401 l 614 401 q 620 401 616 398 q 623 406 622 403 q 626 410 625 407 l 626 410 l 627 411 q 627 412 627 412 l 627 412 l 628 411 l 628 411 l 628 410 q 618 381 623 394 q 633 403 623 388 l 635 405 q 640 415 637 411 q 648 419 644 420 q 650 410 652 417 q 642 396 646 397 q 639 397 640 396 l 639 399 l 640 399 q 642 397 640 397 q 646 404 644 397 l 646 405 q 647 416 651 415 q 641 411 645 417 q 636 398 637 405 q 637 386 635 391 q 645 387 640 382 q 654 399 646 389 q 656 400 655 399 q 656 402 656 401 l 656 404 q 672 419 661 419 q 676 417 675 419 q 675 412 677 414 q 671 409 674 410 q 668 410 669 408 q 670 412 668 412 q 671 412 671 412 q 675 413 674 409 q 675 415 675 414 q 671 418 673 419 q 659 398 665 416 q 659 390 655 391 q 673 399 665 389 q 686 422 681 410 l 680 421 q 679 422 679 421 l 680 422 l 686 424 q 690 433 688 428 q 692 441 691 438 q 696 441 693 443 q 696 440 696 441 q 689 424 693 434 q 709 425 700 426 q 725 426 719 424 q 731 436 731 428 q 732 436 731 437 q 732 425 739 429 q 714 422 731 421 q 688 422 696 424 q 683 404 685 415 q 682 402 682 404 q 682 399 682 400 q 680 395 680 397 l 678 387 q 678 376 676 378 q 683 379 680 376 q 687 385 686 382 l 688 387 q 691 391 689 389 q 693 395 692 394 q 695 400 694 397 q 698 404 697 403 q 696 407 696 406 q 699 414 694 412 q 701 414 701 415 q 699 404 703 411 q 702 401 700 403 q 733 400 711 394 q 777 400 752 406 q 806 395 803 395 q 813 397 811 395 q 814 399 814 397 q 813 401 814 401 q 811 401 812 402 q 810 399 810 401 q 812 399 811 399 l 812 398 l 812 397 q 811 398 811 397 q 810 398 811 398 q 809 399 809 398 q 813 402 809 403 m 601 391 q 609 395 603 386 q 612 401 611 398 q 610 401 610 401 q 607 405 607 403 q 608 409 607 408 q 608 411 608 410 q 609 412 608 412 l 608 412 q 608 412 608 412 q 607 410 608 411 l 606 408 q 602 401 602 404 q 600 394 600 395 q 601 393 600 393 q 601 391 601 392 m 612 402 q 613 408 613 406 q 612 413 613 412 l 612 412 l 611 412 q 610 412 610 412 q 610 410 610 411 q 609 408 609 409 l 609 406 q 612 402 609 404 m 610 366 l 610 367 q 606 360 609 365 q 601 352 602 355 q 593 334 595 342 q 591 328 591 330 q 592 326 591 326 q 593 328 593 327 q 598 336 595 330 q 610 366 604 349 m 700 414 q 699 405 694 412 q 701 409 700 406 q 700 414 701 412 m 425 549 l 410 551 l 411 582 l 393 554 l 389 555 l 380 587 l 371 558 l 357 560 l 373 610 l 387 608 l 395 578 l 412 604 l 425 602 l 425 549 m 241 570 q 261 574 250 576 q 278 564 271 574 q 283 544 285 555 q 271 527 281 534 l 254 515 l 224 557 l 241 570 m 267 555 q 258 561 264 559 q 248 558 254 562 l 243 555 l 258 534 l 263 537 q 267 555 274 546 m 504 550 q 505 544 504 550 q 498 529 506 538 q 480 518 491 519 q 459 524 469 517 q 452 563 437 541 q 471 574 460 574 q 492 568 481 576 q 504 550 502 561 m 467 535 q 486 538 478 526 q 484 557 494 549 q 473 560 479 562 q 465 554 469 559 q 467 535 457 543 m 328 607 l 332 595 l 313 590 l 315 583 l 332 587 l 334 575 l 318 571 l 320 564 l 339 568 l 342 556 l 309 548 l 296 598 l 328 607 m 334 229 l 316 235 l 314 227 l 330 222 l 328 211 l 311 216 l 309 208 l 328 203 l 324 191 l 292 200 l 306 250 l 338 241 l 334 229 m 269 238 q 252 228 262 229 q 232 235 241 227 l 216 248 l 248 289 l 264 276 q 275 258 274 269 q 269 238 276 248 m 251 270 l 235 250 l 239 245 q 258 248 250 237 q 256 266 266 258 l 251 270 m 401 191 l 396 190 l 378 218 l 378 187 l 364 185 l 363 238 l 378 240 l 395 214 l 402 244 l 416 246 l 433 196 l 418 194 l 410 223 l 401 191 m 480 279 q 498 269 491 278 q 504 248 506 259 q 492 229 502 237 q 471 223 481 222 q 452 234 460 224 q 447 255 445 243 q 458 273 448 266 q 480 279 469 281 m 484 240 q 486 259 494 248 q 477 265 482 264 q 467 262 471 267 q 465 243 456 254 q 484 240 473 232 m 479 339 q 486 341 482 343 q 488 336 490 338 q 438 281 471 302 q 366 260 405 260 q 291 282 324 260 q 241 340 257 304 q 243 347 239 345 l 243 347 q 249 345 248 348 q 296 290 264 311 q 366 269 328 269 q 433 288 403 269 q 479 339 463 307 m 479 467 q 473 468 475 464 q 427 511 455 495 q 366 526 399 526 q 303 510 332 526 q 257 467 275 494 q 252 465 255 463 q 250 472 248 468 q 299 518 269 501 q 366 535 330 535 q 431 518 401 535 q 480 473 461 501 q 479 467 483 469 m 509 526 q 513 524 511 526 q 536 491 528 507 q 534 485 538 488 q 529 486 531 483 q 506 519 521 502 q 507 525 503 523 q 509 526 508 526 m 172 396 q 222 527 172 471 q 226 528 224 528 q 229 527 227 528 q 229 521 232 525 q 181 396 181 467 q 222 281 181 332 q 220 274 224 277 q 214 275 217 271 q 172 396 172 328 m 549 359 q 552 363 550 363 l 554 363 q 557 357 559 361 q 521 277 549 313 q 515 277 519 274 q 513 283 511 279 q 549 359 541 319 z "},"8":{"ha":892,"x_min":78,"x_max":815,"o":"m 612 285 q 619 275 617 281 q 618 264 621 269 q 514 153 582 195 q 364 111 446 111 q 162 195 245 111 q 78 397 78 279 q 162 600 78 516 q 364 684 245 684 q 514 643 446 684 q 618 532 582 601 q 619 520 621 526 q 612 511 617 514 q 600 509 606 507 q 591 517 594 511 q 497 616 558 579 q 364 654 437 654 q 183 579 258 654 q 109 397 109 504 q 183 216 109 291 q 364 142 258 142 q 497 179 437 142 q 591 278 558 216 q 600 286 594 283 q 612 285 607 288 m 570 520 q 564 522 566 518 q 479 603 532 573 q 364 632 427 632 q 198 563 267 632 q 130 397 130 494 q 198 232 130 300 q 364 163 267 163 q 479 193 427 163 q 564 273 532 222 q 570 275 566 277 q 571 269 574 272 q 483 185 538 216 q 364 154 429 154 q 192 225 263 154 q 121 397 121 297 q 192 570 121 498 q 364 642 264 642 q 483 611 429 642 q 571 527 538 580 q 570 520 574 523 m 397 437 l 397 386 q 385 378 391 385 l 385 437 q 383 445 385 442 q 380 448 382 447 q 374 449 378 449 l 374 452 q 381 451 375 452 q 391 451 387 451 q 400 451 395 451 q 407 452 406 452 l 407 449 q 400 448 403 449 q 397 445 398 447 q 397 437 397 444 m 374 358 l 374 361 q 380 362 378 361 q 383 365 382 363 q 389 374 385 370 q 395 378 392 378 l 397 380 l 397 372 q 397 365 397 366 q 400 362 398 363 q 407 361 403 361 l 407 358 q 400 358 406 358 q 391 359 395 359 q 381 358 387 359 q 374 358 375 358 m 273 418 q 265 409 271 413 q 250 403 257 404 l 252 403 q 261 400 259 401 q 267 395 264 398 q 270 386 269 391 l 273 372 q 275 366 275 367 q 277 362 277 363 q 280 361 278 361 q 283 362 283 361 l 288 366 l 290 365 q 283 359 286 361 q 275 357 281 357 q 267 359 269 357 q 261 371 263 363 l 258 384 q 256 390 258 387 q 255 395 255 393 q 251 400 254 398 q 243 403 247 403 l 231 403 l 231 372 q 232 365 231 368 q 235 362 233 363 q 241 361 237 361 l 241 358 q 235 358 240 358 q 225 359 229 359 q 215 358 221 359 q 208 358 210 358 l 208 361 q 215 362 212 361 q 218 365 217 363 q 218 372 218 366 l 218 437 q 218 445 218 444 q 215 448 217 447 q 208 449 212 449 l 208 452 q 215 451 210 452 q 224 451 220 451 l 235 451 l 244 451 q 261 448 255 451 q 272 440 268 446 q 275 429 275 436 q 273 418 275 423 m 254 408 q 260 416 258 411 q 262 427 262 420 q 257 444 262 438 q 241 449 252 449 q 235 448 237 449 q 232 445 233 447 q 231 437 231 442 l 231 405 l 239 405 q 254 408 248 405 m 348 362 q 350 366 350 363 q 348 372 350 368 l 340 393 l 339 396 l 324 435 l 309 396 l 309 393 l 303 380 q 300 369 300 374 q 303 363 300 365 q 312 361 307 361 l 312 358 q 305 358 310 358 q 297 359 300 359 q 292 358 295 359 q 287 358 288 358 l 287 361 q 297 372 293 361 l 328 452 l 330 452 l 362 370 q 372 361 366 361 l 372 358 q 366 358 370 358 q 357 359 361 359 q 348 358 353 359 q 340 358 342 358 l 340 361 q 348 362 345 361 m 458 402 q 466 393 463 399 q 469 381 469 389 q 465 368 469 373 q 455 359 461 362 q 441 357 450 357 q 431 358 436 357 q 423 361 429 358 q 418 363 420 363 l 416 361 q 416 357 416 361 l 412 357 q 413 389 413 362 l 416 389 q 422 368 417 375 q 440 359 429 359 q 448 361 444 359 q 454 367 452 363 q 457 376 457 372 q 454 386 457 380 q 448 393 452 390 q 437 401 441 399 q 424 409 425 408 q 416 418 420 412 q 413 430 413 423 q 416 443 413 437 q 425 450 420 448 q 438 453 431 453 q 445 452 443 453 q 450 450 447 452 l 454 448 q 458 446 457 446 q 460 448 459 446 q 461 452 461 448 l 465 452 q 464 425 464 446 l 460 425 q 458 437 460 429 q 450 447 456 444 q 439 450 446 450 q 431 448 435 450 q 425 443 428 447 q 423 435 423 439 q 427 424 423 428 q 437 416 433 418 q 442 412 439 414 l 445 411 q 458 402 456 404 m 545 397 q 528 394 534 394 l 524 394 q 522 394 524 394 q 519 395 520 395 q 511 398 512 395 q 513 400 511 399 q 517 401 514 401 q 547 404 536 401 q 564 414 557 406 q 569 434 569 420 l 569 435 l 569 435 l 569 435 l 569 435 l 569 435 l 569 435 l 569 435 l 570 435 l 570 435 l 570 435 l 570 435 l 570 435 l 570 435 l 570 435 l 570 434 q 565 414 570 421 q 547 403 559 406 q 517 400 536 400 q 515 400 516 400 l 514 399 q 517 396 511 397 q 521 395 519 395 l 528 395 q 545 397 536 395 q 561 405 553 399 q 573 416 569 410 q 578 431 578 422 q 575 442 578 437 q 568 450 572 446 q 559 455 563 454 q 551 458 551 458 q 536 460 541 460 q 524 459 528 460 q 518 458 522 458 q 512 456 514 457 q 501 453 508 456 q 496 451 499 452 q 492 449 494 450 q 490 448 491 449 q 488 447 488 448 q 487 446 488 446 q 486 446 486 446 l 483 444 q 475 435 477 438 q 472 426 472 431 l 472 425 q 481 411 473 416 q 502 412 489 405 l 502 412 l 503 412 l 503 412 l 503 412 l 503 412 l 503 411 l 503 411 l 503 411 l 503 411 l 503 410 l 503 410 l 503 410 l 503 410 q 479 410 490 403 q 471 423 473 415 l 471 424 l 471 425 l 471 425 l 471 427 q 472 433 471 429 q 474 438 473 435 q 477 441 475 439 l 478 443 l 481 446 l 484 448 q 496 455 492 453 q 510 460 503 458 q 514 461 512 460 q 520 461 517 461 q 524 462 523 462 q 537 463 529 463 q 547 462 544 463 q 557 459 554 460 q 565 455 563 457 q 573 448 572 450 q 578 439 577 443 q 579 431 579 433 q 577 420 579 425 q 572 413 575 416 q 570 411 571 412 q 569 410 569 410 q 567 408 568 409 q 566 407 566 408 q 561 404 564 406 q 545 397 553 399 m 498 375 l 518 443 q 520 444 518 444 l 521 444 l 521 443 l 522 442 l 522 441 l 499 374 q 498 374 499 374 q 498 374 498 374 l 498 375 m 633 427 l 632 427 l 632 429 l 633 431 q 634 433 633 433 l 635 432 l 635 431 l 634 428 q 633 427 634 427 m 813 402 q 815 399 815 400 q 814 396 815 397 q 806 393 812 395 q 777 399 805 393 q 734 399 753 405 q 702 400 712 393 q 699 403 699 401 l 694 395 l 692 391 l 690 387 l 687 383 q 685 381 686 382 q 684 378 684 379 q 677 376 680 375 q 677 389 675 376 q 678 393 678 390 q 679 397 678 396 l 681 406 q 682 409 681 407 q 683 413 682 412 q 676 401 679 406 q 668 392 673 397 q 659 388 663 387 q 656 390 659 388 q 655 398 654 393 l 651 392 q 642 383 646 385 q 634 386 636 380 q 633 399 632 392 q 615 374 621 384 l 612 365 q 600 335 610 359 q 595 326 597 328 q 593 325 595 326 l 593 324 q 592 323 593 323 q 591 324 591 323 q 589 328 589 327 q 591 334 589 329 q 600 353 593 341 q 614 375 606 363 q 619 391 616 380 q 624 404 623 401 q 621 401 623 403 q 618 399 621 400 q 613 400 615 397 l 612 398 q 611 397 611 397 q 610 395 610 395 q 608 392 610 393 q 607 391 608 392 q 606 390 606 391 q 600 391 601 388 q 600 401 598 395 q 599 400 600 400 q 597 399 598 400 q 595 399 597 399 q 593 399 594 399 q 595 410 593 401 q 584 399 589 405 q 576 387 581 394 l 575 386 l 574 387 l 574 387 q 578 401 575 392 q 580 409 578 404 q 583 416 582 414 q 526 385 564 387 l 525 385 l 525 385 l 525 385 l 525 385 l 524 385 l 524 386 l 524 386 l 525 386 l 525 387 l 525 387 l 525 387 l 526 387 q 585 425 567 387 l 586 425 q 587 426 586 426 l 588 425 l 588 425 l 588 425 l 586 420 l 581 406 q 580 402 581 405 q 578 399 579 400 q 578 395 578 397 q 577 391 578 393 q 581 396 578 393 q 583 401 583 399 q 591 410 589 408 l 595 414 l 597 415 l 597 416 l 598 416 l 600 416 l 600 414 q 598 412 600 414 q 597 410 597 411 q 595 400 593 401 q 600 404 598 400 q 611 416 604 415 q 613 414 613 416 q 614 411 614 412 l 614 409 l 614 407 l 614 406 l 614 404 l 614 403 l 613 401 l 614 401 q 620 401 616 398 q 623 406 622 403 q 626 410 625 407 l 626 410 l 627 411 q 627 412 627 412 l 627 412 l 628 411 l 628 411 l 628 410 q 618 381 623 394 q 633 403 623 388 l 635 405 q 640 415 637 411 q 648 419 644 420 q 650 410 652 417 q 642 396 646 397 q 639 397 640 396 l 639 399 l 640 399 q 642 397 640 397 q 646 404 644 397 l 646 405 q 647 416 651 415 q 641 411 645 417 q 636 398 637 405 q 637 386 635 391 q 645 387 640 382 q 654 399 646 389 q 656 400 655 399 q 656 402 656 401 l 656 404 q 672 419 661 419 q 676 417 675 419 q 675 412 677 414 q 671 409 674 410 q 668 410 669 408 q 670 412 668 412 q 671 412 671 412 q 675 413 674 409 q 675 415 675 414 q 671 418 673 419 q 659 398 665 416 q 659 390 655 391 q 673 399 665 389 q 686 422 681 410 l 680 421 q 679 422 679 421 l 680 422 l 686 424 q 690 433 688 428 q 692 441 691 438 q 696 441 693 443 q 696 440 696 441 q 689 424 693 434 q 709 425 700 426 q 725 426 719 424 q 731 436 731 428 q 732 436 731 437 q 732 425 739 429 q 714 422 731 421 q 688 422 696 424 q 683 404 685 415 q 682 402 682 404 q 682 399 682 400 q 680 395 680 397 l 678 387 q 678 376 676 378 q 683 379 680 376 q 687 385 686 382 l 688 387 q 691 391 689 389 q 693 395 692 394 q 695 400 694 397 q 698 404 697 403 q 696 407 696 406 q 699 414 694 412 q 701 414 701 415 q 699 404 703 411 q 702 401 700 403 q 733 400 711 394 q 777 400 752 406 q 806 395 803 395 q 813 397 811 395 q 814 399 814 397 q 813 401 814 401 q 811 401 812 402 q 810 399 810 401 q 812 399 811 399 l 812 398 l 812 397 q 811 398 811 397 q 810 398 811 398 q 809 399 809 398 q 813 402 809 403 m 601 391 q 609 395 603 386 q 612 401 611 398 q 610 401 610 401 q 607 405 607 403 q 608 409 607 408 q 608 411 608 410 q 609 412 608 412 l 608 412 q 608 412 608 412 q 607 410 608 411 l 606 408 q 602 401 602 404 q 600 394 600 395 q 601 393 600 393 q 601 391 601 392 m 612 402 q 613 408 613 406 q 612 413 613 412 l 612 412 l 611 412 q 610 412 610 412 q 610 410 610 411 q 609 408 609 409 l 609 406 q 612 402 609 404 m 610 366 l 610 367 q 606 360 609 365 q 601 352 602 355 q 593 334 595 342 q 591 328 591 330 q 592 326 591 326 q 593 328 593 327 q 598 336 595 330 q 610 366 604 349 m 700 414 q 699 405 694 412 q 701 409 700 406 q 700 414 701 412 m 241 570 q 261 574 250 576 q 278 564 271 574 q 283 544 285 555 q 271 527 281 534 l 254 515 l 224 557 l 241 570 m 267 555 q 258 561 264 559 q 248 558 254 562 l 243 555 l 258 534 l 263 537 q 267 555 274 546 m 425 549 l 410 551 l 411 582 l 393 554 l 389 555 l 380 587 l 371 558 l 357 560 l 373 610 l 387 608 l 395 578 l 412 604 l 425 602 l 425 549 m 504 550 q 505 544 504 550 q 498 529 506 538 q 480 518 491 519 q 459 524 469 517 q 452 563 437 541 q 471 574 460 574 q 492 568 481 576 q 504 550 502 561 m 467 535 q 486 538 478 526 q 484 557 494 549 q 473 560 479 562 q 465 554 469 559 q 467 535 457 543 m 328 607 l 332 595 l 313 590 l 315 583 l 332 587 l 334 575 l 318 571 l 320 564 l 339 568 l 342 556 l 309 548 l 296 598 l 328 607 m 269 238 q 252 228 262 229 q 232 235 241 227 l 216 248 l 248 289 l 264 276 q 275 258 274 269 q 269 238 276 248 m 251 270 l 235 250 l 239 245 q 258 248 250 237 q 256 266 266 258 l 251 270 m 334 229 l 316 235 l 314 227 l 330 222 l 328 211 l 311 216 l 309 208 l 328 203 l 324 191 l 292 200 l 306 250 l 338 241 l 334 229 m 401 191 l 396 190 l 378 218 l 378 187 l 364 185 l 363 238 l 378 240 l 395 214 l 402 244 l 416 246 l 433 196 l 418 194 l 410 223 l 401 191 m 480 279 q 498 269 491 278 q 504 248 506 259 q 492 229 502 237 q 471 223 481 222 q 452 234 460 224 q 447 255 445 243 q 458 273 448 266 q 480 279 469 281 m 484 240 q 486 259 494 248 q 477 265 482 264 q 467 262 471 267 q 465 243 456 254 q 484 240 473 232 m 479 467 q 473 468 475 464 q 427 511 455 495 q 366 526 399 526 q 303 510 332 526 q 257 467 275 494 q 252 465 255 463 q 250 472 248 468 q 299 518 269 501 q 366 535 330 535 q 431 518 401 535 q 480 473 461 501 q 479 467 483 469 m 479 339 q 486 341 482 343 q 488 336 490 338 q 438 281 471 302 q 366 260 405 260 q 291 282 324 260 q 241 340 257 304 q 243 347 239 345 l 243 347 q 249 345 248 348 q 296 290 264 311 q 366 269 328 269 q 433 288 403 269 q 479 339 463 307 m 172 396 q 222 527 172 471 q 226 528 224 528 q 229 527 227 528 q 229 521 232 525 q 181 396 181 467 q 222 281 181 332 q 220 274 224 277 q 214 275 217 271 q 172 396 172 328 m 509 526 q 513 524 511 526 q 536 491 528 507 q 534 485 538 488 q 529 487 532 483 q 506 519 522 500 q 507 525 503 523 q 509 526 508 526 m 549 359 q 552 363 550 363 l 554 363 q 557 357 559 361 q 521 277 549 313 q 515 277 519 274 q 513 283 511 279 q 549 359 541 319 z "},"9":{"ha":892,"x_min":78,"x_max":815,"o":"m 612 285 q 619 275 617 281 q 618 264 621 269 q 514 153 582 195 q 364 111 446 111 q 162 195 245 111 q 78 397 78 279 q 162 600 78 516 q 364 684 245 684 q 514 643 446 684 q 618 532 582 601 q 619 520 621 526 q 612 511 617 514 q 600 509 606 507 q 591 517 594 511 q 497 616 558 579 q 364 654 437 654 q 183 579 258 654 q 109 397 109 504 q 183 216 109 291 q 364 142 258 142 q 497 179 437 142 q 591 278 558 216 q 600 286 594 283 q 612 285 607 288 m 570 520 q 564 522 566 518 q 479 603 532 573 q 364 632 427 632 q 198 563 267 632 q 130 397 130 494 q 198 232 130 300 q 364 163 267 163 q 479 193 427 163 q 564 273 532 222 q 570 275 566 277 q 571 269 574 272 q 483 185 538 216 q 364 154 429 154 q 192 225 263 154 q 121 397 121 297 q 192 570 121 498 q 364 642 264 642 q 483 611 429 642 q 571 527 538 580 q 570 520 574 523 m 397 437 l 397 386 q 385 378 391 385 l 385 437 q 383 445 385 442 q 380 448 382 447 q 374 449 378 449 l 374 452 q 381 451 375 452 q 391 451 387 451 q 400 451 395 451 q 407 452 406 452 l 407 449 q 400 448 403 449 q 397 445 398 447 q 397 437 397 444 m 374 358 l 374 361 q 380 362 378 361 q 383 365 382 363 q 389 374 385 370 q 395 378 392 378 l 397 380 l 397 372 q 397 365 397 366 q 400 362 398 363 q 407 361 403 361 l 407 358 q 400 358 406 358 q 391 359 395 359 q 381 358 387 359 q 374 358 375 358 m 273 418 q 265 409 271 413 q 250 403 257 404 l 252 403 q 261 400 259 401 q 267 395 264 398 q 270 386 269 391 l 273 372 q 275 366 275 367 q 277 362 277 363 q 280 361 278 361 q 283 362 283 361 l 288 366 l 290 365 q 283 359 286 361 q 275 357 281 357 q 267 359 269 357 q 261 371 263 363 l 258 384 q 256 390 258 387 q 255 395 255 393 q 251 400 254 398 q 243 403 247 403 l 231 403 l 231 372 q 232 365 231 368 q 235 362 233 363 q 241 361 237 361 l 241 358 q 235 358 240 358 q 225 359 229 359 q 215 358 221 359 q 208 358 210 358 l 208 361 q 215 362 212 361 q 218 365 217 363 q 218 372 218 366 l 218 437 q 218 445 218 444 q 215 448 217 447 q 208 449 212 449 l 208 452 q 215 451 210 452 q 224 451 220 451 l 235 451 l 244 451 q 261 448 255 451 q 272 440 268 446 q 275 429 275 436 q 273 418 275 423 m 254 408 q 260 416 258 411 q 262 427 262 420 q 257 444 262 438 q 241 449 252 449 q 235 448 237 449 q 232 445 233 447 q 231 437 231 442 l 231 405 l 239 405 q 254 408 248 405 m 348 362 q 350 366 350 363 q 348 372 350 368 l 340 393 l 339 396 l 324 435 l 309 396 l 309 393 l 303 380 q 300 369 300 374 q 303 363 300 365 q 312 361 307 361 l 312 358 q 305 358 310 358 q 297 359 300 359 q 292 358 295 359 q 287 358 288 358 l 287 361 q 297 372 293 361 l 328 452 l 330 452 l 362 370 q 372 361 366 361 l 372 358 q 366 358 370 358 q 357 359 361 359 q 348 358 353 359 q 340 358 342 358 l 340 361 q 348 362 345 361 m 458 402 q 466 393 463 399 q 469 381 469 389 q 465 368 469 373 q 455 359 461 362 q 441 357 450 357 q 431 358 436 357 q 423 361 429 358 q 418 363 420 363 l 416 361 q 416 357 416 361 l 412 357 q 413 389 413 362 l 416 389 q 422 368 417 375 q 440 359 429 359 q 448 361 444 359 q 454 367 452 363 q 457 376 457 372 q 454 386 457 380 q 448 393 452 390 q 437 401 441 399 q 424 409 425 408 q 416 418 420 412 q 413 430 413 423 q 416 443 413 437 q 425 450 420 448 q 438 453 431 453 q 445 452 443 453 q 450 450 447 452 l 454 448 q 458 446 457 446 q 460 448 459 446 q 461 452 461 448 l 465 452 q 464 425 464 446 l 460 425 q 458 437 460 429 q 450 447 456 444 q 439 450 446 450 q 431 448 435 450 q 425 443 428 447 q 423 435 423 439 q 427 424 423 428 q 437 416 433 418 q 442 412 439 414 l 445 411 q 458 402 456 404 m 498 375 l 518 443 q 520 444 518 444 l 521 444 l 521 443 l 522 442 l 522 441 l 499 374 q 498 374 499 374 q 498 374 498 374 l 498 375 m 545 397 q 528 394 534 394 l 524 394 q 522 394 524 394 q 519 395 520 395 q 511 398 512 395 q 513 400 511 399 q 517 401 514 401 q 547 404 536 401 q 564 414 557 406 q 569 434 569 420 l 569 435 l 569 435 l 569 435 l 569 435 l 569 435 l 569 435 l 569 435 l 570 435 l 570 435 l 570 435 l 570 435 l 570 435 l 570 435 l 570 435 l 570 434 q 565 414 570 421 q 547 403 559 406 q 517 400 536 400 q 515 400 516 400 l 514 399 q 517 396 511 397 q 521 395 519 395 l 528 395 q 545 397 536 395 q 561 405 553 399 q 573 416 569 410 q 578 431 578 422 q 575 442 578 437 q 568 450 572 446 q 559 455 563 454 q 551 458 551 458 q 536 460 541 460 q 524 459 528 460 q 518 458 522 458 q 512 456 514 457 q 501 453 508 456 q 496 451 499 452 q 492 449 494 450 q 490 448 491 449 q 488 447 488 448 q 487 446 488 446 q 486 446 486 446 l 483 444 q 475 435 477 438 q 472 426 472 431 l 472 425 q 481 411 473 416 q 502 412 489 405 l 502 412 l 503 412 l 503 412 l 503 412 l 503 412 l 503 411 l 503 411 l 503 411 l 503 411 l 503 410 l 503 410 l 503 410 l 503 410 q 479 410 490 403 q 471 423 473 415 l 471 424 l 471 425 l 471 425 l 471 427 q 472 433 471 429 q 474 438 473 435 q 477 441 475 439 l 478 443 l 481 446 l 484 448 q 496 455 492 453 q 510 460 503 458 q 514 461 512 460 q 520 461 517 461 q 524 462 523 462 q 537 463 529 463 q 547 462 544 463 q 557 459 554 460 q 565 455 563 457 q 573 448 572 450 q 578 439 577 443 q 579 431 579 433 q 577 420 579 425 q 572 413 575 416 q 570 411 571 412 q 569 410 569 410 q 567 408 568 409 q 566 407 566 408 q 561 404 564 406 q 545 397 553 399 m 633 427 l 632 427 l 632 429 l 633 431 q 634 433 633 433 l 635 432 l 635 431 l 634 428 q 633 427 634 427 m 813 402 q 815 399 815 400 q 814 396 815 397 q 806 393 812 395 q 777 399 805 393 q 734 399 753 405 q 702 400 712 393 q 699 403 699 401 l 694 395 l 692 391 l 690 387 l 687 383 q 685 381 686 382 q 684 378 684 379 q 677 376 680 375 q 677 389 675 376 q 678 393 678 390 q 679 397 678 396 l 681 406 q 682 409 681 407 q 683 413 682 412 q 676 401 679 406 q 668 392 673 397 q 659 388 663 387 q 656 390 659 388 q 655 398 654 393 l 651 392 q 642 383 646 385 q 634 386 636 380 q 633 399 632 392 q 615 374 621 384 l 612 365 q 600 335 610 359 q 595 326 597 328 q 593 325 595 326 l 593 324 q 592 323 593 323 q 591 324 591 323 q 589 328 589 327 q 591 334 589 329 q 600 353 593 341 q 614 375 606 363 q 619 391 616 380 q 624 404 623 401 q 621 401 623 403 q 618 399 621 400 q 613 400 615 397 l 612 398 q 611 397 611 397 q 610 395 610 395 q 608 392 610 393 q 607 391 608 392 q 606 390 606 391 q 600 391 601 388 q 600 401 598 395 q 599 400 600 400 q 597 399 598 400 q 595 399 597 399 q 593 399 594 399 q 595 410 593 401 q 584 399 589 405 q 576 387 581 394 l 575 386 l 574 387 l 574 387 q 578 401 575 392 q 580 409 578 404 q 583 416 582 414 q 526 385 564 387 l 525 385 l 525 385 l 525 385 l 525 385 l 524 385 l 524 386 l 524 386 l 525 386 l 525 387 l 525 387 l 525 387 l 526 387 q 585 425 567 387 l 586 425 q 587 426 586 426 l 588 425 l 588 425 l 588 425 l 586 420 l 581 406 q 580 402 581 405 q 578 399 579 400 q 578 395 578 397 q 577 391 578 393 q 581 396 578 393 q 583 401 583 399 q 591 410 589 408 l 595 414 l 597 415 l 597 416 l 598 416 l 600 416 l 600 414 q 598 412 600 414 q 597 410 597 411 q 595 400 593 401 q 600 404 598 400 q 611 416 604 415 q 613 414 613 416 q 614 411 614 412 l 614 409 l 614 407 l 614 406 l 614 404 l 614 403 l 613 401 l 614 401 q 620 401 616 398 q 623 406 622 403 q 626 410 625 407 l 626 410 l 627 411 q 627 412 627 412 l 627 412 l 628 411 l 628 411 l 628 410 q 618 381 623 394 q 633 403 623 388 l 635 405 q 640 415 637 411 q 648 419 644 420 q 650 410 652 417 q 642 396 646 397 q 639 397 640 396 l 639 399 l 640 399 q 642 397 640 397 q 646 404 644 397 l 646 405 q 647 416 651 415 q 641 411 645 417 q 636 398 637 405 q 637 386 635 391 q 645 387 640 382 q 654 399 646 389 q 656 400 655 399 q 656 402 656 401 l 656 404 q 672 419 661 419 q 676 417 675 419 q 675 412 677 414 q 671 409 674 410 q 668 410 669 408 q 670 412 668 412 q 671 412 671 412 q 675 413 674 409 q 675 415 675 414 q 671 418 673 419 q 659 398 665 416 q 659 390 655 391 q 673 399 665 389 q 686 422 681 410 l 680 421 q 679 422 679 421 l 680 422 l 686 424 q 690 433 688 428 q 692 441 691 438 q 696 441 693 443 q 696 440 696 441 q 689 424 693 434 q 709 425 700 426 q 725 426 719 424 q 731 436 731 428 q 732 436 731 437 q 732 425 739 429 q 714 422 731 421 q 688 422 696 424 q 683 404 685 415 q 682 402 682 404 q 682 399 682 400 q 680 395 680 397 l 678 387 q 678 376 676 378 q 683 379 680 376 q 687 385 686 382 l 688 387 q 691 391 689 389 q 693 395 692 394 q 695 400 694 397 q 698 404 697 403 q 696 407 696 406 q 699 414 694 412 q 701 414 701 415 q 699 404 703 411 q 702 401 700 403 q 733 400 711 394 q 777 400 752 406 q 806 395 803 395 q 813 397 811 395 q 814 399 814 397 q 813 401 814 401 q 811 401 812 402 q 810 399 810 401 q 812 399 811 399 l 812 398 l 812 397 q 811 398 811 397 q 810 398 811 398 q 809 399 809 398 q 813 402 809 403 m 601 391 q 609 395 603 386 q 612 401 611 398 q 610 401 610 401 q 607 405 607 403 q 608 409 607 408 q 608 411 608 410 q 609 412 608 412 l 608 412 q 608 412 608 412 q 607 410 608 411 l 606 408 q 602 401 602 404 q 600 394 600 395 q 601 393 600 393 q 601 391 601 392 m 612 402 q 613 408 613 406 q 612 413 613 412 l 612 412 l 611 412 q 610 412 610 412 q 610 410 610 411 q 609 408 609 409 l 609 406 q 612 402 609 404 m 610 366 l 610 367 q 606 360 609 365 q 601 352 602 355 q 593 334 595 342 q 591 328 591 330 q 592 326 591 326 q 593 328 593 327 q 598 336 595 330 q 610 366 604 349 m 700 414 q 699 405 694 412 q 701 409 700 406 q 700 414 701 412 m 504 550 q 505 544 504 550 q 498 529 506 538 q 480 518 491 519 q 459 524 469 517 q 452 563 437 541 q 471 574 460 574 q 492 568 481 576 q 504 550 502 561 m 467 535 q 486 538 478 526 q 484 557 494 549 q 473 560 479 562 q 465 554 469 559 q 467 535 457 543 m 241 570 q 261 574 250 576 q 278 564 271 574 q 283 544 285 555 q 271 527 281 534 l 254 515 l 224 557 l 241 570 m 267 555 q 258 561 264 559 q 248 558 254 562 l 243 555 l 258 534 l 263 537 q 267 555 274 546 m 328 607 l 332 595 l 313 590 l 315 583 l 332 587 l 334 575 l 318 571 l 320 564 l 339 568 l 342 556 l 309 548 l 296 598 l 328 607 m 425 549 l 410 551 l 411 582 l 393 554 l 389 555 l 380 587 l 371 558 l 357 560 l 373 610 l 387 608 l 395 578 l 412 604 l 425 602 l 425 549 m 269 238 q 252 228 262 229 q 232 235 241 227 l 216 248 l 248 289 l 264 276 q 275 258 274 269 q 269 238 276 248 m 251 270 l 235 250 l 239 245 q 258 248 250 237 q 256 266 266 258 l 251 270 m 401 191 l 396 190 l 378 218 l 378 187 l 364 185 l 363 238 l 378 240 l 395 214 l 402 244 l 416 246 l 433 196 l 418 194 l 410 223 l 401 191 m 480 279 q 498 269 491 278 q 504 248 506 259 q 492 229 502 237 q 471 223 481 222 q 452 234 460 224 q 447 254 445 243 q 458 273 448 265 q 480 279 470 281 m 484 240 q 486 259 494 248 q 477 265 482 264 q 467 262 471 267 q 465 243 456 254 q 484 240 473 232 m 334 229 l 316 235 l 314 227 l 330 222 l 328 211 l 311 216 l 309 208 l 328 203 l 324 191 l 292 200 l 306 250 l 338 241 l 334 229 m 479 467 q 473 468 475 464 q 427 511 455 495 q 366 526 399 526 q 303 510 332 526 q 257 467 275 494 q 252 465 255 463 q 250 472 248 468 q 299 518 269 501 q 366 535 330 535 q 431 518 401 535 q 480 473 461 501 q 479 467 483 469 m 479 339 q 486 341 482 343 q 488 336 490 338 q 438 281 471 302 q 366 260 405 260 q 291 282 324 260 q 241 340 257 304 q 243 347 239 345 l 243 347 q 249 345 248 348 q 296 290 264 311 q 366 269 328 269 q 433 288 403 269 q 479 339 463 307 m 509 526 q 513 524 511 526 q 536 491 528 507 q 534 485 538 488 q 529 486 531 483 q 506 519 521 502 q 507 525 503 523 q 509 526 508 526 m 172 396 q 222 527 172 471 q 226 528 224 528 q 229 527 227 528 q 229 521 232 525 q 181 396 181 467 q 222 281 181 332 q 220 274 224 277 q 214 275 217 271 q 172 396 172 328 m 549 359 q 552 363 550 363 l 554 363 q 557 357 559 361 q 521 277 549 313 q 515 277 519 274 q 513 283 511 279 q 549 359 541 319 z "},"\u0000":{"ha":0,"x_min":0,"x_max":0,"o":""},"\n":{"ha":0,"x_min":0,"x_max":0,"o":""},"\r":{"ha":0,"x_min":0,"x_max":0,"o":""}," ":{"ha":497,"x_min":0,"x_max":0,"o":""},"!":{"ha":892,"x_min":78,"x_max":815,"o":"m 612 285 q 619 275 617 281 q 618 264 621 269 q 514 153 582 195 q 364 111 446 111 q 162 195 245 111 q 78 397 78 279 q 162 600 78 516 q 364 684 245 684 q 514 643 446 684 q 618 532 582 601 q 619 520 621 526 q 612 511 617 514 q 600 509 606 507 q 591 517 594 511 q 497 616 558 579 q 364 654 437 654 q 183 579 258 654 q 109 397 109 504 q 183 216 109 291 q 364 142 258 142 q 497 179 437 142 q 591 278 558 216 q 600 286 594 283 q 612 285 607 288 m 570 520 q 564 522 566 518 q 479 603 532 573 q 364 632 427 632 q 198 563 267 632 q 130 397 130 494 q 198 232 130 300 q 364 163 267 163 q 479 193 427 163 q 564 273 532 222 q 570 275 566 277 q 571 269 574 272 q 483 185 538 216 q 364 154 429 154 q 192 225 263 154 q 121 397 121 297 q 192 570 121 498 q 364 642 264 642 q 483 611 429 642 q 571 527 538 580 q 570 520 574 523 m 397 437 l 397 386 q 385 378 391 385 l 385 437 q 383 445 385 442 q 380 448 382 447 q 374 449 378 449 l 374 452 q 381 451 375 452 q 391 451 387 451 q 400 451 395 451 q 407 452 406 452 l 407 449 q 400 448 403 449 q 397 445 398 447 q 397 437 397 444 m 374 358 l 374 361 q 380 362 378 361 q 383 365 382 363 q 389 374 385 370 q 395 378 392 378 l 397 380 l 397 372 q 397 365 397 366 q 400 362 398 363 q 407 361 403 361 l 407 358 q 400 358 406 358 q 391 359 395 359 q 381 358 387 359 q 374 358 375 358 m 273 418 q 265 409 271 413 q 250 403 257 404 l 252 403 q 261 400 259 401 q 267 395 264 398 q 270 386 269 391 l 273 372 q 275 366 275 367 q 277 362 277 363 q 280 361 278 361 q 283 362 283 361 l 288 366 l 290 365 q 283 359 286 361 q 275 357 281 357 q 267 359 269 357 q 261 371 263 363 l 258 384 q 256 390 258 387 q 255 395 255 393 q 251 400 254 398 q 243 403 247 403 l 231 403 l 231 372 q 232 365 231 368 q 235 362 233 363 q 241 361 237 361 l 241 358 q 235 358 240 358 q 225 359 229 359 q 215 358 221 359 q 208 358 210 358 l 208 361 q 215 362 212 361 q 218 365 217 363 q 218 372 218 366 l 218 437 q 218 445 218 444 q 215 448 217 447 q 208 449 212 449 l 208 452 q 215 451 210 452 q 224 451 220 451 l 235 451 l 244 451 q 261 448 255 451 q 272 440 268 446 q 275 429 275 436 q 273 418 275 423 m 254 408 q 260 416 258 411 q 262 427 262 420 q 257 444 262 438 q 241 449 252 449 q 235 448 237 449 q 232 445 233 447 q 231 437 231 442 l 231 405 l 239 405 q 254 408 248 405 m 348 362 q 350 366 350 363 q 348 372 350 368 l 340 393 l 339 396 l 324 435 l 309 396 l 309 393 l 303 380 q 300 369 300 374 q 303 363 300 365 q 312 361 307 361 l 312 358 q 305 358 310 358 q 297 359 300 359 q 292 358 295 359 q 287 358 288 358 l 287 361 q 297 372 293 361 l 328 452 l 330 452 l 362 370 q 372 361 366 361 l 372 358 q 366 358 370 358 q 357 359 361 359 q 348 358 353 359 q 340 358 342 358 l 340 361 q 348 362 345 361 m 458 402 q 466 393 463 399 q 469 381 469 389 q 465 368 469 373 q 455 359 461 362 q 441 357 450 357 q 431 358 436 357 q 423 361 429 358 q 418 363 420 363 l 416 361 q 416 357 416 361 l 412 357 q 413 389 413 362 l 416 389 q 422 368 417 375 q 440 359 429 359 q 448 361 444 359 q 454 367 452 363 q 457 376 457 372 q 454 386 457 380 q 448 393 452 390 q 437 401 441 399 q 424 409 425 408 q 416 418 420 412 q 413 430 413 423 q 416 443 413 437 q 425 450 420 448 q 438 453 431 453 q 445 452 443 453 q 450 450 447 452 l 454 448 q 458 446 457 446 q 460 448 459 446 q 461 452 461 448 l 465 452 q 464 425 464 446 l 460 425 q 458 437 460 429 q 450 447 456 444 q 439 450 446 450 q 431 448 435 450 q 425 443 428 447 q 423 435 423 439 q 427 424 423 428 q 437 416 433 418 q 442 412 439 414 l 445 411 q 458 402 456 404 m 545 397 q 528 394 534 394 l 524 394 q 522 394 524 394 q 519 395 520 395 q 511 398 512 395 q 513 400 511 399 q 517 401 514 401 q 547 404 536 401 q 564 414 557 406 q 569 434 569 420 l 569 435 l 569 435 l 569 435 l 569 435 l 569 435 l 569 435 l 569 435 l 570 435 l 570 435 l 570 435 l 570 435 l 570 435 l 570 435 l 570 435 l 570 434 q 565 414 570 421 q 547 403 559 406 q 517 400 536 400 q 515 400 516 400 l 514 399 q 517 396 511 397 q 521 395 519 395 l 528 395 q 545 397 536 395 q 561 405 553 399 q 573 416 569 410 q 578 431 578 422 q 575 442 578 437 q 568 450 572 446 q 559 455 563 454 q 551 458 551 458 q 536 460 541 460 q 524 459 528 460 q 518 458 522 458 q 512 456 514 457 q 501 453 508 456 q 496 451 499 452 q 492 449 494 450 q 490 448 491 449 q 488 447 488 448 q 487 446 488 446 q 486 446 486 446 l 483 444 q 475 435 477 438 q 472 426 472 431 l 472 425 q 481 411 473 416 q 502 412 489 405 l 502 412 l 503 412 l 503 412 l 503 412 l 503 412 l 503 411 l 503 411 l 503 411 l 503 411 l 503 410 l 503 410 l 503 410 l 503 410 q 479 410 490 403 q 471 423 473 415 l 471 424 l 471 425 l 471 425 l 471 427 q 472 433 471 429 q 474 438 473 435 q 477 441 475 439 l 478 443 l 481 446 l 484 448 q 496 455 492 453 q 510 460 503 458 q 514 461 512 460 q 520 461 517 461 q 524 462 523 462 q 537 463 529 463 q 547 462 544 463 q 557 459 554 460 q 565 455 563 457 q 573 448 572 450 q 578 439 577 443 q 579 431 579 433 q 577 420 579 425 q 572 413 575 416 q 570 411 571 412 q 569 410 569 410 q 567 408 568 409 q 566 407 566 408 q 561 404 564 406 q 545 397 553 399 m 498 375 l 518 443 q 520 444 518 444 l 521 444 l 521 443 l 522 442 l 522 441 l 499 374 q 498 374 499 374 q 498 374 498 374 l 498 375 m 633 427 l 632 427 l 632 429 l 633 431 q 634 433 633 433 l 635 432 l 635 431 l 634 428 q 633 427 634 427 m 813 402 q 815 399 815 400 q 814 396 815 397 q 806 393 812 395 q 777 399 805 393 q 734 399 753 405 q 702 400 712 393 q 699 403 699 401 l 694 395 l 692 391 l 690 387 l 687 383 q 685 381 686 382 q 684 378 684 379 q 677 376 680 375 q 677 389 675 376 q 678 393 678 390 q 679 397 678 396 l 681 406 q 682 409 681 407 q 683 413 682 412 q 676 401 679 406 q 668 392 673 397 q 659 388 663 387 q 656 390 659 388 q 655 398 654 393 l 651 392 q 642 383 646 385 q 634 386 636 380 q 633 399 632 392 q 615 374 621 384 l 612 365 q 600 335 610 359 q 595 326 597 328 q 593 325 595 326 l 593 324 q 592 323 593 323 q 591 324 591 323 q 589 328 589 327 q 591 334 589 329 q 600 353 593 341 q 614 375 606 363 q 619 391 616 380 q 624 404 623 401 q 621 401 623 403 q 618 399 621 400 q 613 400 615 397 l 612 398 q 611 397 611 397 q 610 395 610 395 q 608 392 610 393 q 607 391 608 392 q 606 390 606 391 q 600 391 601 388 q 600 401 598 395 q 599 400 600 400 q 597 399 598 400 q 595 399 597 399 q 593 399 594 399 q 595 410 593 401 q 584 399 589 405 q 576 387 581 394 l 575 386 l 574 387 l 574 387 q 578 401 575 392 q 580 409 578 404 q 583 416 582 414 q 526 385 564 387 l 525 385 l 525 385 l 525 385 l 525 385 l 524 385 l 524 386 l 524 386 l 525 386 l 525 387 l 525 387 l 525 387 l 526 387 q 585 425 567 387 l 586 425 q 587 426 586 426 l 588 425 l 588 425 l 588 425 l 586 420 l 581 406 q 580 402 581 405 q 578 399 579 400 q 578 395 578 397 q 577 391 578 393 q 581 396 578 393 q 583 401 583 399 q 591 410 589 408 l 595 414 l 597 415 l 597 416 l 598 416 l 600 416 l 600 414 q 598 412 600 414 q 597 410 597 411 q 595 400 593 401 q 600 404 598 400 q 611 416 604 415 q 613 414 613 416 q 614 411 614 412 l 614 409 l 614 407 l 614 406 l 614 404 l 614 403 l 613 401 l 614 401 q 620 401 616 398 q 623 406 622 403 q 626 410 625 407 l 626 410 l 627 411 q 627 412 627 412 l 627 412 l 628 411 l 628 411 l 628 410 q 618 381 623 394 q 633 403 623 388 l 635 405 q 640 415 637 411 q 648 419 644 420 q 650 410 652 417 q 642 396 646 397 q 639 397 640 396 l 639 399 l 640 399 q 642 397 640 397 q 646 404 644 397 l 646 405 q 647 416 651 415 q 641 411 645 417 q 636 398 637 405 q 637 386 635 391 q 645 387 640 382 q 654 399 646 389 q 656 400 655 399 q 656 402 656 401 l 656 404 q 672 419 661 419 q 676 417 675 419 q 675 412 677 414 q 671 409 674 410 q 668 410 669 408 q 670 412 668 412 q 671 412 671 412 q 675 413 674 409 q 675 415 675 414 q 671 418 673 419 q 659 398 665 416 q 659 390 655 391 q 673 399 665 389 q 686 422 681 410 l 680 421 q 679 422 679 421 l 680 422 l 686 424 q 690 433 688 428 q 692 441 691 438 q 696 441 693 443 q 696 440 696 441 q 689 424 693 434 q 709 425 700 426 q 725 426 719 424 q 731 436 731 428 q 732 436 731 437 q 732 425 739 429 q 714 422 731 421 q 688 422 696 424 q 683 404 685 415 q 682 402 682 404 q 682 399 682 400 q 680 395 680 397 l 678 387 q 678 376 676 378 q 683 379 680 376 q 687 385 686 382 l 688 387 q 691 391 689 389 q 693 395 692 394 q 695 400 694 397 q 698 404 697 403 q 696 407 696 406 q 699 414 694 412 q 701 414 701 415 q 699 404 703 411 q 702 401 700 403 q 733 400 711 394 q 777 400 752 406 q 806 395 803 395 q 813 397 811 395 q 814 399 814 397 q 813 401 814 401 q 811 401 812 402 q 810 399 810 401 q 812 399 811 399 l 812 398 l 812 397 q 811 398 811 397 q 810 398 811 398 q 809 399 809 398 q 813 402 809 403 m 601 391 q 609 395 603 386 q 612 401 611 398 q 610 401 610 401 q 607 405 607 403 q 608 409 607 408 q 608 411 608 410 q 609 412 608 412 l 608 412 q 608 412 608 412 q 607 410 608 411 l 606 408 q 602 401 602 404 q 600 394 600 395 q 601 393 600 393 q 601 391 601 392 m 612 402 q 613 408 613 406 q 612 413 613 412 l 612 412 l 611 412 q 610 412 610 412 q 610 410 610 411 q 609 408 609 409 l 609 406 q 612 402 609 404 m 610 366 l 610 367 q 606 360 609 365 q 601 352 602 355 q 593 334 595 342 q 591 328 591 330 q 592 326 591 326 q 593 328 593 327 q 598 336 595 330 q 610 366 604 349 m 700 414 q 699 405 694 412 q 701 409 700 406 q 700 414 701 412 m 425 549 l 410 551 l 411 582 l 393 554 l 389 555 l 380 587 l 371 558 l 357 560 l 373 610 l 387 608 l 395 578 l 412 604 l 425 602 l 425 549 m 328 607 l 332 595 l 313 590 l 315 583 l 332 587 l 334 575 l 318 571 l 320 564 l 339 568 l 342 556 l 309 548 l 296 598 l 328 607 m 504 550 q 505 544 504 550 q 498 529 506 538 q 480 518 491 519 q 459 524 469 517 q 452 563 437 541 q 471 574 460 574 q 492 568 481 576 q 504 550 502 561 m 467 535 q 486 538 478 526 q 484 557 494 549 q 473 560 479 562 q 465 554 469 559 q 467 535 457 543 m 241 570 q 261 574 250 576 q 278 564 271 574 q 283 544 285 555 q 271 527 281 534 l 254 515 l 224 557 l 241 570 m 267 555 q 258 561 264 559 q 248 558 254 562 l 243 555 l 258 534 l 263 537 q 267 555 274 546 m 334 229 l 316 235 l 314 227 l 330 222 l 328 211 l 311 216 l 309 208 l 328 203 l 324 191 l 292 200 l 306 250 l 338 241 l 334 229 m 269 238 q 252 228 262 229 q 232 235 241 227 l 216 248 l 248 289 l 264 276 q 275 258 274 269 q 269 238 276 248 m 251 270 l 235 250 l 239 245 q 258 248 250 237 q 256 266 266 258 l 251 270 m 401 191 l 396 190 l 378 218 l 378 187 l 364 185 l 363 238 l 378 240 l 395 214 l 402 244 l 416 246 l 433 196 l 418 194 l 410 223 l 401 191 m 480 279 q 498 269 491 278 q 504 248 506 259 q 492 229 502 237 q 471 223 481 222 q 452 234 460 224 q 447 255 445 243 q 458 273 448 266 q 480 279 469 281 m 484 240 q 486 259 494 248 q 477 265 482 264 q 467 262 471 267 q 465 243 456 254 q 484 240 473 232 m 479 467 q 473 468 475 464 q 427 511 455 495 q 366 526 399 526 q 303 510 332 526 q 257 467 275 494 q 252 465 255 463 q 250 472 248 468 q 299 518 269 501 q 366 535 330 535 q 431 518 401 535 q 480 473 461 501 q 479 467 483 469 m 479 339 q 486 341 482 343 q 488 336 490 338 q 438 281 471 302 q 366 260 405 260 q 291 282 324 260 q 241 340 257 304 q 243 347 239 345 l 243 347 q 249 345 248 348 q 296 290 264 311 q 366 269 328 269 q 433 288 403 269 q 479 339 463 307 m 172 396 q 222 527 172 471 q 226 528 224 528 q 229 527 227 528 q 229 521 232 525 q 181 396 181 467 q 222 281 181 332 q 220 274 224 277 q 214 275 217 271 q 172 396 172 328 m 509 526 q 513 524 511 526 q 536 491 528 507 q 534 485 538 488 q 529 487 532 483 q 506 519 522 500 q 507 525 503 523 q 509 526 508 526 m 549 359 q 552 363 550 363 l 554 363 q 557 357 559 361 q 521 277 549 313 q 515 277 519 274 q 513 283 511 279 q 549 359 541 319 z "},"\"":{"ha":892,"x_min":78,"x_max":815,"o":"m 612 285 q 619 275 617 281 q 618 264 621 269 q 514 153 582 195 q 364 111 446 111 q 162 195 245 111 q 78 397 78 279 q 162 600 78 516 q 364 684 245 684 q 514 643 446 684 q 618 532 582 601 q 619 520 621 526 q 612 511 617 514 q 600 509 606 507 q 591 517 594 511 q 497 616 558 579 q 364 654 437 654 q 183 579 258 654 q 109 397 109 504 q 183 216 109 291 q 364 142 258 142 q 497 179 437 142 q 591 278 558 216 q 600 286 594 283 q 612 285 607 288 m 570 520 q 564 522 566 518 q 479 603 532 573 q 364 632 427 632 q 198 563 267 632 q 130 397 130 494 q 198 232 130 300 q 364 163 267 163 q 479 193 427 163 q 564 273 532 222 q 570 275 566 277 q 571 269 574 272 q 483 185 538 216 q 364 154 429 154 q 192 225 263 154 q 121 397 121 297 q 192 570 121 498 q 364 642 264 642 q 483 611 429 642 q 571 527 538 580 q 570 520 574 523 m 397 437 l 397 386 q 385 378 391 385 l 385 437 q 383 445 385 442 q 380 448 382 447 q 374 449 378 449 l 374 452 q 381 451 375 452 q 391 451 387 451 q 400 451 395 451 q 407 452 406 452 l 407 449 q 400 448 403 449 q 397 445 398 447 q 397 437 397 444 m 374 358 l 374 361 q 380 362 378 361 q 383 365 382 363 q 389 374 385 370 q 395 378 392 378 l 397 380 l 397 372 q 397 365 397 366 q 400 362 398 363 q 407 361 403 361 l 407 358 q 400 358 406 358 q 391 359 395 359 q 381 358 387 359 q 374 358 375 358 m 273 418 q 265 409 271 413 q 250 403 257 404 l 252 403 q 261 400 259 401 q 267 395 264 398 q 270 386 269 391 l 273 372 q 275 366 275 367 q 277 362 277 363 q 280 361 278 361 q 283 362 283 361 l 288 366 l 290 365 q 283 359 286 361 q 275 357 281 357 q 267 359 269 357 q 261 371 263 363 l 258 384 q 256 390 258 387 q 255 395 255 393 q 251 400 254 398 q 243 403 247 403 l 231 403 l 231 372 q 232 365 231 368 q 235 362 233 363 q 241 361 237 361 l 241 358 q 235 358 240 358 q 225 359 229 359 q 215 358 221 359 q 208 358 210 358 l 208 361 q 215 362 212 361 q 218 365 217 363 q 218 372 218 366 l 218 437 q 218 445 218 444 q 215 448 217 447 q 208 449 212 449 l 208 452 q 215 451 210 452 q 224 451 220 451 l 235 451 l 244 451 q 261 448 255 451 q 272 440 268 446 q 275 429 275 436 q 273 418 275 423 m 254 408 q 260 416 258 411 q 262 427 262 420 q 257 444 262 438 q 241 449 252 449 q 235 448 237 449 q 232 445 233 447 q 231 437 231 442 l 231 405 l 239 405 q 254 408 248 405 m 348 362 q 350 366 350 363 q 348 372 350 368 l 340 393 l 339 396 l 324 435 l 309 396 l 309 393 l 303 380 q 300 369 300 374 q 303 363 300 365 q 312 361 307 361 l 312 358 q 305 358 310 358 q 297 359 300 359 q 292 358 295 359 q 287 358 288 358 l 287 361 q 297 372 293 361 l 328 452 l 330 452 l 362 370 q 372 361 366 361 l 372 358 q 366 358 370 358 q 357 359 361 359 q 348 358 353 359 q 340 358 342 358 l 340 361 q 348 362 345 361 m 458 402 q 466 393 463 399 q 469 381 469 389 q 465 368 469 373 q 455 359 461 362 q 441 357 450 357 q 431 358 436 357 q 423 361 429 358 q 418 363 420 363 l 416 361 q 416 357 416 361 l 412 357 q 413 389 413 362 l 416 389 q 422 368 417 375 q 440 359 429 359 q 448 361 444 359 q 454 367 452 363 q 457 376 457 372 q 454 386 457 380 q 448 393 452 390 q 437 401 441 399 q 424 409 425 408 q 416 418 420 412 q 413 430 413 423 q 416 443 413 437 q 425 450 420 448 q 438 453 431 453 q 445 452 443 453 q 450 450 447 452 l 454 448 q 458 446 457 446 q 460 448 459 446 q 461 452 461 448 l 465 452 q 464 425 464 446 l 460 425 q 458 437 460 429 q 450 447 456 444 q 439 450 446 450 q 431 448 435 450 q 425 443 428 447 q 423 435 423 439 q 427 424 423 428 q 437 416 433 418 q 442 412 439 414 l 445 411 q 458 402 456 404 m 545 397 q 528 394 534 394 l 524 394 q 522 394 524 394 q 519 395 520 395 q 511 398 512 395 q 513 400 511 399 q 517 401 514 401 q 547 404 536 401 q 564 414 557 406 q 569 434 569 420 l 569 435 l 569 435 l 569 435 l 569 435 l 569 435 l 569 435 l 569 435 l 570 435 l 570 435 l 570 435 l 570 435 l 570 435 l 570 435 l 570 435 l 570 434 q 565 414 570 421 q 547 403 559 406 q 517 400 536 400 q 515 400 516 400 l 514 399 q 517 396 511 397 q 521 395 519 395 l 528 395 q 545 397 536 395 q 561 405 553 399 q 573 416 569 410 q 578 431 578 422 q 575 442 578 437 q 568 450 572 446 q 559 455 563 454 q 551 458 551 458 q 536 460 541 460 q 524 459 528 460 q 518 458 522 458 q 512 456 514 457 q 501 453 508 456 q 496 451 499 452 q 492 449 494 450 q 490 448 491 449 q 488 447 488 448 q 487 446 488 446 q 486 446 486 446 l 483 444 q 475 435 477 438 q 472 426 472 431 l 472 425 q 481 411 473 416 q 502 412 489 405 l 502 412 l 503 412 l 503 412 l 503 412 l 503 412 l 503 411 l 503 411 l 503 411 l 503 411 l 503 410 l 503 410 l 503 410 l 503 410 q 479 410 490 403 q 471 423 473 415 l 471 424 l 471 425 l 471 425 l 471 427 q 472 433 471 429 q 474 438 473 435 q 477 441 475 439 l 478 443 l 481 446 l 484 448 q 496 455 492 453 q 510 460 503 458 q 514 461 512 460 q 520 461 517 461 q 524 462 523 462 q 537 463 529 463 q 547 462 544 463 q 557 459 554 460 q 565 455 563 457 q 573 448 572 450 q 578 439 577 443 q 579 431 579 433 q 577 420 579 425 q 572 413 575 416 q 570 411 571 412 q 569 410 569 410 q 567 408 568 409 q 566 407 566 408 q 561 404 564 406 q 545 397 553 399 m 498 375 l 518 443 q 520 444 518 444 l 521 444 l 521 443 l 522 442 l 522 441 l 499 374 q 498 374 499 374 q 498 374 498 374 l 498 375 m 633 427 l 632 427 l 632 429 l 633 431 q 634 433 633 433 l 635 432 l 635 431 l 634 428 q 633 427 634 427 m 813 402 q 815 399 815 400 q 814 396 815 397 q 806 393 812 395 q 777 399 805 393 q 734 399 753 405 q 702 400 712 393 q 699 403 699 401 l 694 395 l 692 391 l 690 387 l 687 383 q 685 381 686 382 q 684 378 684 379 q 677 376 680 375 q 677 389 675 376 q 678 393 678 390 q 679 397 678 396 l 681 406 q 682 409 681 407 q 683 413 682 412 q 676 401 679 406 q 668 392 673 397 q 659 388 663 387 q 656 390 659 388 q 655 398 654 393 l 651 392 q 642 383 646 385 q 634 386 636 380 q 633 399 632 392 q 615 374 621 384 l 612 365 q 600 335 610 359 q 595 326 597 328 q 593 325 595 326 l 593 324 q 592 323 593 323 q 591 324 591 323 q 589 328 589 327 q 591 334 589 329 q 600 353 593 341 q 614 375 606 363 q 619 391 616 380 q 624 404 623 401 q 621 401 623 403 q 618 399 621 400 q 613 400 615 397 l 612 398 q 611 397 611 397 q 610 395 610 395 q 608 392 610 393 q 607 391 608 392 q 606 390 606 391 q 600 391 601 388 q 600 401 598 395 q 599 400 600 400 q 597 399 598 400 q 595 399 597 399 q 593 399 594 399 q 595 410 593 401 q 584 399 589 405 q 576 387 581 394 l 575 386 l 574 387 l 574 387 q 578 401 575 392 q 580 409 578 404 q 583 416 582 414 q 526 385 564 387 l 525 385 l 525 385 l 525 385 l 525 385 l 524 385 l 524 386 l 524 386 l 525 386 l 525 387 l 525 387 l 525 387 l 526 387 q 585 425 567 387 l 586 425 q 587 426 586 426 l 588 425 l 588 425 l 588 425 l 586 420 l 581 406 q 580 402 581 405 q 578 399 579 400 q 578 395 578 397 q 577 391 578 393 q 581 396 578 393 q 583 401 583 399 q 591 410 589 408 l 595 414 l 597 415 l 597 416 l 598 416 l 600 416 l 600 414 q 598 412 600 414 q 597 410 597 411 q 595 400 593 401 q 600 404 598 400 q 611 416 604 415 q 613 414 613 416 q 614 411 614 412 l 614 409 l 614 407 l 614 406 l 614 404 l 614 403 l 613 401 l 614 401 q 620 401 616 398 q 623 406 622 403 q 626 410 625 407 l 626 410 l 627 411 q 627 412 627 412 l 627 412 l 628 411 l 628 411 l 628 410 q 618 381 623 394 q 633 403 623 388 l 635 405 q 640 415 637 411 q 648 419 644 420 q 650 410 652 417 q 642 396 646 397 q 639 397 640 396 l 639 399 l 640 399 q 642 397 640 397 q 646 404 644 397 l 646 405 q 647 416 651 415 q 641 411 645 417 q 636 398 637 405 q 637 386 635 391 q 645 387 640 382 q 654 399 646 389 q 656 400 655 399 q 656 402 656 401 l 656 404 q 672 419 661 419 q 676 417 675 419 q 675 412 677 414 q 671 409 674 410 q 668 410 669 408 q 670 412 668 412 q 671 412 671 412 q 675 413 674 409 q 675 415 675 414 q 671 418 673 419 q 659 398 665 416 q 659 390 655 391 q 673 399 665 389 q 686 422 681 410 l 680 421 q 679 422 679 421 l 680 422 l 686 424 q 690 433 688 428 q 692 441 691 438 q 696 441 693 443 q 696 440 696 441 q 689 424 693 434 q 709 425 700 426 q 725 426 719 424 q 731 436 731 428 q 732 436 731 437 q 732 425 739 429 q 714 422 731 421 q 688 422 696 424 q 683 404 685 415 q 682 402 682 404 q 682 399 682 400 q 680 395 680 397 l 678 387 q 678 376 676 378 q 683 379 680 376 q 687 385 686 382 l 688 387 q 691 391 689 389 q 693 395 692 394 q 695 400 694 397 q 698 404 697 403 q 696 407 696 406 q 699 414 694 412 q 701 414 701 415 q 699 404 703 411 q 702 401 700 403 q 733 400 711 394 q 777 400 752 406 q 806 395 803 395 q 813 397 811 395 q 814 399 814 397 q 813 401 814 401 q 811 401 812 402 q 810 399 810 401 q 812 399 811 399 l 812 398 l 812 397 q 811 398 811 397 q 810 398 811 398 q 809 399 809 398 q 813 402 809 403 m 601 391 q 609 395 603 386 q 612 401 611 398 q 610 401 610 401 q 607 405 607 403 q 608 409 607 408 q 608 411 608 410 q 609 412 608 412 l 608 412 q 608 412 608 412 q 607 410 608 411 l 606 408 q 602 401 602 404 q 600 394 600 395 q 601 393 600 393 q 601 391 601 392 m 612 402 q 613 408 613 406 q 612 413 613 412 l 612 412 l 611 412 q 610 412 610 412 q 610 410 610 411 q 609 408 609 409 l 609 406 q 612 402 609 404 m 610 366 l 610 367 q 606 360 609 365 q 601 352 602 355 q 593 334 595 342 q 591 328 591 330 q 592 326 591 326 q 593 328 593 327 q 598 336 595 330 q 610 366 604 349 m 700 414 q 699 405 694 412 q 701 409 700 406 q 700 414 701 412 m 504 550 q 505 544 504 550 q 498 529 506 538 q 480 518 491 519 q 459 524 469 517 q 452 563 437 541 q 471 574 460 574 q 492 568 481 576 q 504 550 502 561 m 467 535 q 486 538 478 526 q 484 557 494 549 q 473 560 479 562 q 465 554 469 559 q 467 535 457 543 m 425 549 l 410 551 l 411 582 l 393 554 l 389 555 l 380 587 l 371 558 l 357 560 l 373 610 l 387 608 l 395 578 l 412 604 l 425 602 l 425 549 m 328 607 l 332 595 l 313 590 l 315 583 l 332 587 l 334 575 l 318 571 l 320 564 l 339 568 l 342 556 l 309 548 l 296 598 l 328 607 m 241 570 q 261 574 250 576 q 278 564 271 574 q 283 544 285 555 q 271 527 281 534 l 254 515 l 224 557 l 241 570 m 267 555 q 258 561 264 559 q 248 558 254 562 l 243 555 l 258 534 l 263 537 q 267 555 274 546 m 269 238 q 252 228 262 229 q 232 235 241 227 l 216 248 l 248 289 l 264 276 q 275 258 274 269 q 269 238 276 248 m 251 270 l 235 250 l 239 245 q 258 248 250 237 q 256 266 266 258 l 251 270 m 334 229 l 316 235 l 314 227 l 330 222 l 328 211 l 311 216 l 309 208 l 328 203 l 324 191 l 292 200 l 306 250 l 338 241 l 334 229 m 401 191 l 396 190 l 378 218 l 378 187 l 364 185 l 363 238 l 378 240 l 395 214 l 402 244 l 416 246 l 433 196 l 418 194 l 410 223 l 401 191 m 480 279 q 498 269 491 278 q 504 248 506 259 q 492 229 502 237 q 471 223 481 222 q 452 234 460 224 q 447 255 445 243 q 458 273 448 266 q 480 279 469 281 m 484 240 q 486 259 494 248 q 477 265 482 264 q 467 262 471 267 q 465 243 456 254 q 484 240 473 232 m 479 339 q 486 341 482 343 q 488 336 490 338 q 438 281 471 302 q 366 260 405 260 q 291 282 324 260 q 241 340 257 304 q 243 347 239 345 l 243 347 q 249 345 248 348 q 296 290 264 311 q 366 269 328 269 q 433 288 403 269 q 479 339 463 307 m 479 467 q 473 468 475 464 q 427 511 455 495 q 366 526 399 526 q 303 510 332 526 q 257 467 275 494 q 252 465 255 463 q 250 472 248 468 q 299 518 269 501 q 366 535 330 535 q 431 518 401 535 q 480 473 461 501 q 479 467 483 469 m 549 359 q 552 363 550 363 l 554 363 q 557 357 559 361 q 521 277 549 313 q 515 277 519 274 q 513 283 511 279 q 549 359 541 319 m 172 396 q 222 527 172 471 q 226 528 224 528 q 229 527 227 528 q 229 521 232 525 q 181 396 181 467 q 222 281 181 332 q 220 274 224 277 q 214 275 217 271 q 172 396 172 328 m 509 526 q 513 524 511 526 q 536 491 528 507 q 534 485 538 488 q 529 487 532 483 q 506 519 522 500 q 507 525 503 523 q 509 526 508 526 z "},"#":{"ha":892,"x_min":78,"x_max":815,"o":"m 612 285 q 619 275 617 281 q 618 264 621 269 q 514 153 582 195 q 364 111 446 111 q 162 195 245 111 q 78 397 78 279 q 162 600 78 516 q 364 684 245 684 q 514 643 446 684 q 618 532 582 601 q 619 520 621 526 q 612 511 617 514 q 600 509 606 507 q 591 517 594 511 q 497 616 558 579 q 364 654 437 654 q 183 579 258 654 q 109 397 109 504 q 183 216 109 291 q 364 142 258 142 q 497 179 437 142 q 591 278 558 216 q 600 286 594 283 q 612 285 607 288 m 570 520 q 564 522 566 518 q 479 603 532 573 q 364 632 427 632 q 198 563 267 632 q 130 397 130 494 q 198 232 130 300 q 364 163 267 163 q 479 193 427 163 q 564 273 532 222 q 570 275 566 277 q 571 269 574 272 q 483 185 538 216 q 364 154 429 154 q 192 225 263 154 q 121 397 121 297 q 192 570 121 498 q 364 642 264 642 q 483 611 429 642 q 571 527 538 580 q 570 520 574 523 m 397 437 l 397 386 q 385 378 391 385 l 385 437 q 383 445 385 442 q 380 448 382 447 q 374 449 378 449 l 374 452 q 381 451 375 452 q 391 451 387 451 q 400 451 395 451 q 407 452 406 452 l 407 449 q 400 448 403 449 q 397 445 398 447 q 397 437 397 444 m 374 358 l 374 361 q 380 362 378 361 q 383 365 382 363 q 389 374 385 370 q 395 378 392 378 l 397 380 l 397 372 q 397 365 397 366 q 400 362 398 363 q 407 361 403 361 l 407 358 q 400 358 406 358 q 391 359 395 359 q 381 358 387 359 q 374 358 375 358 m 273 418 q 265 409 271 413 q 250 403 257 404 l 252 403 q 261 400 259 401 q 267 395 264 398 q 270 386 269 391 l 273 372 q 275 366 275 367 q 277 362 277 363 q 280 361 278 361 q 283 362 283 361 l 288 366 l 290 365 q 283 359 286 361 q 275 357 281 357 q 267 359 269 357 q 261 371 263 363 l 258 384 q 256 390 258 387 q 255 395 255 393 q 251 400 254 398 q 243 403 247 403 l 231 403 l 231 372 q 232 365 231 368 q 235 362 233 363 q 241 361 237 361 l 241 358 q 235 358 240 358 q 225 359 229 359 q 215 358 221 359 q 208 358 210 358 l 208 361 q 215 362 212 361 q 218 365 217 363 q 218 372 218 366 l 218 437 q 218 445 218 444 q 215 448 217 447 q 208 449 212 449 l 208 452 q 215 451 210 452 q 224 451 220 451 l 235 451 l 244 451 q 261 448 255 451 q 272 440 268 446 q 275 429 275 436 q 273 418 275 423 m 254 408 q 260 416 258 411 q 262 427 262 420 q 257 444 262 438 q 241 449 252 449 q 235 448 237 449 q 232 445 233 447 q 231 437 231 442 l 231 405 l 239 405 q 254 408 248 405 m 348 362 q 350 366 350 363 q 348 372 350 368 l 340 393 l 339 396 l 324 435 l 309 396 l 309 393 l 303 380 q 300 369 300 374 q 303 363 300 365 q 312 361 307 361 l 312 358 q 305 358 310 358 q 297 359 300 359 q 292 358 295 359 q 287 358 288 358 l 287 361 q 297 372 293 361 l 328 452 l 330 452 l 362 370 q 372 361 366 361 l 372 358 q 366 358 370 358 q 357 359 361 359 q 348 358 353 359 q 340 358 342 358 l 340 361 q 348 362 345 361 m 458 402 q 466 393 463 399 q 469 381 469 389 q 465 368 469 373 q 455 359 461 362 q 441 357 450 357 q 431 358 436 357 q 423 361 429 358 q 418 363 420 363 l 416 361 q 416 357 416 361 l 412 357 q 413 389 413 362 l 416 389 q 422 368 417 375 q 440 359 429 359 q 448 361 444 359 q 454 367 452 363 q 457 376 457 372 q 454 386 457 380 q 448 393 452 390 q 437 401 441 399 q 424 409 425 408 q 416 418 420 412 q 413 430 413 423 q 416 443 413 437 q 425 450 420 448 q 438 453 431 453 q 445 452 443 453 q 450 450 447 452 l 454 448 q 458 446 457 446 q 460 448 459 446 q 461 452 461 448 l 465 452 q 464 425 464 446 l 460 425 q 458 437 460 429 q 450 447 456 444 q 439 450 446 450 q 431 448 435 450 q 425 443 428 447 q 423 435 423 439 q 427 424 423 428 q 437 416 433 418 q 442 412 439 414 l 445 411 q 458 402 456 404 m 498 375 l 518 443 q 520 444 518 444 l 521 444 l 521 443 l 522 442 l 522 441 l 499 374 q 498 374 499 374 q 498 374 498 374 l 498 375 m 545 397 q 528 394 534 394 l 524 394 q 522 394 524 394 q 519 395 520 395 q 511 398 512 395 q 513 400 511 399 q 517 401 514 401 q 547 404 536 401 q 564 414 557 406 q 569 434 569 420 l 569 435 l 569 435 l 569 435 l 569 435 l 569 435 l 569 435 l 569 435 l 570 435 l 570 435 l 570 435 l 570 435 l 570 435 l 570 435 l 570 435 l 570 434 q 565 414 570 421 q 547 403 559 406 q 517 400 536 400 q 515 400 516 400 l 514 399 q 517 396 511 397 q 521 395 519 395 l 528 395 q 545 397 536 395 q 561 405 553 399 q 573 416 569 410 q 578 431 578 422 q 575 442 578 437 q 568 450 572 446 q 559 455 563 454 q 551 458 551 458 q 536 460 541 460 q 524 459 528 460 q 518 458 522 458 q 512 456 514 457 q 501 453 508 456 q 496 451 499 452 q 492 449 494 450 q 490 448 491 449 q 488 447 488 448 q 487 446 488 446 q 486 446 486 446 l 483 444 q 475 435 477 438 q 472 426 472 431 l 472 425 q 481 411 473 416 q 502 412 489 405 l 502 412 l 503 412 l 503 412 l 503 412 l 503 412 l 503 411 l 503 411 l 503 411 l 503 411 l 503 410 l 503 410 l 503 410 l 503 410 q 479 410 490 403 q 471 423 473 415 l 471 424 l 471 425 l 471 425 l 471 427 q 472 433 471 429 q 474 438 473 435 q 477 441 475 439 l 478 443 l 481 446 l 484 448 q 496 455 492 453 q 510 460 503 458 q 514 461 512 460 q 520 461 517 461 q 524 462 523 462 q 537 463 529 463 q 547 462 544 463 q 557 459 554 460 q 565 455 563 457 q 573 448 572 450 q 578 439 577 443 q 579 431 579 433 q 577 420 579 425 q 572 413 575 416 q 570 411 571 412 q 569 410 569 410 q 567 408 568 409 q 566 407 566 408 q 561 404 564 406 q 545 397 553 399 m 633 427 l 632 427 l 632 429 l 633 431 q 634 433 633 433 l 635 432 l 635 431 l 634 428 q 633 427 634 427 m 813 402 q 815 399 815 400 q 814 396 815 397 q 806 393 812 395 q 777 399 805 393 q 734 399 753 405 q 702 400 712 393 q 699 403 699 401 l 694 395 l 692 391 l 690 387 l 687 383 q 685 381 686 382 q 684 378 684 379 q 677 376 680 375 q 677 389 675 376 q 678 393 678 390 q 679 397 678 396 l 681 406 q 682 409 681 407 q 683 413 682 412 q 676 401 679 406 q 668 392 673 397 q 659 388 663 387 q 656 390 659 388 q 655 398 654 393 l 651 392 q 642 383 646 385 q 634 386 636 380 q 633 399 632 392 q 615 374 621 384 l 612 365 q 600 335 610 359 q 595 326 597 328 q 593 325 595 326 l 593 324 q 592 323 593 323 q 591 324 591 323 q 589 328 589 327 q 591 334 589 329 q 600 353 593 341 q 614 375 606 363 q 619 391 616 380 q 624 404 623 401 q 621 401 623 403 q 618 399 621 400 q 613 400 615 397 l 612 398 q 611 397 611 397 q 610 395 610 395 q 608 392 610 393 q 607 391 608 392 q 606 390 606 391 q 600 391 601 388 q 600 401 598 395 q 599 400 600 400 q 597 399 598 400 q 595 399 597 399 q 593 399 594 399 q 595 410 593 401 q 584 399 589 405 q 576 387 581 394 l 575 386 l 574 387 l 574 387 q 578 401 575 392 q 580 409 578 404 q 583 416 582 414 q 526 385 564 387 l 525 385 l 525 385 l 525 385 l 525 385 l 524 385 l 524 386 l 524 386 l 525 386 l 525 387 l 525 387 l 525 387 l 526 387 q 585 425 567 387 l 586 425 q 587 426 586 426 l 588 425 l 588 425 l 588 425 l 586 420 l 581 406 q 580 402 581 405 q 578 399 579 400 q 578 395 578 397 q 577 391 578 393 q 581 396 578 393 q 583 401 583 399 q 591 410 589 408 l 595 414 l 597 415 l 597 416 l 598 416 l 600 416 l 600 414 q 598 412 600 414 q 597 410 597 411 q 595 400 593 401 q 600 404 598 400 q 611 416 604 415 q 613 414 613 416 q 614 411 614 412 l 614 409 l 614 407 l 614 406 l 614 404 l 614 403 l 613 401 l 614 401 q 620 401 616 398 q 623 406 622 403 q 626 410 625 407 l 626 410 l 627 411 q 627 412 627 412 l 627 412 l 628 411 l 628 411 l 628 410 q 618 381 623 394 q 633 403 623 388 l 635 405 q 640 415 637 411 q 648 419 644 420 q 650 410 652 417 q 642 396 646 397 q 639 397 640 396 l 639 399 l 640 399 q 642 397 640 397 q 646 404 644 397 l 646 405 q 647 416 651 415 q 641 411 645 417 q 636 398 637 405 q 637 386 635 391 q 645 387 640 382 q 654 399 646 389 q 656 400 655 399 q 656 402 656 401 l 656 404 q 672 419 661 419 q 676 417 675 419 q 675 412 677 414 q 671 409 674 410 q 668 410 669 408 q 670 412 668 412 q 671 412 671 412 q 675 413 674 409 q 675 415 675 414 q 671 418 673 419 q 659 398 665 416 q 659 390 655 391 q 673 399 665 389 q 686 422 681 410 l 680 421 q 679 422 679 421 l 680 422 l 686 424 q 690 433 688 428 q 692 441 691 438 q 696 441 693 443 q 696 440 696 441 q 689 424 693 434 q 709 425 700 426 q 725 426 719 424 q 731 436 731 428 q 732 436 731 437 q 732 425 739 429 q 714 422 731 421 q 688 422 696 424 q 683 404 685 415 q 682 402 682 404 q 682 399 682 400 q 680 395 680 397 l 678 387 q 678 376 676 378 q 683 379 680 376 q 687 385 686 382 l 688 387 q 691 391 689 389 q 693 395 692 394 q 695 400 694 397 q 698 404 697 403 q 696 407 696 406 q 699 414 694 412 q 701 414 701 415 q 699 404 703 411 q 702 401 700 403 q 733 400 711 394 q 777 400 752 406 q 806 395 803 395 q 813 397 811 395 q 814 399 814 397 q 813 401 814 401 q 811 401 812 402 q 810 399 810 401 q 812 399 811 399 l 812 398 l 812 397 q 811 398 811 397 q 810 398 811 398 q 809 399 809 398 q 813 402 809 403 m 601 391 q 609 395 603 386 q 612 401 611 398 q 610 401 610 401 q 607 405 607 403 q 608 409 607 408 q 608 411 608 410 q 609 412 608 412 l 608 412 q 608 412 608 412 q 607 410 608 411 l 606 408 q 602 401 602 404 q 600 394 600 395 q 601 393 600 393 q 601 391 601 392 m 612 402 q 613 408 613 406 q 612 413 613 412 l 612 412 l 611 412 q 610 412 610 412 q 610 410 610 411 q 609 408 609 409 l 609 406 q 612 402 609 404 m 610 366 l 610 367 q 606 360 609 365 q 601 352 602 355 q 593 334 595 342 q 591 328 591 330 q 592 326 591 326 q 593 328 593 327 q 598 336 595 330 q 610 366 604 349 m 700 414 q 699 405 694 412 q 701 409 700 406 q 700 414 701 412 m 504 550 q 505 544 504 550 q 498 529 506 538 q 480 518 491 519 q 459 524 469 517 q 452 563 437 541 q 471 574 460 574 q 492 568 481 576 q 504 550 502 561 m 467 535 q 486 538 478 526 q 484 557 494 549 q 473 560 479 562 q 465 554 469 559 q 467 535 457 543 m 425 549 l 410 551 l 411 582 l 393 554 l 389 555 l 380 587 l 371 558 l 357 560 l 373 610 l 387 608 l 395 578 l 412 604 l 425 602 l 425 549 m 328 607 l 332 595 l 313 590 l 315 583 l 332 587 l 334 575 l 318 571 l 320 564 l 339 568 l 342 556 l 309 548 l 296 598 l 328 607 m 241 570 q 261 574 250 576 q 278 564 271 574 q 283 544 285 555 q 271 527 281 534 l 254 515 l 224 557 l 241 570 m 267 555 q 258 561 264 559 q 248 558 254 562 l 243 555 l 258 534 l 263 537 q 267 555 274 546 m 334 229 l 316 235 l 314 227 l 330 222 l 328 211 l 311 216 l 309 208 l 328 203 l 324 191 l 292 200 l 306 250 l 338 241 l 334 229 m 269 238 q 252 228 262 229 q 232 235 241 227 l 216 248 l 248 289 l 264 276 q 275 258 274 269 q 269 238 276 248 m 251 270 l 235 250 l 239 245 q 258 248 250 237 q 256 266 266 258 l 251 270 m 401 191 l 396 190 l 378 218 l 378 187 l 364 185 l 363 238 l 378 240 l 395 214 l 402 244 l 416 246 l 433 196 l 418 194 l 410 223 l 401 191 m 480 279 q 498 269 491 278 q 504 248 506 259 q 492 229 502 237 q 471 223 481 222 q 452 234 460 224 q 447 255 445 243 q 458 273 448 266 q 480 279 469 281 m 484 240 q 486 259 494 248 q 477 265 482 264 q 467 262 471 267 q 465 243 456 254 q 484 240 473 232 m 479 467 q 473 468 475 464 q 427 511 455 495 q 366 526 399 526 q 303 510 332 526 q 257 467 275 494 q 252 465 255 463 q 250 472 248 468 q 299 518 269 501 q 366 535 330 535 q 431 518 401 535 q 480 473 461 501 q 479 467 483 469 m 479 339 q 486 341 482 343 q 488 336 490 338 q 438 281 471 302 q 366 260 405 260 q 291 282 324 260 q 241 340 257 304 q 243 347 239 345 l 243 347 q 249 345 248 348 q 296 290 264 311 q 366 269 328 269 q 433 288 403 269 q 479 339 463 307 m 172 396 q 222 527 172 471 q 226 528 224 528 q 229 527 227 528 q 229 521 232 525 q 181 396 181 467 q 222 281 181 332 q 220 274 224 277 q 214 275 217 271 q 172 396 172 328 m 549 359 q 552 363 550 363 l 554 363 q 557 357 559 361 q 521 277 549 313 q 515 277 519 274 q 513 283 511 279 q 549 359 541 319 m 509 526 q 513 524 511 526 q 536 491 528 507 q 534 485 538 488 q 529 487 532 483 q 506 519 522 500 q 507 525 503 523 q 509 526 508 526 z "},"$":{"ha":892,"x_min":78,"x_max":815,"o":"m 612 285 q 619 275 617 281 q 618 264 621 269 q 514 153 582 195 q 364 111 446 111 q 162 195 245 111 q 78 397 78 279 q 162 600 78 516 q 364 684 245 684 q 514 643 446 684 q 618 532 582 601 q 619 520 621 526 q 612 511 617 514 q 600 509 606 507 q 591 517 594 511 q 497 616 558 579 q 364 654 437 654 q 183 579 258 654 q 109 397 109 504 q 183 216 109 291 q 364 142 258 142 q 497 179 437 142 q 591 278 558 216 q 600 286 594 283 q 612 285 607 288 m 570 520 q 564 522 566 518 q 479 603 532 573 q 364 632 427 632 q 198 563 267 632 q 130 397 130 494 q 198 232 130 300 q 364 163 267 163 q 479 193 427 163 q 564 273 532 222 q 570 275 566 277 q 571 269 574 272 q 483 185 538 216 q 364 154 429 154 q 192 225 263 154 q 121 397 121 297 q 192 570 121 498 q 364 642 264 642 q 483 611 429 642 q 571 527 538 580 q 570 520 574 523 m 397 437 l 397 386 q 385 378 391 385 l 385 437 q 383 445 385 442 q 380 448 382 447 q 374 449 378 449 l 374 452 q 381 451 375 452 q 391 451 387 451 q 400 451 395 451 q 407 452 406 452 l 407 449 q 400 448 403 449 q 397 445 398 447 q 397 437 397 444 m 374 358 l 374 361 q 380 362 378 361 q 383 365 382 363 q 389 374 385 370 q 395 378 392 378 l 397 380 l 397 372 q 397 365 397 366 q 400 362 398 363 q 407 361 403 361 l 407 358 q 400 358 406 358 q 391 359 395 359 q 381 358 387 359 q 374 358 375 358 m 273 418 q 265 409 271 413 q 250 403 257 404 l 252 403 q 261 400 259 401 q 267 395 264 398 q 270 386 269 391 l 273 372 q 275 366 275 367 q 277 362 277 363 q 280 361 278 361 q 283 362 283 361 l 288 366 l 290 365 q 283 359 286 361 q 275 357 281 357 q 267 359 269 357 q 261 371 263 363 l 258 384 q 256 390 258 387 q 255 395 255 393 q 251 400 254 398 q 243 403 247 403 l 231 403 l 231 372 q 232 365 231 368 q 235 362 233 363 q 241 361 237 361 l 241 358 q 235 358 240 358 q 225 359 229 359 q 215 358 221 359 q 208 358 210 358 l 208 361 q 215 362 212 361 q 218 365 217 363 q 218 372 218 366 l 218 437 q 218 445 218 444 q 215 448 217 447 q 208 449 212 449 l 208 452 q 215 451 210 452 q 224 451 220 451 l 235 451 l 244 451 q 261 448 255 451 q 272 440 268 446 q 275 429 275 436 q 273 418 275 423 m 254 408 q 260 416 258 411 q 262 427 262 420 q 257 444 262 438 q 241 449 252 449 q 235 448 237 449 q 232 445 233 447 q 231 437 231 442 l 231 405 l 239 405 q 254 408 248 405 m 348 362 q 350 366 350 363 q 348 372 350 368 l 340 393 l 339 396 l 324 435 l 309 396 l 309 393 l 303 380 q 300 369 300 374 q 303 363 300 365 q 312 361 307 361 l 312 358 q 305 358 310 358 q 297 359 300 359 q 292 358 295 359 q 287 358 288 358 l 287 361 q 297 372 293 361 l 328 452 l 330 452 l 362 370 q 372 361 366 361 l 372 358 q 366 358 370 358 q 357 359 361 359 q 348 358 353 359 q 340 358 342 358 l 340 361 q 348 362 345 361 m 458 402 q 466 393 463 399 q 469 381 469 389 q 465 368 469 373 q 455 359 461 362 q 441 357 450 357 q 431 358 436 357 q 423 361 429 358 q 418 363 420 363 l 416 361 q 416 357 416 361 l 412 357 q 413 389 413 362 l 416 389 q 422 368 417 375 q 440 359 429 359 q 448 361 444 359 q 454 367 452 363 q 457 376 457 372 q 454 386 457 380 q 448 393 452 390 q 437 401 441 399 q 424 409 425 408 q 416 418 420 412 q 413 430 413 423 q 416 443 413 437 q 425 450 420 448 q 438 453 431 453 q 445 452 443 453 q 450 450 447 452 l 454 448 q 458 446 457 446 q 460 448 459 446 q 461 452 461 448 l 465 452 q 464 425 464 446 l 460 425 q 458 437 460 429 q 450 447 456 444 q 439 450 446 450 q 431 448 435 450 q 425 443 428 447 q 423 435 423 439 q 427 424 423 428 q 437 416 433 418 q 442 412 439 414 l 445 411 q 458 402 456 404 m 545 397 q 528 394 534 394 l 524 394 q 522 394 524 394 q 519 395 520 395 q 511 398 512 395 q 513 400 511 399 q 517 401 514 401 q 547 404 536 401 q 564 414 557 406 q 569 434 569 420 l 569 435 l 569 435 l 569 435 l 569 435 l 569 435 l 569 435 l 569 435 l 570 435 l 570 435 l 570 435 l 570 435 l 570 435 l 570 435 l 570 435 l 570 434 q 565 414 570 421 q 547 403 559 406 q 517 400 536 400 q 515 400 516 400 l 514 399 q 517 396 511 397 q 521 395 519 395 l 528 395 q 545 397 536 395 q 561 405 553 399 q 573 416 569 410 q 578 431 578 422 q 575 442 578 437 q 568 450 572 446 q 559 455 563 454 q 551 458 551 458 q 536 460 541 460 q 524 459 528 460 q 518 458 522 458 q 512 456 514 457 q 501 453 508 456 q 496 451 499 452 q 492 449 494 450 q 490 448 491 449 q 488 447 488 448 q 487 446 488 446 q 486 446 486 446 l 483 444 q 475 435 477 438 q 472 426 472 431 l 472 425 q 481 411 473 416 q 502 412 489 405 l 502 412 l 503 412 l 503 412 l 503 412 l 503 412 l 503 411 l 503 411 l 503 411 l 503 411 l 503 410 l 503 410 l 503 410 l 503 410 q 479 410 490 403 q 471 423 473 415 l 471 424 l 471 425 l 471 425 l 471 427 q 472 433 471 429 q 474 438 473 435 q 477 441 475 439 l 478 443 l 481 446 l 484 448 q 496 455 492 453 q 510 460 503 458 q 514 461 512 460 q 520 461 517 461 q 524 462 523 462 q 537 463 529 463 q 547 462 544 463 q 557 459 554 460 q 565 455 563 457 q 573 448 572 450 q 578 439 577 443 q 579 431 579 433 q 577 420 579 425 q 572 413 575 416 q 570 411 571 412 q 569 410 569 410 q 567 408 568 409 q 566 407 566 408 q 561 404 564 406 q 545 397 553 399 m 498 375 l 518 443 q 520 444 518 444 l 521 444 l 521 443 l 522 442 l 522 441 l 499 374 q 498 374 499 374 q 498 374 498 374 l 498 375 m 633 427 l 632 427 l 632 429 l 633 431 q 634 433 633 433 l 635 432 l 635 431 l 634 428 q 633 427 634 427 m 813 402 q 815 399 815 400 q 814 396 815 397 q 806 393 812 395 q 777 399 805 393 q 734 399 753 405 q 702 400 712 393 q 699 403 699 401 l 694 395 l 692 391 l 690 387 l 687 383 q 685 381 686 382 q 684 378 684 379 q 677 376 680 375 q 677 389 675 376 q 678 393 678 390 q 679 397 678 396 l 681 406 q 682 409 681 407 q 683 413 682 412 q 676 401 679 406 q 668 392 673 397 q 659 388 663 387 q 656 390 659 388 q 655 398 654 393 l 651 392 q 642 383 646 385 q 634 386 636 380 q 633 399 632 392 q 615 374 621 384 l 612 365 q 600 335 610 359 q 595 326 597 328 q 593 325 595 326 l 593 324 q 592 323 593 323 q 591 324 591 323 q 589 328 589 327 q 591 334 589 329 q 600 353 593 341 q 614 375 606 363 q 619 391 616 380 q 624 404 623 401 q 621 401 623 403 q 618 399 621 400 q 613 400 615 397 l 612 398 q 611 397 611 397 q 610 395 610 395 q 608 392 610 393 q 607 391 608 392 q 606 390 606 391 q 600 391 601 388 q 600 401 598 395 q 599 400 600 400 q 597 399 598 400 q 595 399 597 399 q 593 399 594 399 q 595 410 593 401 q 584 399 589 405 q 576 387 581 394 l 575 386 l 574 387 l 574 387 q 578 401 575 392 q 580 409 578 404 q 583 416 582 414 q 526 385 564 387 l 525 385 l 525 385 l 525 385 l 525 385 l 524 385 l 524 386 l 524 386 l 525 386 l 525 387 l 525 387 l 525 387 l 526 387 q 585 425 567 387 l 586 425 q 587 426 586 426 l 588 425 l 588 425 l 588 425 l 586 420 l 581 406 q 580 402 581 405 q 578 399 579 400 q 578 395 578 397 q 577 391 578 393 q 581 396 578 393 q 583 401 583 399 q 591 410 589 408 l 595 414 l 597 415 l 597 416 l 598 416 l 600 416 l 600 414 q 598 412 600 414 q 597 410 597 411 q 595 400 593 401 q 600 404 598 400 q 611 416 604 415 q 613 414 613 416 q 614 411 614 412 l 614 409 l 614 407 l 614 406 l 614 404 l 614 403 l 613 401 l 614 401 q 620 401 616 398 q 623 406 622 403 q 626 410 625 407 l 626 410 l 627 411 q 627 412 627 412 l 627 412 l 628 411 l 628 411 l 628 410 q 618 381 623 394 q 633 403 623 388 l 635 405 q 640 415 637 411 q 648 419 644 420 q 650 410 652 417 q 642 396 646 397 q 639 397 640 396 l 639 399 l 640 399 q 642 397 640 397 q 646 404 644 397 l 646 405 q 647 416 651 415 q 641 411 645 417 q 636 398 637 405 q 637 386 635 391 q 645 387 640 382 q 654 399 646 389 q 656 400 655 399 q 656 402 656 401 l 656 404 q 672 419 661 419 q 676 417 675 419 q 675 412 677 414 q 671 409 674 410 q 668 410 669 408 q 670 412 668 412 q 671 412 671 412 q 675 413 674 409 q 675 415 675 414 q 671 418 673 419 q 659 398 665 416 q 659 390 655 391 q 673 399 665 389 q 686 422 681 410 l 680 421 q 679 422 679 421 l 680 422 l 686 424 q 690 433 688 428 q 692 441 691 438 q 696 441 693 443 q 696 440 696 441 q 689 424 693 434 q 709 425 700 426 q 725 426 719 424 q 731 436 731 428 q 732 436 731 437 q 732 425 739 429 q 714 422 731 421 q 688 422 696 424 q 683 404 685 415 q 682 402 682 404 q 682 399 682 400 q 680 395 680 397 l 678 387 q 678 376 676 378 q 683 379 680 376 q 687 385 686 382 l 688 387 q 691 391 689 389 q 693 395 692 394 q 695 400 694 397 q 698 404 697 403 q 696 407 696 406 q 699 414 694 412 q 701 414 701 415 q 699 404 703 411 q 702 401 700 403 q 733 400 711 394 q 777 400 752 406 q 806 395 803 395 q 813 397 811 395 q 814 399 814 397 q 813 401 814 401 q 811 401 812 402 q 810 399 810 401 q 812 399 811 399 l 812 398 l 812 397 q 811 398 811 397 q 810 398 811 398 q 809 399 809 398 q 813 402 809 403 m 601 391 q 609 395 603 386 q 612 401 611 398 q 610 401 610 401 q 607 405 607 403 q 608 409 607 408 q 608 411 608 410 q 609 412 608 412 l 608 412 q 608 412 608 412 q 607 410 608 411 l 606 408 q 602 401 602 404 q 600 394 600 395 q 601 393 600 393 q 601 391 601 392 m 612 402 q 613 408 613 406 q 612 413 613 412 l 612 412 l 611 412 q 610 412 610 412 q 610 410 610 411 q 609 408 609 409 l 609 406 q 612 402 609 404 m 610 366 l 610 367 q 606 360 609 365 q 601 352 602 355 q 593 334 595 342 q 591 328 591 330 q 592 326 591 326 q 593 328 593 327 q 598 336 595 330 q 610 366 604 349 m 700 414 q 699 405 694 412 q 701 409 700 406 q 700 414 701 412 m 504 550 q 505 544 504 550 q 498 529 506 538 q 480 518 491 519 q 459 524 469 517 q 452 563 437 541 q 471 574 460 574 q 492 568 481 576 q 504 550 502 561 m 467 535 q 486 538 478 526 q 484 557 494 549 q 473 560 479 562 q 465 554 469 559 q 467 535 457 543 m 241 570 q 261 574 250 576 q 278 564 271 574 q 283 544 285 555 q 271 527 281 534 l 254 515 l 224 557 l 241 570 m 267 555 q 258 561 264 559 q 248 558 254 562 l 243 555 l 258 534 l 263 537 q 267 555 274 546 m 425 549 l 410 551 l 411 582 l 393 554 l 389 555 l 380 587 l 371 558 l 357 560 l 373 610 l 387 608 l 395 578 l 412 604 l 425 602 l 425 549 m 328 607 l 332 595 l 313 590 l 315 583 l 332 587 l 334 575 l 318 571 l 320 564 l 339 568 l 342 556 l 309 548 l 296 598 l 328 607 m 401 191 l 396 190 l 378 218 l 378 187 l 364 185 l 363 238 l 378 240 l 395 214 l 402 244 l 416 246 l 433 196 l 418 194 l 410 223 l 401 191 m 334 229 l 316 235 l 314 227 l 330 222 l 328 211 l 311 216 l 309 208 l 328 203 l 324 191 l 292 200 l 306 250 l 338 241 l 334 229 m 269 238 q 252 228 262 229 q 232 235 241 227 l 216 248 l 248 289 l 264 276 q 275 258 274 269 q 269 238 276 248 m 251 270 l 235 250 l 239 245 q 258 248 250 237 q 256 266 266 258 l 251 270 m 480 279 q 498 269 491 278 q 504 248 506 259 q 492 229 502 237 q 471 223 481 222 q 452 234 460 224 q 447 254 445 243 q 458 273 448 265 q 480 279 470 281 m 484 240 q 486 259 494 248 q 477 265 482 264 q 467 262 471 267 q 465 243 456 254 q 484 240 473 232 m 479 467 q 473 468 475 464 q 427 511 455 495 q 366 526 399 526 q 303 510 332 526 q 257 467 275 494 q 252 465 255 463 q 250 472 248 468 q 299 518 269 501 q 366 535 330 535 q 431 518 401 535 q 480 473 461 501 q 479 467 483 469 m 479 339 q 486 341 482 343 q 488 336 490 338 q 438 281 471 302 q 366 260 405 260 q 291 282 324 260 q 241 340 257 304 q 243 347 239 345 l 243 347 q 249 345 248 348 q 296 290 264 311 q 366 269 328 269 q 433 288 403 269 q 479 339 463 307 m 172 396 q 222 527 172 471 q 226 528 224 528 q 229 527 227 528 q 229 521 232 525 q 181 396 181 467 q 222 281 181 332 q 220 274 224 277 q 214 275 217 271 q 172 396 172 328 m 509 526 q 513 524 511 526 q 536 491 528 507 q 534 485 538 488 q 529 486 531 483 q 506 519 521 502 q 507 525 503 523 q 509 526 508 526 m 549 359 q 552 363 550 363 l 554 363 q 557 357 559 361 q 521 277 549 313 q 515 277 519 274 q 513 283 511 279 q 549 359 541 319 z "},"%":{"ha":892,"x_min":78,"x_max":815,"o":"m 612 285 q 619 275 617 281 q 618 264 621 269 q 514 153 582 195 q 364 111 446 111 q 162 195 245 111 q 78 397 78 279 q 162 600 78 516 q 364 684 245 684 q 514 643 446 684 q 618 532 582 601 q 619 520 621 526 q 612 511 617 514 q 600 509 606 507 q 591 517 594 511 q 497 616 558 579 q 364 654 437 654 q 183 579 258 654 q 109 397 109 504 q 183 216 109 291 q 364 142 258 142 q 497 179 437 142 q 591 278 558 216 q 600 286 594 283 q 612 285 607 288 m 570 520 q 564 522 566 518 q 479 603 532 573 q 364 632 427 632 q 198 563 267 632 q 130 397 130 494 q 198 232 130 300 q 364 163 267 163 q 479 193 427 163 q 564 273 532 222 q 570 275 566 277 q 571 269 574 272 q 483 185 538 216 q 364 154 429 154 q 192 225 263 154 q 121 397 121 297 q 192 570 121 498 q 364 642 264 642 q 483 611 429 642 q 571 527 538 580 q 570 520 574 523 m 397 437 l 397 386 q 385 378 391 385 l 385 437 q 383 445 385 442 q 380 448 382 447 q 374 449 378 449 l 374 452 q 381 451 375 452 q 391 451 387 451 q 400 451 395 451 q 407 452 406 452 l 407 449 q 400 448 403 449 q 397 445 398 447 q 397 437 397 444 m 374 358 l 374 361 q 380 362 378 361 q 383 365 382 363 q 389 374 385 370 q 395 378 392 378 l 397 380 l 397 372 q 397 365 397 366 q 400 362 398 363 q 407 361 403 361 l 407 358 q 400 358 406 358 q 391 359 395 359 q 381 358 387 359 q 374 358 375 358 m 273 418 q 265 409 271 413 q 250 403 257 404 l 252 403 q 261 400 259 401 q 267 395 264 398 q 270 386 269 391 l 273 372 q 275 366 275 367 q 277 362 277 363 q 280 361 278 361 q 283 362 283 361 l 288 366 l 290 365 q 283 359 286 361 q 275 357 281 357 q 267 359 269 357 q 261 371 263 363 l 258 384 q 256 390 258 387 q 255 395 255 393 q 251 400 254 398 q 243 403 247 403 l 231 403 l 231 372 q 232 365 231 368 q 235 362 233 363 q 241 361 237 361 l 241 358 q 235 358 240 358 q 225 359 229 359 q 215 358 221 359 q 208 358 210 358 l 208 361 q 215 362 212 361 q 218 365 217 363 q 218 372 218 366 l 218 437 q 218 445 218 444 q 215 448 217 447 q 208 449 212 449 l 208 452 q 215 451 210 452 q 224 451 220 451 l 235 451 l 244 451 q 261 448 255 451 q 272 440 268 446 q 275 429 275 436 q 273 418 275 423 m 254 408 q 260 416 258 411 q 262 427 262 420 q 257 444 262 438 q 241 449 252 449 q 235 448 237 449 q 232 445 233 447 q 231 437 231 442 l 231 405 l 239 405 q 254 408 248 405 m 348 362 q 350 366 350 363 q 348 372 350 368 l 340 393 l 339 396 l 324 435 l 309 396 l 309 393 l 303 380 q 300 369 300 374 q 303 363 300 365 q 312 361 307 361 l 312 358 q 305 358 310 358 q 297 359 300 359 q 292 358 295 359 q 287 358 288 358 l 287 361 q 297 372 293 361 l 328 452 l 330 452 l 362 370 q 372 361 366 361 l 372 358 q 366 358 370 358 q 357 359 361 359 q 348 358 353 359 q 340 358 342 358 l 340 361 q 348 362 345 361 m 458 402 q 466 393 463 399 q 469 381 469 389 q 465 368 469 373 q 455 359 461 362 q 441 357 450 357 q 431 358 436 357 q 423 361 429 358 q 418 363 420 363 l 416 361 q 416 357 416 361 l 412 357 q 413 389 413 362 l 416 389 q 422 368 417 375 q 440 359 429 359 q 448 361 444 359 q 454 367 452 363 q 457 376 457 372 q 454 386 457 380 q 448 393 452 390 q 437 401 441 399 q 424 409 425 408 q 416 418 420 412 q 413 430 413 423 q 416 443 413 437 q 425 450 420 448 q 438 453 431 453 q 445 452 443 453 q 450 450 447 452 l 454 448 q 458 446 457 446 q 460 448 459 446 q 461 452 461 448 l 465 452 q 464 425 464 446 l 460 425 q 458 437 460 429 q 450 447 456 444 q 439 450 446 450 q 431 448 435 450 q 425 443 428 447 q 423 435 423 439 q 427 424 423 428 q 437 416 433 418 q 442 412 439 414 l 445 411 q 458 402 456 404 m 545 397 q 528 394 534 394 l 524 394 q 522 394 524 394 q 519 395 520 395 q 511 398 512 395 q 513 400 511 399 q 517 401 514 401 q 547 404 536 401 q 564 414 557 406 q 569 434 569 420 l 569 435 l 569 435 l 569 435 l 569 435 l 569 435 l 569 435 l 569 435 l 570 435 l 570 435 l 570 435 l 570 435 l 570 435 l 570 435 l 570 435 l 570 434 q 565 414 570 421 q 547 403 559 406 q 517 400 536 400 q 515 400 516 400 l 514 399 q 517 396 511 397 q 521 395 519 395 l 528 395 q 545 397 536 395 q 561 405 553 399 q 573 416 569 410 q 578 431 578 422 q 575 442 578 437 q 568 450 572 446 q 559 455 563 454 q 551 458 551 458 q 536 460 541 460 q 524 459 528 460 q 518 458 522 458 q 512 456 514 457 q 501 453 508 456 q 496 451 499 452 q 492 449 494 450 q 490 448 491 449 q 488 447 488 448 q 487 446 488 446 q 486 446 486 446 l 483 444 q 475 435 477 438 q 472 426 472 431 l 472 425 q 481 411 473 416 q 502 412 489 405 l 502 412 l 503 412 l 503 412 l 503 412 l 503 412 l 503 411 l 503 411 l 503 411 l 503 411 l 503 410 l 503 410 l 503 410 l 503 410 q 479 410 490 403 q 471 423 473 415 l 471 424 l 471 425 l 471 425 l 471 427 q 472 433 471 429 q 474 438 473 435 q 477 441 475 439 l 478 443 l 481 446 l 484 448 q 496 455 492 453 q 510 460 503 458 q 514 461 512 460 q 520 461 517 461 q 524 462 523 462 q 537 463 529 463 q 547 462 544 463 q 557 459 554 460 q 565 455 563 457 q 573 448 572 450 q 578 439 577 443 q 579 431 579 433 q 577 420 579 425 q 572 413 575 416 q 570 411 571 412 q 569 410 569 410 q 567 408 568 409 q 566 407 566 408 q 561 404 564 406 q 545 397 553 399 m 498 375 l 518 443 q 520 444 518 444 l 521 444 l 521 443 l 522 442 l 522 441 l 499 374 q 498 374 499 374 q 498 374 498 374 l 498 375 m 633 427 l 632 427 l 632 429 l 633 431 q 634 433 633 433 l 635 432 l 635 431 l 634 428 q 633 427 634 427 m 813 402 q 815 399 815 400 q 814 396 815 397 q 806 393 812 395 q 777 399 805 393 q 734 399 753 405 q 702 400 712 393 q 699 403 699 401 l 694 395 l 692 391 l 690 387 l 687 383 q 685 381 686 382 q 684 378 684 379 q 677 376 680 375 q 677 389 675 376 q 678 393 678 390 q 679 397 678 396 l 681 406 q 682 409 681 407 q 683 413 682 412 q 676 401 679 406 q 668 392 673 397 q 659 388 663 387 q 656 390 659 388 q 655 398 654 393 l 651 392 q 642 383 646 385 q 634 386 636 380 q 633 399 632 392 q 615 374 621 384 l 612 365 q 600 335 610 359 q 595 326 597 328 q 593 325 595 326 l 593 324 q 592 323 593 323 q 591 324 591 323 q 589 328 589 327 q 591 334 589 329 q 600 353 593 341 q 614 375 606 363 q 619 391 616 380 q 624 404 623 401 q 621 401 623 403 q 618 399 621 400 q 613 400 615 397 l 612 398 q 611 397 611 397 q 610 395 610 395 q 608 392 610 393 q 607 391 608 392 q 606 390 606 391 q 600 391 601 388 q 600 401 598 395 q 599 400 600 400 q 597 399 598 400 q 595 399 597 399 q 593 399 594 399 q 595 410 593 401 q 584 399 589 405 q 576 387 581 394 l 575 386 l 574 387 l 574 387 q 578 401 575 392 q 580 409 578 404 q 583 416 582 414 q 526 385 564 387 l 525 385 l 525 385 l 525 385 l 525 385 l 524 385 l 524 386 l 524 386 l 525 386 l 525 387 l 525 387 l 525 387 l 526 387 q 585 425 567 387 l 586 425 q 587 426 586 426 l 588 425 l 588 425 l 588 425 l 586 420 l 581 406 q 580 402 581 405 q 578 399 579 400 q 578 395 578 397 q 577 391 578 393 q 581 396 578 393 q 583 401 583 399 q 591 410 589 408 l 595 414 l 597 415 l 597 416 l 598 416 l 600 416 l 600 414 q 598 412 600 414 q 597 410 597 411 q 595 400 593 401 q 600 404 598 400 q 611 416 604 415 q 613 414 613 416 q 614 411 614 412 l 614 409 l 614 407 l 614 406 l 614 404 l 614 403 l 613 401 l 614 401 q 620 401 616 398 q 623 406 622 403 q 626 410 625 407 l 626 410 l 627 411 q 627 412 627 412 l 627 412 l 628 411 l 628 411 l 628 410 q 618 381 623 394 q 633 403 623 388 l 635 405 q 640 415 637 411 q 648 419 644 420 q 650 410 652 417 q 642 396 646 397 q 639 397 640 396 l 639 399 l 640 399 q 642 397 640 397 q 646 404 644 397 l 646 405 q 647 416 651 415 q 641 411 645 417 q 636 398 637 405 q 637 386 635 391 q 645 387 640 382 q 654 399 646 389 q 656 400 655 399 q 656 402 656 401 l 656 404 q 672 419 661 419 q 676 417 675 419 q 675 412 677 414 q 671 409 674 410 q 668 410 669 408 q 670 412 668 412 q 671 412 671 412 q 675 413 674 409 q 675 415 675 414 q 671 418 673 419 q 659 398 665 416 q 659 390 655 391 q 673 399 665 389 q 686 422 681 410 l 680 421 q 679 422 679 421 l 680 422 l 686 424 q 690 433 688 428 q 692 441 691 438 q 696 441 693 443 q 696 440 696 441 q 689 424 693 434 q 709 425 700 426 q 725 426 719 424 q 731 436 731 428 q 732 436 731 437 q 732 425 739 429 q 714 422 731 421 q 688 422 696 424 q 683 404 685 415 q 682 402 682 404 q 682 399 682 400 q 680 395 680 397 l 678 387 q 678 376 676 378 q 683 379 680 376 q 687 385 686 382 l 688 387 q 691 391 689 389 q 693 395 692 394 q 695 400 694 397 q 698 404 697 403 q 696 407 696 406 q 699 414 694 412 q 701 414 701 415 q 699 404 703 411 q 702 401 700 403 q 733 400 711 394 q 777 400 752 406 q 806 395 803 395 q 813 397 811 395 q 814 399 814 397 q 813 401 814 401 q 811 401 812 402 q 810 399 810 401 q 812 399 811 399 l 812 398 l 812 397 q 811 398 811 397 q 810 398 811 398 q 809 399 809 398 q 813 402 809 403 m 601 391 q 609 395 603 386 q 612 401 611 398 q 610 401 610 401 q 607 405 607 403 q 608 409 607 408 q 608 411 608 410 q 609 412 608 412 l 608 412 q 608 412 608 412 q 607 410 608 411 l 606 408 q 602 401 602 404 q 600 394 600 395 q 601 393 600 393 q 601 391 601 392 m 612 402 q 613 408 613 406 q 612 413 613 412 l 612 412 l 611 412 q 610 412 610 412 q 610 410 610 411 q 609 408 609 409 l 609 406 q 612 402 609 404 m 610 366 l 610 367 q 606 360 609 365 q 601 352 602 355 q 593 334 595 342 q 591 328 591 330 q 592 326 591 326 q 593 328 593 327 q 598 336 595 330 q 610 366 604 349 m 700 414 q 699 405 694 412 q 701 409 700 406 q 700 414 701 412 m 425 549 l 410 551 l 411 582 l 393 554 l 389 555 l 380 587 l 371 558 l 357 560 l 373 610 l 387 608 l 395 578 l 412 604 l 425 602 l 425 549 m 504 550 q 505 544 504 550 q 498 529 506 538 q 480 518 491 519 q 459 524 469 517 q 452 563 437 541 q 471 574 460 574 q 492 568 481 576 q 504 550 502 561 m 467 535 q 486 538 478 526 q 484 557 494 549 q 473 560 479 562 q 465 554 469 559 q 467 535 457 543 m 328 607 l 332 595 l 313 590 l 315 583 l 332 587 l 334 575 l 318 571 l 320 564 l 339 568 l 342 556 l 309 548 l 296 598 l 328 607 m 241 570 q 261 574 250 576 q 278 564 271 574 q 283 544 285 555 q 271 527 281 534 l 254 515 l 224 557 l 241 570 m 267 555 q 258 561 264 559 q 248 558 254 562 l 243 555 l 258 534 l 263 537 q 267 555 274 546 m 269 238 q 252 228 262 229 q 232 235 241 227 l 216 248 l 248 289 l 264 276 q 275 258 274 269 q 269 238 276 248 m 251 270 l 235 250 l 239 245 q 258 248 250 237 q 256 266 266 258 l 251 270 m 401 191 l 396 190 l 378 218 l 378 187 l 364 185 l 363 238 l 378 240 l 395 214 l 402 244 l 416 246 l 433 196 l 418 194 l 410 223 l 401 191 m 480 279 q 498 269 491 278 q 504 248 506 259 q 492 229 502 237 q 471 223 481 222 q 452 234 460 224 q 447 255 445 243 q 458 273 448 266 q 480 279 469 281 m 484 240 q 486 259 494 248 q 477 265 482 264 q 467 262 471 267 q 465 243 456 254 q 484 240 473 232 m 334 229 l 316 235 l 314 227 l 330 222 l 328 211 l 311 216 l 309 208 l 328 203 l 324 191 l 292 200 l 306 250 l 338 241 l 334 229 m 479 467 q 473 468 475 464 q 427 511 455 495 q 366 526 399 526 q 303 510 332 526 q 257 467 275 494 q 252 465 254 463 q 250 472 248 468 q 299 518 269 501 q 366 535 330 535 q 431 518 401 535 q 480 473 461 501 q 479 467 483 469 m 479 339 q 486 341 482 343 q 488 336 490 338 q 438 281 471 302 q 366 260 405 260 q 291 282 324 260 q 241 340 257 304 q 243 347 239 345 l 243 347 q 249 345 248 348 q 296 290 264 311 q 366 269 328 269 q 433 288 403 269 q 479 339 463 307 m 172 396 q 222 527 172 471 q 226 528 224 528 q 229 527 227 528 q 229 521 232 525 q 181 396 181 467 q 222 281 181 332 q 220 274 224 277 q 214 275 217 271 q 172 396 172 328 m 509 526 q 513 524 511 526 q 536 491 528 507 q 534 485 538 488 q 529 487 532 483 q 506 519 522 500 q 507 525 503 523 q 509 526 508 526 m 549 359 q 552 363 550 363 l 554 363 q 557 357 559 361 q 521 277 549 313 q 515 277 519 274 q 513 283 511 279 q 549 359 541 319 z "},"&":{"ha":892,"x_min":78,"x_max":815,"o":"m 612 285 q 619 275 617 281 q 618 264 621 269 q 514 153 582 195 q 364 111 446 111 q 162 195 245 111 q 78 397 78 279 q 162 600 78 516 q 364 684 245 684 q 514 643 446 684 q 618 532 582 601 q 619 520 621 526 q 612 511 617 514 q 600 509 606 507 q 591 517 594 511 q 497 616 558 579 q 364 654 437 654 q 183 579 258 654 q 109 397 109 504 q 183 216 109 291 q 364 142 258 142 q 497 179 437 142 q 591 278 558 216 q 600 286 594 283 q 612 285 607 288 m 570 520 q 564 522 566 518 q 479 603 532 573 q 364 632 427 632 q 198 563 267 632 q 130 397 130 494 q 198 232 130 300 q 364 163 267 163 q 479 193 427 163 q 564 273 532 222 q 570 275 566 277 q 571 269 574 272 q 483 185 538 216 q 364 154 429 154 q 192 225 263 154 q 121 397 121 297 q 192 570 121 498 q 364 642 264 642 q 483 611 429 642 q 571 527 538 580 q 570 520 574 523 m 397 437 l 397 386 q 385 378 391 385 l 385 437 q 383 445 385 442 q 380 448 382 447 q 374 449 378 449 l 374 452 q 381 451 375 452 q 391 451 387 451 q 400 451 395 451 q 407 452 406 452 l 407 449 q 400 448 403 449 q 397 445 398 447 q 397 437 397 444 m 374 358 l 374 361 q 380 362 378 361 q 383 365 382 363 q 389 374 385 370 q 395 378 392 378 l 397 380 l 397 372 q 397 365 397 366 q 400 362 398 363 q 407 361 403 361 l 407 358 q 400 358 406 358 q 391 359 395 359 q 381 358 387 359 q 374 358 375 358 m 273 418 q 265 409 271 413 q 250 403 257 404 l 252 403 q 261 400 259 401 q 267 395 264 398 q 270 386 269 391 l 273 372 q 275 366 275 367 q 277 362 277 363 q 280 361 278 361 q 283 362 283 361 l 288 366 l 290 365 q 283 359 286 361 q 275 357 281 357 q 267 359 269 357 q 261 371 263 363 l 258 384 q 256 390 258 387 q 255 395 255 393 q 251 400 254 398 q 243 403 247 403 l 231 403 l 231 372 q 232 365 231 368 q 235 362 233 363 q 241 361 237 361 l 241 358 q 235 358 240 358 q 225 359 229 359 q 215 358 221 359 q 208 358 210 358 l 208 361 q 215 362 212 361 q 218 365 217 363 q 218 372 218 366 l 218 437 q 218 445 218 444 q 215 448 217 447 q 208 449 212 449 l 208 452 q 215 451 210 452 q 224 451 220 451 l 235 451 l 244 451 q 261 448 255 451 q 272 440 268 446 q 275 429 275 436 q 273 418 275 423 m 254 408 q 260 416 258 411 q 262 427 262 420 q 257 444 262 438 q 241 449 252 449 q 235 448 237 449 q 232 445 233 447 q 231 437 231 442 l 231 405 l 239 405 q 254 408 248 405 m 348 362 q 350 366 350 363 q 348 372 350 368 l 340 393 l 339 396 l 324 435 l 309 396 l 309 393 l 303 380 q 300 369 300 374 q 303 363 300 365 q 312 361 307 361 l 312 358 q 305 358 310 358 q 297 359 300 359 q 292 358 295 359 q 287 358 288 358 l 287 361 q 297 372 293 361 l 328 452 l 330 452 l 362 370 q 372 361 366 361 l 372 358 q 366 358 370 358 q 357 359 361 359 q 348 358 353 359 q 340 358 342 358 l 340 361 q 348 362 345 361 m 458 402 q 466 393 463 399 q 469 381 469 389 q 465 368 469 373 q 455 359 461 362 q 441 357 450 357 q 431 358 436 357 q 423 361 429 358 q 418 363 420 363 l 416 361 q 416 357 416 361 l 412 357 q 413 389 413 362 l 416 389 q 422 368 417 375 q 440 359 429 359 q 448 361 444 359 q 454 367 452 363 q 457 376 457 372 q 454 386 457 380 q 448 393 452 390 q 437 401 441 399 q 424 409 425 408 q 416 418 420 412 q 413 430 413 423 q 416 443 413 437 q 425 450 420 448 q 438 453 431 453 q 445 452 443 453 q 450 450 447 452 l 454 448 q 458 446 457 446 q 460 448 459 446 q 461 452 461 448 l 465 452 q 464 425 464 446 l 460 425 q 458 437 460 429 q 450 447 456 444 q 439 450 446 450 q 431 448 435 450 q 425 443 428 447 q 423 435 423 439 q 427 424 423 428 q 437 416 433 418 q 442 412 439 414 l 445 411 q 458 402 456 404 m 498 375 l 518 443 q 520 444 518 444 l 521 444 l 521 443 l 522 442 l 522 441 l 499 374 q 498 374 499 374 q 498 374 498 374 l 498 375 m 545 397 q 528 394 534 394 l 524 394 q 522 394 524 394 q 519 395 520 395 q 511 398 512 395 q 513 400 511 399 q 517 401 514 401 q 547 404 536 401 q 564 414 557 406 q 569 434 569 420 l 569 435 l 569 435 l 569 435 l 569 435 l 569 435 l 569 435 l 569 435 l 570 435 l 570 435 l 570 435 l 570 435 l 570 435 l 570 435 l 570 435 l 570 434 q 565 414 570 421 q 547 403 559 406 q 517 400 536 400 q 515 400 516 400 l 514 399 q 517 396 511 397 q 521 395 519 395 l 528 395 q 545 397 536 395 q 561 405 553 399 q 573 416 569 410 q 578 431 578 422 q 575 442 578 437 q 568 450 572 446 q 559 455 563 454 q 551 458 551 458 q 536 460 541 460 q 524 459 528 460 q 518 458 522 458 q 512 456 514 457 q 501 453 508 456 q 496 451 499 452 q 492 449 494 450 q 490 448 491 449 q 488 447 488 448 q 487 446 488 446 q 486 446 486 446 l 483 444 q 475 435 477 438 q 472 426 472 431 l 472 425 q 481 411 473 416 q 502 412 489 405 l 502 412 l 503 412 l 503 412 l 503 412 l 503 412 l 503 411 l 503 411 l 503 411 l 503 411 l 503 410 l 503 410 l 503 410 l 503 410 q 479 410 490 403 q 471 423 473 415 l 471 424 l 471 425 l 471 425 l 471 427 q 472 433 471 429 q 474 438 473 435 q 477 441 475 439 l 478 443 l 481 446 l 484 448 q 496 455 492 453 q 510 460 503 458 q 514 461 512 460 q 520 461 517 461 q 524 462 523 462 q 537 463 529 463 q 547 462 544 463 q 557 459 554 460 q 565 455 563 457 q 573 448 572 450 q 578 439 577 443 q 579 431 579 433 q 577 420 579 425 q 572 413 575 416 q 570 411 571 412 q 569 410 569 410 q 567 408 568 409 q 566 407 566 408 q 561 404 564 406 q 545 397 553 399 m 633 427 l 632 427 l 632 429 l 633 431 q 634 433 633 433 l 635 432 l 635 431 l 634 428 q 633 427 634 427 m 813 402 q 815 399 815 400 q 814 396 815 397 q 806 393 812 395 q 777 399 805 393 q 734 399 753 405 q 702 400 712 393 q 699 403 699 401 l 694 395 l 692 391 l 690 387 l 687 383 q 685 381 686 382 q 684 378 684 379 q 677 376 680 375 q 677 389 675 376 q 678 393 678 390 q 679 397 678 396 l 681 406 q 682 409 681 407 q 683 413 682 412 q 676 401 679 406 q 668 392 673 397 q 659 388 663 387 q 656 390 659 388 q 655 398 654 393 l 651 392 q 642 383 646 385 q 634 386 636 380 q 633 399 632 392 q 615 374 621 384 l 612 365 q 600 335 610 359 q 595 326 597 328 q 593 325 595 326 l 593 324 q 592 323 593 323 q 591 324 591 323 q 589 328 589 327 q 591 334 589 329 q 600 353 593 341 q 614 375 606 363 q 619 391 616 380 q 624 404 623 401 q 621 401 623 403 q 618 399 621 400 q 613 400 615 397 l 612 398 q 611 397 611 397 q 610 395 610 395 q 608 392 610 393 q 607 391 608 392 q 606 390 606 391 q 600 391 601 388 q 600 401 598 395 q 599 400 600 400 q 597 399 598 400 q 595 399 597 399 q 593 399 594 399 q 595 410 593 401 q 584 399 589 405 q 576 387 581 394 l 575 386 l 574 387 l 574 387 q 578 401 575 392 q 580 409 578 404 q 583 416 582 414 q 526 385 564 387 l 525 385 l 525 385 l 525 385 l 525 385 l 524 385 l 524 386 l 524 386 l 525 386 l 525 387 l 525 387 l 525 387 l 526 387 q 585 425 567 387 l 586 425 q 587 426 586 426 l 588 425 l 588 425 l 588 425 l 586 420 l 581 406 q 580 402 581 405 q 578 399 579 400 q 578 395 578 397 q 577 391 578 393 q 581 396 578 393 q 583 401 583 399 q 591 410 589 408 l 595 414 l 597 415 l 597 416 l 598 416 l 600 416 l 600 414 q 598 412 600 414 q 597 410 597 411 q 595 400 593 401 q 600 404 598 400 q 611 416 604 415 q 613 414 613 416 q 614 411 614 412 l 614 409 l 614 407 l 614 406 l 614 404 l 614 403 l 613 401 l 614 401 q 620 401 616 398 q 623 406 622 403 q 626 410 625 407 l 626 410 l 627 411 q 627 412 627 412 l 627 412 l 628 411 l 628 411 l 628 410 q 618 381 623 394 q 633 403 623 388 l 635 405 q 640 415 637 411 q 648 419 644 420 q 650 410 652 417 q 642 396 646 397 q 639 397 640 396 l 639 399 l 640 399 q 642 397 640 397 q 646 404 644 397 l 646 405 q 647 416 651 415 q 641 411 645 417 q 636 398 637 405 q 637 386 635 391 q 645 387 640 382 q 654 399 646 389 q 656 400 655 399 q 656 402 656 401 l 656 404 q 672 419 661 419 q 676 417 675 419 q 675 412 677 414 q 671 409 674 410 q 668 410 669 408 q 670 412 668 412 q 671 412 671 412 q 675 413 674 409 q 675 415 675 414 q 671 418 673 419 q 659 398 665 416 q 659 390 655 391 q 673 399 665 389 q 686 422 681 410 l 680 421 q 679 422 679 421 l 680 422 l 686 424 q 690 433 688 428 q 692 441 691 438 q 696 441 693 443 q 696 440 696 441 q 689 424 693 434 q 709 425 700 426 q 725 426 719 424 q 731 436 731 428 q 732 436 731 437 q 732 425 739 429 q 714 422 731 421 q 688 422 696 424 q 683 404 685 415 q 682 402 682 404 q 682 399 682 400 q 680 395 680 397 l 678 387 q 678 376 676 378 q 683 379 680 376 q 687 385 686 382 l 688 387 q 691 391 689 389 q 693 395 692 394 q 695 400 694 397 q 698 404 697 403 q 696 407 696 406 q 699 414 694 412 q 701 414 701 415 q 699 404 703 411 q 702 401 700 403 q 733 400 711 394 q 777 400 752 406 q 806 395 803 395 q 813 397 811 395 q 814 399 814 397 q 813 401 814 401 q 811 401 812 402 q 810 399 810 401 q 812 399 811 399 l 812 398 l 812 397 q 811 398 811 397 q 810 398 811 398 q 809 399 809 398 q 813 402 809 403 m 601 391 q 609 395 603 386 q 612 401 611 398 q 610 401 610 401 q 607 405 607 403 q 608 409 607 408 q 608 411 608 410 q 609 412 608 412 l 608 412 q 608 412 608 412 q 607 410 608 411 l 606 408 q 602 401 602 404 q 600 394 600 395 q 601 393 600 393 q 601 391 601 392 m 612 402 q 613 408 613 406 q 612 413 613 412 l 612 412 l 611 412 q 610 412 610 412 q 610 410 610 411 q 609 408 609 409 l 609 406 q 612 402 609 404 m 610 366 l 610 367 q 606 360 609 365 q 601 352 602 355 q 593 334 595 342 q 591 328 591 330 q 592 326 591 326 q 593 328 593 327 q 598 336 595 330 q 610 366 604 349 m 700 414 q 699 405 694 412 q 701 409 700 406 q 700 414 701 412 m 504 550 q 505 544 504 550 q 498 529 506 538 q 480 518 491 519 q 459 524 469 517 q 452 563 437 541 q 471 574 460 574 q 492 568 481 576 q 504 550 502 561 m 467 535 q 486 538 478 526 q 484 557 494 549 q 473 560 479 562 q 465 554 469 559 q 467 535 457 543 m 328 607 l 332 595 l 313 590 l 315 583 l 332 587 l 334 575 l 318 571 l 320 564 l 339 568 l 342 556 l 309 548 l 296 598 l 328 607 m 425 549 l 410 551 l 411 582 l 393 554 l 389 555 l 380 587 l 371 558 l 357 560 l 373 610 l 387 608 l 395 578 l 412 604 l 425 602 l 425 549 m 241 570 q 261 574 250 576 q 278 564 271 574 q 283 544 285 555 q 271 527 281 534 l 254 515 l 224 557 l 241 570 m 267 555 q 258 561 264 559 q 248 558 254 562 l 243 555 l 258 534 l 263 537 q 267 555 274 546 m 334 229 l 316 235 l 314 227 l 330 222 l 328 211 l 311 216 l 309 208 l 328 203 l 324 191 l 292 200 l 306 250 l 338 241 l 334 229 m 269 238 q 252 228 262 229 q 232 235 241 227 l 216 248 l 248 289 l 264 276 q 275 258 274 269 q 269 238 276 248 m 251 270 l 235 250 l 239 245 q 258 248 250 237 q 256 266 266 258 l 251 270 m 480 279 q 498 269 491 278 q 504 248 506 259 q 492 229 502 237 q 471 223 481 222 q 452 234 460 224 q 447 255 445 243 q 458 273 448 266 q 480 279 469 281 m 484 240 q 486 259 494 248 q 477 265 482 264 q 467 262 471 267 q 465 243 456 254 q 484 240 473 232 m 401 191 l 396 190 l 378 218 l 378 187 l 364 185 l 363 238 l 378 240 l 395 214 l 402 244 l 416 246 l 433 196 l 418 194 l 410 223 l 401 191 m 479 339 q 486 341 482 343 q 488 336 490 338 q 438 281 471 302 q 366 260 405 260 q 291 282 324 260 q 241 340 257 304 q 243 347 239 345 l 243 347 q 249 345 248 348 q 296 290 264 311 q 366 269 328 269 q 433 288 403 269 q 479 339 463 307 m 479 467 q 473 468 475 464 q 427 511 455 495 q 366 526 399 526 q 303 510 332 526 q 257 467 275 494 q 252 465 255 463 q 250 472 248 468 q 299 518 269 501 q 366 535 330 535 q 431 518 401 535 q 480 473 461 501 q 479 467 483 469 m 549 359 q 552 363 550 363 l 554 363 q 557 357 559 361 q 521 277 549 313 q 515 277 519 274 q 513 283 511 279 q 549 359 541 319 m 509 526 q 513 524 511 526 q 536 491 528 507 q 534 485 538 488 q 529 486 531 483 q 506 519 521 502 q 507 525 503 523 q 509 526 508 526 m 172 396 q 222 527 172 471 q 226 528 224 528 q 229 527 227 528 q 229 521 232 525 q 181 396 181 467 q 222 281 181 332 q 220 274 224 277 q 214 275 217 271 q 172 396 172 328 z "},"'":{"ha":892,"x_min":78,"x_max":815,"o":"m 612 285 q 619 275 617 281 q 618 264 621 269 q 514 153 582 195 q 364 111 446 111 q 162 195 245 111 q 78 397 78 279 q 162 600 78 516 q 364 684 245 684 q 514 643 446 684 q 618 532 582 601 q 619 520 621 526 q 612 511 617 514 q 600 509 606 507 q 591 517 594 511 q 497 616 558 579 q 364 654 437 654 q 183 579 258 654 q 109 397 109 504 q 183 216 109 291 q 364 142 258 142 q 497 179 437 142 q 591 278 558 216 q 600 286 594 283 q 612 285 607 288 m 570 520 q 564 522 566 518 q 479 603 532 573 q 364 632 427 632 q 198 563 267 632 q 130 397 130 494 q 198 232 130 300 q 364 163 267 163 q 479 193 427 163 q 564 273 532 222 q 570 275 566 277 q 571 269 574 272 q 483 185 538 216 q 364 154 429 154 q 192 225 263 154 q 121 397 121 297 q 192 570 121 498 q 364 642 264 642 q 483 611 429 642 q 571 527 538 580 q 570 520 574 523 m 397 437 l 397 386 q 385 378 391 385 l 385 437 q 383 445 385 442 q 380 448 382 447 q 374 449 378 449 l 374 452 q 381 451 375 452 q 391 451 387 451 q 400 451 395 451 q 407 452 406 452 l 407 449 q 400 448 403 449 q 397 445 398 447 q 397 437 397 444 m 374 358 l 374 361 q 380 362 378 361 q 383 365 382 363 q 389 374 385 370 q 395 378 392 378 l 397 380 l 397 372 q 397 365 397 366 q 400 362 398 363 q 407 361 403 361 l 407 358 q 400 358 406 358 q 391 359 395 359 q 381 358 387 359 q 374 358 375 358 m 273 418 q 265 409 271 413 q 250 403 257 404 l 252 403 q 261 400 259 401 q 267 395 264 398 q 270 386 269 391 l 273 372 q 275 366 275 367 q 277 362 277 363 q 280 361 278 361 q 283 362 283 361 l 288 366 l 290 365 q 283 359 286 361 q 275 357 281 357 q 267 359 269 357 q 261 371 263 363 l 258 384 q 256 390 258 387 q 255 395 255 393 q 251 400 254 398 q 243 403 247 403 l 231 403 l 231 372 q 232 365 231 368 q 235 362 233 363 q 241 361 237 361 l 241 358 q 235 358 240 358 q 225 359 229 359 q 215 358 221 359 q 208 358 210 358 l 208 361 q 215 362 212 361 q 218 365 217 363 q 218 372 218 366 l 218 437 q 218 445 218 444 q 215 448 217 447 q 208 449 212 449 l 208 452 q 215 451 210 452 q 224 451 220 451 l 235 451 l 244 451 q 261 448 255 451 q 272 440 268 446 q 275 429 275 436 q 273 418 275 423 m 254 408 q 260 416 258 411 q 262 427 262 420 q 257 444 262 438 q 241 449 252 449 q 235 448 237 449 q 232 445 233 447 q 231 437 231 442 l 231 405 l 239 405 q 254 408 248 405 m 348 362 q 350 366 350 363 q 348 372 350 368 l 340 393 l 339 396 l 324 435 l 309 396 l 309 393 l 303 380 q 300 369 300 374 q 303 363 300 365 q 312 361 307 361 l 312 358 q 305 358 310 358 q 297 359 300 359 q 292 358 295 359 q 287 358 288 358 l 287 361 q 297 372 293 361 l 328 452 l 330 452 l 362 370 q 372 361 366 361 l 372 358 q 366 358 370 358 q 357 359 361 359 q 348 358 353 359 q 340 358 342 358 l 340 361 q 348 362 345 361 m 458 402 q 466 393 463 399 q 469 381 469 389 q 465 368 469 373 q 455 359 461 362 q 441 357 450 357 q 431 358 436 357 q 423 361 429 358 q 418 363 420 363 l 416 361 q 416 357 416 361 l 412 357 q 413 389 413 362 l 416 389 q 422 368 417 375 q 440 359 429 359 q 448 361 444 359 q 454 367 452 363 q 457 376 457 372 q 454 386 457 380 q 448 393 452 390 q 437 401 441 399 q 424 409 425 408 q 416 418 420 412 q 413 430 413 423 q 416 443 413 437 q 425 450 420 448 q 438 453 431 453 q 445 452 443 453 q 450 450 447 452 l 454 448 q 458 446 457 446 q 460 448 459 446 q 461 452 461 448 l 465 452 q 464 425 464 446 l 460 425 q 458 437 460 429 q 450 447 456 444 q 439 450 446 450 q 431 448 435 450 q 425 443 428 447 q 423 435 423 439 q 427 424 423 428 q 437 416 433 418 q 442 412 439 414 l 445 411 q 458 402 456 404 m 545 397 q 528 394 534 394 l 524 394 q 522 394 524 394 q 519 395 520 395 q 511 398 512 395 q 513 400 511 399 q 517 401 514 401 q 547 404 536 401 q 564 414 557 406 q 569 434 569 420 l 569 435 l 569 435 l 569 435 l 569 435 l 569 435 l 569 435 l 569 435 l 570 435 l 570 435 l 570 435 l 570 435 l 570 435 l 570 435 l 570 435 l 570 434 q 565 414 570 421 q 547 403 559 406 q 517 400 536 400 q 515 400 516 400 l 514 399 q 517 396 511 397 q 521 395 519 395 l 528 395 q 545 397 536 395 q 561 405 553 399 q 573 416 569 410 q 578 431 578 422 q 575 442 578 437 q 568 450 572 446 q 559 455 563 454 q 551 458 551 458 q 536 460 541 460 q 524 459 528 460 q 518 458 522 458 q 512 456 514 457 q 501 453 508 456 q 496 451 499 452 q 492 449 494 450 q 490 448 491 449 q 488 447 488 448 q 487 446 488 446 q 486 446 486 446 l 483 444 q 475 435 477 438 q 472 426 472 431 l 472 425 q 481 411 473 416 q 502 412 489 405 l 502 412 l 503 412 l 503 412 l 503 412 l 503 412 l 503 411 l 503 411 l 503 411 l 503 411 l 503 410 l 503 410 l 503 410 l 503 410 q 479 410 490 403 q 471 423 473 415 l 471 424 l 471 425 l 471 425 l 471 427 q 472 433 471 429 q 474 438 473 435 q 477 441 475 439 l 478 443 l 481 446 l 484 448 q 496 455 492 453 q 510 460 503 458 q 514 461 512 460 q 520 461 517 461 q 524 462 523 462 q 537 463 529 463 q 547 462 544 463 q 557 459 554 460 q 565 455 563 457 q 573 448 572 450 q 578 439 577 443 q 579 431 579 433 q 577 420 579 425 q 572 413 575 416 q 570 411 571 412 q 569 410 569 410 q 567 408 568 409 q 566 407 566 408 q 561 404 564 406 q 545 397 553 399 m 498 375 l 518 443 q 520 444 518 444 l 521 444 l 521 443 l 522 442 l 522 441 l 499 374 q 498 374 499 374 q 498 374 498 374 l 498 375 m 633 427 l 632 427 l 632 429 l 633 431 q 634 433 633 433 l 635 432 l 635 431 l 634 428 q 633 427 634 427 m 813 402 q 815 399 815 400 q 814 396 815 397 q 806 393 812 395 q 777 399 805 393 q 734 399 753 405 q 702 400 712 393 q 699 403 699 401 l 694 395 l 692 391 l 690 387 l 687 383 q 685 381 686 382 q 684 378 684 379 q 677 376 680 375 q 677 389 675 376 q 678 393 678 390 q 679 397 678 396 l 681 406 q 682 409 681 407 q 683 413 682 412 q 676 401 679 406 q 668 392 673 397 q 659 388 663 387 q 656 390 659 388 q 655 398 654 393 l 651 392 q 642 383 646 385 q 634 386 636 380 q 633 399 632 392 q 615 374 621 384 l 612 365 q 600 335 610 359 q 595 326 597 328 q 593 325 595 326 l 593 324 q 592 323 593 323 q 591 324 591 323 q 589 328 589 327 q 591 334 589 329 q 600 353 593 341 q 614 375 606 363 q 619 391 616 380 q 624 404 623 401 q 621 401 623 403 q 618 399 621 400 q 613 400 615 397 l 612 398 q 611 397 611 397 q 610 395 610 395 q 608 392 610 393 q 607 391 608 392 q 606 390 606 391 q 600 391 601 388 q 600 401 598 395 q 599 400 600 400 q 597 399 598 400 q 595 399 597 399 q 593 399 594 399 q 595 410 593 401 q 584 399 589 405 q 576 387 581 394 l 575 386 l 574 387 l 574 387 q 578 401 575 392 q 580 409 578 404 q 583 416 582 414 q 526 385 564 387 l 525 385 l 525 385 l 525 385 l 525 385 l 524 385 l 524 386 l 524 386 l 525 386 l 525 387 l 525 387 l 525 387 l 526 387 q 585 425 567 387 l 586 425 q 587 426 586 426 l 588 425 l 588 425 l 588 425 l 586 420 l 581 406 q 580 402 581 405 q 578 399 579 400 q 578 395 578 397 q 577 391 578 393 q 581 396 578 393 q 583 401 583 399 q 591 410 589 408 l 595 414 l 597 415 l 597 416 l 598 416 l 600 416 l 600 414 q 598 412 600 414 q 597 410 597 411 q 595 400 593 401 q 600 404 598 400 q 611 416 604 415 q 613 414 613 416 q 614 411 614 412 l 614 409 l 614 407 l 614 406 l 614 404 l 614 403 l 613 401 l 614 401 q 620 401 616 398 q 623 406 622 403 q 626 410 625 407 l 626 410 l 627 411 q 627 412 627 412 l 627 412 l 628 411 l 628 411 l 628 410 q 618 381 623 394 q 633 403 623 388 l 635 405 q 640 415 637 411 q 648 419 644 420 q 650 410 652 417 q 642 396 646 397 q 639 397 640 396 l 639 399 l 640 399 q 642 397 640 397 q 646 404 644 397 l 646 405 q 647 416 651 415 q 641 411 645 417 q 636 398 637 405 q 637 386 635 391 q 645 387 640 382 q 654 399 646 389 q 656 400 655 399 q 656 402 656 401 l 656 404 q 672 419 661 419 q 676 417 675 419 q 675 412 677 414 q 671 409 674 410 q 668 410 669 408 q 670 412 668 412 q 671 412 671 412 q 675 413 674 409 q 675 415 675 414 q 671 418 673 419 q 659 398 665 416 q 659 390 655 391 q 673 399 665 389 q 686 422 681 410 l 680 421 q 679 422 679 421 l 680 422 l 686 424 q 690 433 688 428 q 692 441 691 438 q 696 441 693 443 q 696 440 696 441 q 689 424 693 434 q 709 425 700 426 q 725 426 719 424 q 731 436 731 428 q 732 436 731 437 q 732 425 739 429 q 714 422 731 421 q 688 422 696 424 q 683 404 685 415 q 682 402 682 404 q 682 399 682 400 q 680 395 680 397 l 678 387 q 678 376 676 378 q 683 379 680 376 q 687 385 686 382 l 688 387 q 691 391 689 389 q 693 395 692 394 q 695 400 694 397 q 698 404 697 403 q 696 407 696 406 q 699 414 694 412 q 701 414 701 415 q 699 404 703 411 q 702 401 700 403 q 733 400 711 394 q 777 400 752 406 q 806 395 803 395 q 813 397 811 395 q 814 399 814 397 q 813 401 814 401 q 811 401 812 402 q 810 399 810 401 q 812 399 811 399 l 812 398 l 812 397 q 811 398 811 397 q 810 398 811 398 q 809 399 809 398 q 813 402 809 403 m 601 391 q 609 395 603 386 q 612 401 611 398 q 610 401 610 401 q 607 405 607 403 q 608 409 607 408 q 608 411 608 410 q 609 412 608 412 l 608 412 q 608 412 608 412 q 607 410 608 411 l 606 408 q 602 401 602 404 q 600 394 600 395 q 601 393 600 393 q 601 391 601 392 m 612 402 q 613 408 613 406 q 612 413 613 412 l 612 412 l 611 412 q 610 412 610 412 q 610 410 610 411 q 609 408 609 409 l 609 406 q 612 402 609 404 m 610 366 l 610 367 q 606 360 609 365 q 601 352 602 355 q 593 334 595 342 q 591 328 591 330 q 592 326 591 326 q 593 328 593 327 q 598 336 595 330 q 610 366 604 349 m 700 414 q 699 405 694 412 q 701 409 700 406 q 700 414 701 412 m 328 607 l 332 595 l 313 590 l 315 583 l 332 587 l 334 575 l 318 571 l 320 564 l 339 568 l 342 556 l 309 548 l 296 598 l 328 607 m 504 550 q 505 544 504 550 q 498 529 506 538 q 480 518 491 519 q 459 524 469 517 q 452 563 437 541 q 471 574 460 574 q 492 568 481 576 q 504 550 502 561 m 467 535 q 486 538 478 526 q 484 557 494 549 q 473 560 479 562 q 465 554 469 559 q 467 535 457 543 m 241 570 q 261 574 250 576 q 278 564 271 574 q 283 544 285 555 q 271 527 281 534 l 254 515 l 224 557 l 241 570 m 267 555 q 258 561 264 559 q 248 558 254 562 l 243 555 l 258 534 l 263 537 q 267 555 274 546 m 425 549 l 410 551 l 411 582 l 393 554 l 389 555 l 380 587 l 371 558 l 357 560 l 373 610 l 387 608 l 395 578 l 412 604 l 425 602 l 425 549 m 269 238 q 252 228 262 229 q 232 235 241 227 l 216 248 l 248 289 l 264 276 q 275 258 274 269 q 269 238 276 248 m 251 270 l 235 250 l 239 245 q 258 248 250 237 q 256 266 266 258 l 251 270 m 480 279 q 498 269 491 278 q 504 248 506 259 q 492 229 502 237 q 471 223 481 222 q 452 234 460 224 q 447 255 445 243 q 458 273 448 266 q 480 279 469 281 m 484 240 q 486 259 494 248 q 477 265 482 264 q 467 262 471 267 q 465 243 456 254 q 484 240 473 232 m 334 229 l 316 235 l 314 227 l 330 222 l 328 211 l 311 216 l 309 208 l 328 203 l 324 191 l 292 200 l 306 250 l 338 241 l 334 229 m 401 191 l 396 190 l 378 218 l 378 187 l 364 185 l 363 238 l 378 240 l 395 214 l 402 244 l 416 246 l 433 196 l 418 194 l 410 223 l 401 191 m 479 339 q 486 341 482 343 q 488 336 490 338 q 438 281 471 302 q 366 260 405 260 q 291 282 324 260 q 241 340 257 304 q 243 347 239 345 l 243 347 q 249 345 248 348 q 296 290 264 311 q 366 269 328 269 q 433 288 403 269 q 479 339 463 307 m 479 467 q 473 468 475 464 q 427 511 455 495 q 366 526 399 526 q 304 510 332 526 q 258 467 275 494 q 252 465 255 463 q 250 472 248 468 q 299 518 269 501 q 366 535 330 535 q 431 518 401 535 q 480 473 461 501 q 479 467 483 469 m 172 396 q 222 527 172 471 q 226 528 224 528 q 229 527 227 528 q 229 521 232 525 q 181 396 181 467 q 222 281 181 332 q 220 274 224 277 q 214 275 217 271 q 172 396 172 328 m 549 359 q 552 363 550 363 l 554 363 q 557 357 559 361 q 521 277 549 313 q 515 277 519 274 q 513 283 511 279 q 549 359 541 319 m 509 526 q 513 524 511 526 q 536 491 528 507 q 534 485 538 488 q 529 486 531 483 q 506 519 521 502 q 507 525 503 523 q 509 526 508 526 z "}}}
